<?xml version="1.0" encoding="utf-8"?>
<!--Designed by Vexels.com - 2018 All Rights Reserved - https://vexels.com/terms-and-conditions/-->
<svg version="1.1" id="Layer_1" xmlns="http://www.w3.org/2000/svg" xmlns:xlink="http://www.w3.org/1999/xlink" x="0px" y="0px"
	 viewBox="0 0 1200 1200" enable-background="new 0 0 1200 1200" xml:space="preserve">
<g>
	<path fill="#F90000" d="M344.655,767.828c2.322,10.123,63.215,171.098,63.215,171.098s-61.437,33.127-68.885,104.439
		c-1.984,18.996-2.186,34.18-1.806,45.145c0.192,5.553-7.051,7.838-10.089,3.186c-26.966-41.294-88.099-147.012-57.413-215.506
		C308.497,789.541,344.655,767.828,344.655,767.828"/>
	<path fill="#FA3333" d="M346.147,782.427c-6.078,7.376-11.899,14.967-17.459,22.737c-9.824,13.728-18.855,28.056-26.694,43.013
		c-7.334,13.994-13.684,28.6-18.035,43.809c-3.927,13.723-6.296,28.152-5.122,42.451c1.059,12.879,5.254,25.401,13.104,35.751
		c4.234,5.582,9.392,10.417,15.086,14.484c0.77,0.55,1.549,1.085,2.338,1.607c0.377,0.25,1.782,1.458,2.242,1.458
		c0.011,0,0.022-0.001,0.032-0.002c0.519-0.076,0.438-3.57,0.482-4.403c0.09-1.706,0.172-3.412,0.247-5.119
		c0.289-6.556,0.481-13.115,0.71-19.673c0.436-12.476,1.028-24.967,2.77-37.34c1.848-13.125,5.086-25.975,9.895-38.332
		c8.34-21.424,20.183-41.242,34.392-59.263c-3.985-11.156-7.121-19.956-8.669-24.347
		C349.216,792.874,347.47,787.167,346.147,782.427"/>
	<path fill="#F90000" d="M855.344,767.828c-2.322,10.123-63.214,171.098-63.214,171.098s61.437,33.127,68.885,104.439
		c1.984,18.996,2.186,34.18,1.807,45.145c-0.193,5.553,7.051,7.838,10.088,3.186c26.966-41.294,88.1-147.012,57.413-215.506
		C891.503,789.541,855.344,767.828,855.344,767.828"/>
	<path fill="#F90000" d="M732.916,249.842c-40.88,20.028-86.926,30.072-132.973,30.072c-46.046,0-92.093-10.044-132.973-30.072
		c42.34-75.163,84.381-140.191,109.538-187.347c8.872-16.659,37.998-16.659,46.87,0C648.536,109.65,690.576,174.678,732.916,249.842
		"/>
	<path fill="#CCCCCC" d="M732.717,249.489c0.067,0.119,0.132,0.234,0.199,0.353l0,0C732.85,249.724,732.784,249.606,732.717,249.489
		"/>
	<path fill="#C70000" d="M475.696,234.489c-2.904,5.071-5.813,10.182-8.726,15.352c13.589,6.657,27.746,12.211,42.287,16.66
		l0.022-0.022c22.992,7.034,46.936,11.275,71.082,12.78c-0.015,0.015-0.031,0.03-0.046,0.045c6.121,0.38,12.253,0.583,18.388,0.607
		v-22.076c-3.248,0.093-6.496,0.14-9.745,0.14c-6.162,0-12.322-0.168-18.474-0.509c-20.397-1.129-40.763-4.154-60.427-9.755
		C498.247,244.347,486.672,240.007,475.696,234.489 M722.519,231.587c3.459,6.021,6.925,12.09,10.397,18.254
		c-0.067-0.119-0.132-0.234-0.199-0.353C729.312,243.445,725.912,237.493,722.519,231.587"/>
	<path fill="#FDDA20" d="M409.189,902.281h381.508c43.471-56.413,77.785-132.14,80.059-231.589
		c3.032-133-56.94-272.464-121.181-390.808c-5.54-10.165-11.081-20.21-16.659-30.042c-40.88,20.028-86.926,30.072-132.973,30.072
		c-46.046,0-92.093-10.044-132.973-30.072c-5.578,9.832-11.118,19.876-16.659,30.042c-64.24,118.344-124.213,257.808-121.18,390.808
		C331.405,770.141,365.719,845.868,409.189,902.281"/>
	<path fill="#CCCCCC" d="M450.113,280.249c-0.003,0.006-0.006,0.012-0.009,0.017C450.107,280.259,450.109,280.256,450.113,280.249"
		/>
	<path fill="#CAAE1A" d="M551.479,310.662c-13.465,16.35-25.629,33.776-36.482,52.013c21.364,4.308,43.139,6.762,64.815,8.105
		c6.278,0.389,12.583,0.616,18.89,0.688v-57.472C582.898,313.941,567.107,312.83,551.479,310.662 M750.07,280.794
		c2.102,3.878,4.197,7.784,6.288,11.706c0.571,1.071,1.138,2.149,1.707,3.223c1.748,3.293,3.489,6.599,5.225,9.922
		c0.562,1.077,1.122,2.155,1.684,3.235c1.834,3.53,3.659,7.074,5.476,10.634c0.406,0.796,0.813,1.589,1.218,2.387
		c2.221,4.369,4.425,8.756,6.615,13.169c0.001,0,0.002-0.001,0.003-0.001C769.107,316.572,759.64,298.447,750.07,280.794
		 M450.311,279.883L450.311,279.883L450.311,279.883c-0.066,0.122-0.132,0.244-0.198,0.365c-0.004,0.007-0.005,0.01-0.009,0.017
		c-8.442,15.56-16.801,31.493-24.961,47.719c10.556,7.196,22.052,13.148,33.875,18.072c3.2-6.362,6.438-12.702,9.717-19.008
		c5.62-10.809,11.579-21.557,18.24-31.822C474.429,290.871,462.17,285.755,450.311,279.883"/>
	<path fill="#CAAE1A" d="M425.81,777.134c0.173,4.384,0.395,8.769,0.67,13.148c0.278,4.435,0.622,8.865,1.024,13.288
		c41.644,12.95,85.508,20.677,129.785,23.668c0.024-0.03,0.047-0.059,0.071-0.089c7.716,0.521,15.444,0.896,23.174,1.13
		c5.497-6.129,11.636-9.42,18.169-10.694v-22.094c-0.399,0.019-0.797,0.037-1.196,0.055c-9.627,0.435-19.28,0.662-28.925,0.662
		c-42.751,0-85.521-4.442-127.033-14.823C436.271,780.066,431.026,778.649,425.81,777.134 M863.406,740.875
		c-0.006,0.002-0.013,0.004-0.019,0.007c-0.705,3.668-1.455,7.299-2.25,10.89c-0.195,0.879-0.392,1.756-0.592,2.631
		c-1.121,4.908-2.326,9.741-3.608,14.502c0.006,0.004,0.012,0.009,0.018,0.013C859.4,759.838,861.561,750.489,863.406,740.875
		 M336.285,739.719c1.821,9.643,3.96,19.02,6.384,28.126c0.112,0.062,0.212,0.116,0.325,0.178c7.194,3.94,14.53,7.653,21.978,11.173
		c-1.531-8.848-2.818-17.735-3.869-26.654C352.694,748.542,344.418,744.266,336.285,739.719"/>
	<path fill="#FFFFFF" d="M749.576,279.883c-91.868,45.487-207.396,45.487-299.264,0l15.723-30.496
		c0.3,0.152,0.636,0.303,0.936,0.455c40.88,20.028,86.927,30.072,132.973,30.072c46.047,0,92.093-10.044,132.973-30.072
		c0.3-0.152,0.637-0.303,0.936-0.455L749.576,279.883"/>
	<path fill="#FFFFFF" d="M797.742,940.868c-145.145,71.835-250.455,71.833-395.599-0.004c0,0-43.309-120.702-50.677-141.604
		c-6.555-18.597-8.827-31.431-8.827-31.431c153.53,84.297,366.035,75.685,512.748,6.758c0,0-5.228,18.932-7.525,25.23
		C843.649,811.362,797.742,940.868,797.742,940.868"/>
	<path fill="#A28B15" d="M342.994,768.023c7.201,3.945,14.541,7.69,21.988,11.23c-0.003-0.018-0.007-0.038-0.01-0.056
		C357.524,775.676,350.188,771.963,342.994,768.023"/>
	<path fill="#C70000" d="M360.135,823.607L360.135,823.607c0.748,2.094,1.525,4.267,2.328,6.513
		C361.66,827.874,360.883,825.701,360.135,823.607 M342.873,769.04L342.873,769.04c0.422,2.096,1.44,6.812,3.274,13.386v0
		C344.314,775.852,343.295,771.136,342.873,769.04"/>
	<path fill="#C82929" d="M346.147,782.427L346.147,782.427c1.322,4.741,3.068,10.448,5.319,16.834
		c1.548,4.391,4.683,13.191,8.669,24.347l0,0c-3.985-11.156-7.121-19.956-8.669-24.347
		C349.216,792.874,347.47,787.167,346.147,782.427"/>
	<path fill="#C70000" d="M402.143,940.864c0.092,0.045,0.183,0.091,0.275,0.136C402.33,940.956,402.232,940.908,402.143,940.864"/>
	<path fill="#CCCCCC" d="M342.639,767.828c0,0,0.033,0.188,0.104,0.552c0.034,0.178,0.078,0.399,0.13,0.66
		c0.422,2.096,1.44,6.812,3.274,13.386c1.322,4.741,3.068,10.447,5.319,16.833c1.548,4.391,4.683,13.191,8.669,24.347
		c0.748,2.094,1.525,4.267,2.328,6.513c15.287,42.76,39.68,110.744,39.68,110.744l0,0c0.089,0.044,0.186,0.092,0.275,0.136
		c5.481,2.709,10.887,5.282,16.26,7.787c-3.696-14.017-7.347-28.044-10.939-42.086c-0.818-3.197-1.634-6.393-2.449-9.59
		c-2.866-3.877-5.682-7.852-8.462-11.888c-4.952-11.064-9.415-22.352-13.378-33.818c-8.121-23.497-14.227-47.659-18.468-72.153
		c-7.447-3.54-14.787-7.285-21.988-11.23C342.875,767.958,342.758,767.893,342.639,767.828L342.639,767.828"/>
	<path fill="#A28B15" d="M557.359,827.15c-0.024,0.03-0.048,0.059-0.071,0.089c7.713,0.521,15.435,0.898,23.162,1.134
		c0.028-0.031,0.055-0.062,0.083-0.093C572.803,828.046,565.075,827.671,557.359,827.15"/>
	<path fill="#CCCCCC" d="M557.288,827.239c-1.135,1.42-2.115,2.969-2.953,4.568c-3.495,6.671-5.257,14.231-6.574,21.595
		c-2.71,15.157-3.347,30.68-3.399,46.052c-0.076,22.134-0.38,44.245,0.808,66.361c0.441,8.216,1.08,16.428,1.904,24.621
		c2.93,0.465,5.853,0.891,8.773,1.28c-0.624-9.246-0.965-18.686-0.965-28.27c0-78.817,10.296-117.944,25.568-135.073
		C572.723,828.136,565.001,827.76,557.288,827.239"/>
	<path fill="#CCCCCC" d="M796.407,941.514c-3.336,1.642-6.653,3.25-9.945,4.808c-3.145,1.496-6.26,2.934-9.369,4.36
		c-0.293,0.134-0.589,0.277-0.882,0.411l0.003-0.006l0,0c-0.001,0.002-0.002,0.004-0.003,0.006
		c6.66-3.045,13.381-6.212,20.207-9.572C796.415,941.518,796.411,941.516,796.407,941.514"/>
	<path fill="#CAAE1A" d="M598.702,383.729c-43.304,0.284-83.119,15.508-114.555,40.765c-13.724,32.954-24.207,67.267-32.259,102.018
		c-5.868,25.324-10.439,50.932-14.024,76.675c-2.044,14.678-3.977,29.376-5.685,44.097
		c29.405,62.693,92.932,106.316,166.522,106.798v-37.437c-81.027-0.666-146.503-66.556-146.503-147.74
		s65.475-147.075,146.503-147.74V383.729"/>
	<path fill="#63D1E2" d="M747.691,568.906c0,81.598-66.148,147.745-147.746,147.745s-147.746-66.148-147.746-147.745
		S518.347,421.16,599.945,421.16S747.691,487.308,747.691,568.906"/>
	<path fill="#E0F6F9" d="M508.16,547.361c-8.619,0-15.606,6.987-15.606,15.606c0,8.619,6.987,15.606,15.606,15.606
		c8.618,0,15.605-6.987,15.605-15.606C523.765,554.348,516.778,547.361,508.16,547.361"/>
	<path fill="#E0F6F9" d="M567.174,460.822c-21.155,0-38.305,17.149-38.305,38.304c0,21.155,17.15,38.304,38.305,38.304
		c13.073,0,24.617-6.549,31.529-16.546v-43.516C591.79,467.371,580.247,460.822,567.174,460.822"/>
	<path fill="#F90000" d="M656.074,963.445c0,73.168-19.819,137.665-34.649,175.685c-5.654,14.493-26.241,14.493-31.894,0
		c-14.83-38.019-34.649-102.517-34.649-175.685c0-116.906,22.653-146.492,50.596-146.492
		C633.421,816.953,656.074,846.539,656.074,963.445"/>
	<path fill="#FA3333" d="M598.702,882.882c-11.569,5.951-20.11,29.928-20.11,94.594c0,48.044,10.532,90.394,18.412,115.359
		c0.423,1.341,1.004,2.494,1.698,3.457V882.882"/>
	<path fill="#FFFFFF" d="M571.962,70.881c-9.097,16.538-20.002,35.06-32.058,55.23c-0.002,0.005-0.003,0.009-0.005,0.014
		C551.965,105.938,562.865,87.423,571.962,70.881"/>
	<path fill="#FA3333" d="M599.875,50.029c-9.474,0-18.937,4.148-23.366,12.465c-1.459,2.735-2.976,5.532-4.546,8.387
		c-9.097,16.542-19.997,35.057-32.063,55.243c-9.984,26.606-17.643,54.021-25.597,81.285c-2.071,7.101-4.167,14.195-6.342,21.266
		c-1.033,3.357-2.084,6.708-3.159,10.053c-0.585,1.82-1.176,3.639-1.777,5.454l-0.125,0.377l0.566-0.752
		c0.652-0.832,1.302-1.667,1.947-2.504c10.436-13.521,20.076-27.644,29.209-42.074c18.504-29.235,34.948-59.7,51.767-89.917
		c4.069-7.31,8.163-14.609,12.314-21.878V50.07c0.453-0.018,0.904-0.027,1.356-0.027c0.303,0,0.607,0.004,0.911,0.014l0.592,0.032
		c4.815,0.241,9.526,1.556,13.529,3.943l0.047,0.028c0.285,0.171,0.566,0.347,0.844,0.528
		C611.352,51.55,605.611,50.029,599.875,50.029"/>
	<path fill="#D23333" d="M509.279,266.48l-0.022,0.022c22.983,7.032,46.92,11.303,71.057,12.803c0.015-0.015,0.031-0.03,0.046-0.045
		C556.214,277.755,532.271,273.514,509.279,266.48"/>
	<path fill="#FDE14D" d="M459.018,346.056c-7.86,15.629-15.491,31.4-22.941,47.19c-24.783,52.531-48.085,106.222-61.997,162.791
		c-11.773,47.869-17.54,97.413-16.437,146.706c0.372,16.627,1.51,33.261,3.46,49.798c20.841,9.916,42.489,18.138,64.707,24.592
		c-1.064-27.008-0.251-54.078,1.698-81.029c1.18-16.311,2.788-32.58,4.672-48.82c-11.169-23.814-17.416-50.383-17.416-78.379
		c0-58.327,27.107-110.443,69.384-144.411c5.893-14.151,12.385-28.054,19.537-41.63c3.598-6.83,7.368-13.563,11.312-20.19
		c-13.299-2.682-26.439-6.083-39.295-10.382C470.111,350.423,464.529,348.351,459.018,346.056"/>
	<path fill="#D5BE48" d="M486.975,295.227c-6.661,10.265-12.62,21.013-18.24,31.822c-3.279,6.306-6.517,12.646-9.717,19.008
		c5.511,2.295,11.093,4.367,16.684,6.236c12.856,4.299,25.996,7.7,39.295,10.382c10.853-18.237,23.017-35.663,36.482-52.013
		C529.48,307.61,507.826,302.466,486.975,295.227"/>
	<path fill="#D5BE48" d="M361.103,752.542c1.052,8.919,2.339,17.806,3.869,26.654c3.904,1.845,7.838,3.637,11.799,5.381
		c0.005,0.025,0.01,0.05,0.014,0.076c16.431,7.233,33.383,13.527,50.718,18.917c-0.402-4.424-0.746-8.853-1.024-13.288
		c-0.275-4.38-0.497-8.764-0.67-13.148C403.591,770.68,381.944,762.458,361.103,752.542"/>
	<path fill="#FFFFFF" d="M509.257,266.502l-0.356,0.356c-8.211,8.733-15.405,18.32-21.927,28.369
		c20.851,7.239,42.505,12.383,64.504,15.435c9.027-10.961,18.638-21.438,28.835-31.357
		C556.177,277.804,532.24,273.533,509.257,266.502"/>
	<path fill="#FFFFFF" d="M376.786,784.653c0.133,0.701,0.257,1.404,0.398,2.104c1.174,5.807,2.752,11.499,4.256,17.227
		c3,11.432,5.955,22.877,8.887,34.327c5.017,19.592,9.968,39.202,14.963,58.8c1.289,1.744,2.589,3.468,3.9,5.169h35.09
		c-2.935-11.458-5.433-23.032-7.574-34.649c-3.912-21.216-7.247-42.573-9.201-64.062
		C410.168,798.18,393.217,791.887,376.786,784.653"/>
	<path fill="#B5A244" d="M364.972,779.196c0.003,0.018,0.007,0.038,0.01,0.056c3.898,1.853,7.844,3.657,11.804,5.401
		c-0.005-0.025-0.009-0.051-0.014-0.076C372.81,782.833,368.876,781.041,364.972,779.196"/>
	<path fill="#D6D6D6" d="M364.982,779.252c4.241,24.494,10.346,48.656,18.468,72.153c3.963,11.465,8.426,22.754,13.378,33.818
		c2.78,4.037,5.596,8.011,8.462,11.888c-4.995-19.598-9.946-39.207-14.963-58.8c-2.932-11.45-5.887-22.894-8.887-34.327
		c-1.504-5.728-3.081-11.421-4.256-17.227c-0.141-0.7-0.266-1.403-0.398-2.104C372.826,782.91,368.88,781.105,364.982,779.252"/>
	<path fill="#D5BE48" d="M484.148,424.494c-42.277,33.968-69.384,86.084-69.384,144.411c0,27.995,6.247,54.565,17.416,78.379
		c1.707-14.721,3.641-29.419,5.685-44.097c3.585-25.743,8.157-51.352,14.024-76.675C459.94,491.761,470.424,457.448,484.148,424.494
		"/>
	<path fill="#CCCCCC" d="M865.752,1093.558c0.005,0.002,0.009,0.005,0.013,0.007C865.76,1093.562,865.756,1093.56,865.752,1093.558
		 M862.822,1088.952c0.08,2.149,1.299,3.76,2.913,4.597C864.122,1092.712,862.902,1091.101,862.822,1088.952 M860.988,1043.113
		c0.002,0.018,0.004,0.039,0.006,0.057C860.993,1043.153,860.99,1043.13,860.988,1043.113 M860.967,1042.909
		c0.002,0.022,0.005,0.043,0.007,0.065C860.971,1042.952,860.969,1042.931,860.967,1042.909 M860.945,1042.712
		c0.002,0.022,0.004,0.041,0.007,0.063C860.95,1042.753,860.948,1042.734,860.945,1042.712 M860.924,1042.516
		c0.002,0.018,0.004,0.036,0.006,0.054C860.928,1042.553,860.925,1042.533,860.924,1042.516 M860.877,1042.1
		c0.001,0.007,0.001,0.013,0.002,0.02C860.879,1042.115,860.877,1042.104,860.877,1042.1 M860.852,1041.882
		c0.002,0.014,0.003,0.027,0.005,0.041C860.855,1041.91,860.853,1041.895,860.852,1041.882 M860.828,1041.678
		c0.002,0.018,0.004,0.031,0.006,0.049C860.832,1041.709,860.83,1041.695,860.828,1041.678 M860.805,1041.485
		c0.001,0.007,0.003,0.021,0.003,0.029C860.807,1041.501,860.807,1041.498,860.805,1041.485 M860.73,1040.867
		c0,0.004,0.001,0.006,0.001,0.01C860.731,1040.873,860.731,1040.871,860.73,1040.867 M860.705,1040.664
		c0.001,0.004,0.001,0.004,0.001,0.007L860.705,1040.664 M809.298,950.938c0.003,0.003,0.006,0.005,0.009,0.007
		C809.305,950.943,809.299,950.939,809.298,950.938 M796.421,941.52l-0.002,0.001c3.071,1.974,7.584,5.089,12.825,9.373
		C804.006,946.611,799.494,943.496,796.421,941.52 M930.219,875.958c0.036,0.079,0.069,0.153,0.104,0.232
		c5.904,13.177,8.409,27.732,8.413,42.94c-0.004-15.209-2.509-29.763-8.413-42.94C930.288,876.112,930.254,876.036,930.219,875.958
		 M930.109,875.713c0.021,0.048,0.043,0.096,0.064,0.143C930.152,875.81,930.13,875.759,930.109,875.713 M930.004,875.479
		c0.019,0.042,0.04,0.088,0.059,0.13C930.044,875.568,930.022,875.521,930.004,875.479 M929.889,875.225
		c0.024,0.052,0.044,0.098,0.068,0.15C929.934,875.325,929.912,875.276,929.889,875.225 M929.779,874.979
		c0.026,0.058,0.047,0.103,0.073,0.161C929.828,875.089,929.802,875.03,929.779,874.979 M929.66,874.716
		c0.026,0.058,0.058,0.128,0.084,0.186C929.717,874.841,929.687,874.775,929.66,874.716 M929.415,874.173
		c0.073,0.162,0.148,0.328,0.222,0.49C929.562,874.498,929.489,874.338,929.415,874.173 M929.304,873.93
		c0.033,0.073,0.073,0.16,0.106,0.234C929.375,874.085,929.339,874.007,929.304,873.93 M929.194,873.687
		c0.033,0.073,0.064,0.14,0.097,0.213C929.26,873.831,929.225,873.755,929.194,873.687 M929.079,873.435
		c0.033,0.073,0.064,0.141,0.097,0.214C929.143,873.576,929.113,873.507,929.079,873.435 M928.964,873.181
		c0.033,0.073,0.07,0.154,0.103,0.227C929.034,873.336,928.997,873.254,928.964,873.181 M928.847,872.923
		c0.038,0.083,0.072,0.159,0.11,0.242C928.92,873.083,928.884,873.005,928.847,872.923 M928.506,872.178
		c0.114,0.248,0.226,0.493,0.339,0.742C928.732,872.671,928.621,872.427,928.506,872.178 M928.393,871.931
		c0.038,0.083,0.072,0.158,0.11,0.24C928.466,872.089,928.43,872.012,928.393,871.931 M928.282,871.689
		c0.038,0.082,0.07,0.154,0.108,0.236C928.355,871.848,928.317,871.766,928.282,871.689 M858.15,769.798
		c9.012,6.823,38.482,32.911,70.126,101.876C896.628,802.702,867.156,776.615,858.15,769.798 M858.124,769.778
		c0.007,0.006,0.014,0.011,0.022,0.016C858.138,769.789,858.131,769.783,858.124,769.778 M858.101,769.761
		c0.002,0.001,0.006,0.004,0.008,0.006C858.107,769.765,858.104,769.763,858.101,769.761 M870.715,672.377c0,0.006,0,0.009,0,0.015
		C870.715,672.387,870.715,672.382,870.715,672.377 M870.725,671.983c-0.001,0.036-0.002,0.068-0.003,0.104
		C870.723,672.052,870.724,672.018,870.725,671.983 M870.734,671.651c-0.001,0.036-0.002,0.079-0.003,0.115
		C870.732,671.729,870.732,671.688,870.734,671.651 M870.741,671.328c-0.001,0.042-0.002,0.081-0.003,0.124
		C870.74,671.411,870.74,671.368,870.741,671.328 M870.749,671.004c-0.001,0.043-0.002,0.076-0.003,0.118
		C870.747,671.083,870.748,671.043,870.749,671.004 M870.765,670.326c-0.003,0.122-0.005,0.244-0.008,0.365
		C870.759,670.57,870.762,670.448,870.765,670.326 M870.773,669.956c-0.001,0.073-0.003,0.16-0.005,0.233
		C870.769,670.11,870.771,670.035,870.773,669.956 M870.78,669.59c-0.001,0.065-0.003,0.146-0.004,0.211
		C870.777,669.73,870.779,669.662,870.78,669.59 M870.787,669.224c-0.001,0.065-0.003,0.133-0.004,0.198
		C870.785,669.357,870.786,669.289,870.787,669.224 M870.794,668.853c-0.001,0.065-0.002,0.13-0.004,0.195
		C870.792,668.983,870.793,668.917,870.794,668.853 M870.801,668.48c-0.001,0.065-0.003,0.137-0.004,0.202
		C870.799,668.61,870.8,668.551,870.801,668.48 M870.807,668.11c-0.001,0.065-0.002,0.135-0.003,0.2
		C870.805,668.245,870.806,668.175,870.807,668.11 M870.813,667.79c-0.001,0.049-0.002,0.102-0.002,0.151
		C870.811,667.89,870.812,667.84,870.813,667.79 M870.821,667.229c-0.001,0.049-0.001,0.09-0.002,0.138
		C870.82,667.317,870.82,667.279,870.821,667.229 M870.826,666.863c-0.001,0.049-0.001,0.107-0.002,0.155
		C870.825,666.968,870.826,666.913,870.826,666.863 M870.831,666.492c-0.001,0.057-0.001,0.112-0.002,0.168
		C870.83,666.603,870.831,666.549,870.831,666.492 M870.836,666.136c-0.001,0.049-0.001,0.104-0.002,0.153
		C870.835,666.231,870.835,666.193,870.836,666.136 M870.84,665.775c0,0.049-0.001,0.093-0.002,0.142
		C870.839,665.874,870.839,665.818,870.84,665.775 M870.844,665.412c-0.001,0.049-0.001,0.092-0.002,0.141
		C870.843,665.51,870.843,665.455,870.844,665.412 M870.847,665.07c0,0.041-0.001,0.079-0.001,0.12
		C870.847,665.147,870.847,665.113,870.847,665.07 M870.855,664.134c0,0.016,0,0.037-0.001,0.054
		C870.855,664.173,870.855,664.148,870.855,664.134 M870.858,663.768c0,0.033-0.001,0.065-0.001,0.097
		C870.857,663.837,870.858,663.797,870.858,663.768 M870.86,663.408c0,0.032-0.001,0.071-0.001,0.104
		C870.859,663.475,870.86,663.443,870.86,663.408 M870.862,663.055c0,0.033,0,0.064-0.001,0.097
		C870.861,663.122,870.862,663.083,870.862,663.055 M870.863,662.715c0,0.024,0,0.044,0,0.068
		C870.863,662.761,870.863,662.736,870.863,662.715 M870.864,662.385c0,0.016,0,0.023,0,0.039
		C870.864,662.417,870.864,662.392,870.864,662.385 M870.867,661.034v0.01V661.034 M870.867,660.683c0,0.016,0,0.009,0,0.026
		C870.867,660.701,870.867,660.69,870.867,660.683 M870.866,660.326c0,0.016,0,0.025,0,0.042
		C870.866,660.353,870.866,660.34,870.866,660.326 M870.866,659.988c0,0.008,0,0.013,0,0.021
		C870.866,660.002,870.866,659.995,870.866,659.988 M749.96,280.592c0.023,0.043,0.047,0.087,0.071,0.131
		C750.007,280.679,749.983,280.635,749.96,280.592 M733.852,249.387c-0.299,0.151-0.636,0.303-0.936,0.455l0,0l0,0l0,0
		C733.216,249.69,733.553,249.539,733.852,249.387l15.723,30.496l0,0l0,0l0,0c0.07,0.13,0.143,0.264,0.214,0.394
		c0.014,0.025,0.028,0.051,0.041,0.076c0.035,0.065,0.073,0.135,0.108,0.2c-0.121-0.223-0.242-0.447-0.363-0.67l-0.003-0.006
		L733.852,249.387 M624.557,64.695c0.006,0.012,0.01,0.019,0.017,0.031C624.568,64.715,624.563,64.705,624.557,64.695
		 M624.397,64.397c0.013,0.023,0.022,0.041,0.035,0.064C624.42,64.44,624.409,64.418,624.397,64.397 M624.247,64.118
		c0.014,0.026,0.025,0.047,0.039,0.073C624.274,64.167,624.26,64.142,624.247,64.118 M624.099,63.84
		c0.015,0.029,0.03,0.055,0.045,0.084C624.128,63.896,624.114,63.87,624.099,63.84 M623.952,63.566
		c0.015,0.029,0.032,0.06,0.048,0.089C623.984,63.626,623.967,63.595,623.952,63.566 M623.806,63.295
		c0.018,0.035,0.035,0.066,0.054,0.1C623.841,63.361,623.824,63.329,623.806,63.295 M623.661,63.023
		c0.018,0.035,0.037,0.07,0.056,0.105C623.699,63.094,623.679,63.058,623.661,63.023 M623.521,62.761
		c0.014,0.026,0.031,0.057,0.044,0.083C623.551,62.818,623.535,62.788,623.521,62.761 M623.331,62.406
		c0.016,0.029,0.032,0.059,0.047,0.088l0,0l0,0C623.363,62.465,623.347,62.436,623.331,62.406 M623.286,62.324
		c0.003,0.005,0.005,0.01,0.008,0.015C623.292,62.334,623.289,62.328,623.286,62.324"/>
	<path fill="#C70000" d="M856.955,768.917c-0.074,0.273-0.15,0.557-0.225,0.83c-0.002,0.008-0.002,0.008-0.004,0.015
		c-0.064,0.238-0.128,0.47-0.193,0.708c-0.002,0.008-0.005,0.019-0.007,0.026c-0.064,0.232-0.127,0.462-0.191,0.694
		c-0.004,0.015-0.006,0.023-0.01,0.038c-0.064,0.232-0.126,0.456-0.191,0.688c-0.003,0.011-0.008,0.028-0.011,0.039
		c-0.064,0.231-0.127,0.458-0.192,0.689c-0.002,0.007-0.006,0.02-0.008,0.028c-0.063,0.226-0.129,0.459-0.192,0.684
		c-0.005,0.019-0.01,0.036-0.015,0.055c-0.03,0.105-0.059,0.208-0.089,0.314c-0.001,0.004-0.005,0.017-0.006,0.021
		c-0.031,0.11-0.061,0.215-0.092,0.325c-0.006,0.022-0.013,0.046-0.02,0.069c-0.028,0.1-0.055,0.195-0.084,0.295
		c-0.003,0.011-0.007,0.025-0.01,0.036c-0.011,0.04-0.022,0.079-0.034,0.118c0.002-0.001,0.005-0.002,0.007-0.003l0,0l0,0
		c0,0,0,0,0,0.001c0,0,0,0,0,0s-0.251,0.91-0.668,2.397c7.744,9.069,15.088,18.485,22.026,28.181
		c9.823,13.728,18.855,28.056,26.693,43.013c7.334,13.994,13.684,28.6,18.035,43.809c3.927,13.723,6.296,28.152,5.121,42.451
		c-1.058,12.879-5.254,25.401-13.104,35.751c-4.233,5.582-9.392,10.417-15.086,14.484c-0.77,0.55-1.549,1.085-2.337,1.607
		c-0.378,0.25-1.782,1.458-2.243,1.458c-0.011,0-0.022-0.001-0.032-0.002c-0.519-0.076-0.438-3.57-0.482-4.403
		c-0.09-1.706-0.172-3.412-0.247-5.119c-0.289-6.556-0.481-13.115-0.71-19.673c-0.437-12.476-1.029-24.967-2.77-37.34
		c-1.848-13.125-5.086-25.975-9.895-38.332c-8.845-22.722-21.631-43.638-37.001-62.52c-0.501-0.616-1.005-1.229-1.511-1.841
		c-13.849,38.893-43.436,122.359-43.436,122.359c-0.443,0.219-0.878,0.434-1.321,0.652c3.073,1.976,7.585,5.091,12.823,9.374
		c0.017,0.014,0.036,0.029,0.053,0.044c0.002,0.001,0.007,0.006,0.009,0.007c18.4,15.057,45.742,44.511,51.399,89.719l0.001,0.007
		c0.008,0.065,0.016,0.131,0.024,0.196c0.001,0.004,0.001,0.006,0.001,0.01c0.025,0.202,0.05,0.405,0.074,0.608
		c0.001,0.013,0.002,0.016,0.003,0.029c0.006,0.054,0.013,0.11,0.019,0.164c0.002,0.017,0.004,0.032,0.006,0.049
		c0.006,0.051,0.012,0.104,0.018,0.155c0.001,0.013,0.003,0.028,0.005,0.041c0.007,0.058,0.014,0.119,0.02,0.177
		c0.001,0.004,0.002,0.016,0.002,0.02c0.015,0.131,0.03,0.265,0.045,0.396c0.002,0.017,0.004,0.037,0.006,0.054
		c0.005,0.047,0.01,0.095,0.016,0.142c0.002,0.022,0.004,0.041,0.007,0.063c0.005,0.044,0.01,0.091,0.015,0.135
		c0.002,0.022,0.005,0.043,0.007,0.065c0.005,0.047,0.01,0.091,0.015,0.139c0.002,0.017,0.004,0.04,0.006,0.057
		c0.007,0.066,0.014,0.129,0.021,0.195c1.472,14.099,1.964,26.098,1.964,35.83c0,3.381-0.059,6.488-0.157,9.315
		c-0.002,0.068-0.004,0.136-0.004,0.203c0,0.08,0.001,0.161,0.004,0.24c0.08,2.149,1.3,3.759,2.913,4.597
		c0.005,0.003,0.011,0.006,0.017,0.009c0.005,0.002,0.009,0.005,0.013,0.007c0.804,0.411,1.705,0.631,2.61,0.631
		c1.694,0,3.405-0.771,4.535-2.5c21.778-33.35,65.842-108.719,65.826-172.565c-0.004-15.209-2.509-29.763-8.413-42.94
		c-0.036-0.079-0.069-0.153-0.104-0.232c-0.015-0.033-0.031-0.069-0.046-0.102c-0.021-0.048-0.043-0.096-0.064-0.143
		c-0.017-0.037-0.03-0.067-0.047-0.104c-0.019-0.042-0.04-0.088-0.059-0.13c-0.017-0.037-0.03-0.067-0.047-0.104
		c-0.024-0.053-0.044-0.098-0.068-0.15c-0.012-0.028-0.026-0.058-0.038-0.085c-0.026-0.058-0.047-0.103-0.073-0.161
		c-0.012-0.028-0.022-0.05-0.035-0.078c-0.026-0.058-0.058-0.128-0.084-0.186c-0.008-0.018-0.015-0.034-0.024-0.052
		c-0.073-0.163-0.148-0.328-0.222-0.49c-0.002-0.005-0.003-0.005-0.004-0.01c-0.033-0.073-0.073-0.161-0.106-0.234
		c-0.004-0.009-0.009-0.021-0.013-0.03c-0.033-0.073-0.063-0.14-0.097-0.213c-0.006-0.014-0.011-0.024-0.017-0.038
		c-0.033-0.073-0.064-0.141-0.097-0.214c-0.004-0.009-0.008-0.017-0.012-0.026c-0.033-0.073-0.07-0.155-0.103-0.227
		c-0.002-0.004-0.005-0.012-0.008-0.016c-0.038-0.083-0.072-0.159-0.11-0.242l-0.001-0.002c-0.114-0.249-0.226-0.495-0.339-0.742
		l-0.003-0.008c-0.038-0.083-0.072-0.158-0.11-0.24c-0.002-0.004-0.001-0.001-0.003-0.006c-0.038-0.082-0.071-0.154-0.108-0.236
		c-0.002-0.005-0.005-0.01-0.007-0.014c-31.644-68.965-61.113-95.053-70.126-101.876c-0.002-0.001-0.003-0.002-0.004-0.003
		c-0.007-0.006-0.014-0.011-0.022-0.016c-0.005-0.004-0.01-0.007-0.015-0.011c-0.002-0.001-0.005-0.004-0.008-0.006
		C857.671,769.436,857.288,769.155,856.955,768.917"/>
	<path fill="#C82929" d="M854.72,776.983c-1.484,5.296-5.064,17.915-6.858,22.833c-0.831,2.277-3.282,9.14-6.684,18.693
		c0.506,0.612,1.01,1.225,1.511,1.841c15.37,18.882,28.156,39.798,37.001,62.52c4.81,12.357,8.047,25.207,9.895,38.332
		c1.742,12.373,2.334,24.863,2.77,37.34c0.229,6.557,0.421,13.117,0.71,19.673c0.075,1.707,0.157,3.413,0.247,5.119
		c0.044,0.832-0.038,4.326,0.482,4.403c0.01,0.001,0.021,0.002,0.032,0.002c0.461,0,1.865-1.208,2.243-1.458
		c0.788-0.522,1.567-1.058,2.337-1.607c5.694-4.068,10.853-8.902,15.086-14.484c7.85-10.351,12.045-22.872,13.104-35.751
		c1.175-14.299-1.194-28.728-5.121-42.451c-4.352-15.21-10.702-29.815-18.035-43.809c-7.838-14.957-16.87-29.284-26.693-43.013
		C869.807,795.468,862.464,786.052,854.72,776.983"/>
	<path fill="#C70000" d="M615.981,54.588c0.515,0.338,1.017,0.695,1.503,1.071c-6.452,10.474-12.679,21.09-18.782,31.775v170.401
		c12.076-0.345,24.139-1.327,36.11-2.914c20.476-2.714,40.758-7.195,60.352-13.757c9.09-3.045,18.06-6.547,26.768-10.6
		c0.196,0.341,0.392,0.682,0.588,1.023c-0.193-0.335-0.385-0.67-0.578-1.005l-0.01-0.018
		c-37.85-65.844-74.303-123.006-97.357-165.839c-0.006-0.012-0.01-0.019-0.017-0.031c-0.042-0.077-0.084-0.156-0.126-0.233
		c-0.013-0.023-0.022-0.041-0.035-0.064c-0.037-0.069-0.074-0.137-0.111-0.206c-0.014-0.026-0.025-0.047-0.039-0.073
		c-0.034-0.064-0.07-0.13-0.104-0.193c-0.016-0.029-0.03-0.055-0.045-0.084c-0.033-0.061-0.067-0.124-0.099-0.185
		c-0.015-0.029-0.032-0.06-0.048-0.089c-0.031-0.058-0.061-0.113-0.092-0.171c-0.018-0.035-0.035-0.066-0.054-0.1
		c-0.03-0.055-0.059-0.111-0.089-0.167c-0.019-0.035-0.038-0.07-0.056-0.105c-0.033-0.061-0.063-0.118-0.096-0.179
		c-0.014-0.026-0.031-0.057-0.044-0.083c-0.048-0.09-0.095-0.178-0.142-0.267l0,0c-0.016-0.029-0.031-0.059-0.047-0.088
		c-0.012-0.023-0.024-0.045-0.037-0.068c-0.003-0.005-0.005-0.01-0.008-0.015C621.527,59.096,618.975,56.541,615.981,54.588"/>
	<path fill="#9F0000" d="M721.931,230.564c-8.708,4.052-17.677,7.555-26.768,10.6c-19.594,6.562-39.876,11.043-60.352,13.757
		c-11.971,1.587-24.034,2.569-36.11,2.914v22.076c0.413,0.002,0.828,0.003,1.241,0.003c46.047,0,92.093-10.044,132.973-30.072l0,0
		c-3.472-6.164-6.938-12.234-10.397-18.254C722.323,231.246,722.127,230.905,721.931,230.564"/>
	<path fill="#CAAE1A" d="M855.414,774.47c-0.011,0.038-0.023,0.081-0.034,0.119v0C855.392,774.549,855.403,774.51,855.414,774.47
		 M855.508,774.139c-0.029,0.101-0.055,0.193-0.084,0.295C855.453,774.334,855.48,774.24,855.508,774.139 M855.62,773.745
		c-0.031,0.109-0.061,0.216-0.092,0.325C855.559,773.96,855.589,773.856,855.62,773.745 M855.715,773.411
		c-0.03,0.105-0.059,0.208-0.089,0.314C855.656,773.619,855.685,773.516,855.715,773.411 M855.923,772.672
		c-0.064,0.23-0.128,0.455-0.192,0.684C855.794,773.13,855.859,772.898,855.923,772.672 M856.123,771.955
		c-0.064,0.23-0.128,0.459-0.192,0.689C855.995,772.413,856.059,772.187,856.123,771.955 M856.324,771.228
		c-0.064,0.23-0.126,0.458-0.191,0.688C856.198,771.685,856.26,771.46,856.324,771.228 M856.526,770.496
		c-0.063,0.231-0.127,0.464-0.191,0.694C856.399,770.959,856.462,770.728,856.526,770.496 M856.726,769.762
		c-0.064,0.235-0.129,0.473-0.193,0.708C856.598,770.233,856.661,770,856.726,769.762 M856.955,768.917
		c-0.075,0.277-0.149,0.553-0.225,0.83C856.804,769.474,856.881,769.19,856.955,768.917L856.955,768.917 M778.283,335.07
		c-20.433,8.521-41.417,15.71-62.843,21.344c-36.394,9.568-74.492,15.079-112.321,15.079c-1.473,0-2.945-0.008-4.417-0.025v12.261
		c0.411-0.003,0.831-0.004,1.242-0.004c102.11,0,185.182,83.072,185.182,185.181s-83.072,185.181-185.182,185.181
		c-0.411,0-0.832-0.002-1.242-0.004v41.409c53.58-2.516,106.744-11.353,158.839-23.922c35.726-8.62,70.989-19.044,105.845-30.688
		c4.123-21.46,6.683-44.263,7.328-68.489c0-0.006,0-0.009,0-0.015c0.003-0.097,0.005-0.193,0.008-0.29
		c0.001-0.036,0.002-0.068,0.003-0.104c0.002-0.073,0.004-0.145,0.006-0.217c0.001-0.036,0.002-0.079,0.003-0.115
		c0.002-0.067,0.003-0.132,0.005-0.199c0.001-0.042,0.002-0.081,0.003-0.124c0.002-0.069,0.003-0.136,0.005-0.205
		c0.001-0.043,0.002-0.076,0.003-0.118c0.003-0.104,0.005-0.208,0.007-0.313l0,0c0.003-0.122,0.006-0.244,0.008-0.365
		c0.001-0.043,0.002-0.094,0.003-0.137c0.002-0.073,0.004-0.159,0.005-0.233c0.001-0.05,0.002-0.105,0.003-0.155
		c0.001-0.065,0.003-0.146,0.004-0.211c0.001-0.057,0.002-0.111,0.003-0.168c0.001-0.065,0.003-0.133,0.004-0.198
		c0.001-0.057,0.002-0.119,0.003-0.176c0.001-0.065,0.003-0.13,0.004-0.195c0.001-0.057,0.002-0.113,0.003-0.171
		c0.001-0.065,0.002-0.137,0.004-0.202c0.001-0.057,0.002-0.112,0.003-0.17c0.001-0.065,0.002-0.135,0.003-0.2
		c0.001-0.057,0.002-0.112,0.003-0.17c0.001-0.049,0.002-0.102,0.002-0.151c0.002-0.136,0.005-0.286,0.006-0.422
		c0.001-0.049,0.001-0.09,0.002-0.138c0.001-0.072,0.002-0.139,0.003-0.211c0.001-0.049,0.002-0.107,0.002-0.155
		c0.001-0.065,0.002-0.138,0.003-0.202c0.001-0.057,0.001-0.112,0.002-0.168c0.001-0.065,0.002-0.139,0.003-0.203
		c0.001-0.049,0.001-0.104,0.002-0.153c0.001-0.072,0.002-0.147,0.003-0.218c0.001-0.049,0.001-0.094,0.002-0.142
		c0.001-0.079,0.002-0.143,0.002-0.222c0-0.049,0.001-0.092,0.002-0.141c0.001-0.072,0.001-0.15,0.002-0.222
		c0-0.041,0.001-0.079,0.001-0.12c0.003-0.295,0.005-0.589,0.008-0.883c0-0.016,0-0.037,0.001-0.054
		c0-0.093,0.001-0.174,0.002-0.268c0-0.033,0-0.065,0.001-0.097c0.001-0.086,0.001-0.171,0.001-0.257
		c0-0.033,0.001-0.071,0.001-0.104c0.001-0.086,0.001-0.17,0.001-0.256c0-0.033,0-0.064,0.001-0.097
		c0-0.094,0.001-0.179,0.001-0.272c0-0.024,0-0.043,0-0.068c0.001-0.101,0.001-0.19,0.001-0.29c0-0.016,0-0.023,0-0.039
		c0.002-0.453,0.002-0.888,0.002-1.341v-0.01c0-0.108,0-0.218,0-0.326c0-0.016,0-0.009,0-0.026c0-0.108,0-0.207,0-0.315
		c0-0.016,0-0.025,0-0.042c0-0.108,0-0.209-0.001-0.317c0-0.008,0-0.013,0-0.021C870.615,550.448,828.891,437.04,778.283,335.07
		 M749.83,280.353c0.08,0.147,0.16,0.294,0.239,0.441c-0.013-0.024-0.026-0.048-0.039-0.072c-0.023-0.043-0.047-0.087-0.071-0.131
		c-0.007-0.013-0.014-0.026-0.021-0.039C749.904,280.488,749.866,280.418,749.83,280.353 M749.576,279.883
		c0.071,0.131,0.142,0.262,0.214,0.394C749.719,280.147,749.646,280.013,749.576,279.883"/>
	<path fill="#A3A3A3" d="M749.789,280.277c0.016,0.029,0.026,0.047,0.041,0.076C749.817,280.328,749.803,280.302,749.789,280.277"/>
	<path fill="#A28B15" d="M749.576,279.883c-45.934,22.743-97.783,34.115-149.632,34.115c-0.411,0-0.83-0.001-1.241-0.002v57.472
		c1.472,0.017,2.944,0.025,4.417,0.025c37.829,0,75.927-5.511,112.321-15.079c21.427-5.634,42.41-12.823,62.843-21.344
		c-2.19-4.413-4.395-8.8-6.615-13.169c-0.405-0.797-0.812-1.59-1.218-2.387c-1.817-3.56-3.642-7.104-5.476-10.634
		c-0.561-1.079-1.121-2.158-1.684-3.235c-1.736-3.323-3.478-6.629-5.225-9.922c-0.569-1.074-1.137-2.153-1.707-3.223
		c-2.091-3.922-4.186-7.828-6.288-11.706c-0.08-0.147-0.159-0.294-0.239-0.441c-0.016-0.029-0.025-0.047-0.041-0.076
		C749.718,280.146,749.647,280.015,749.576,279.883L749.576,279.883L749.576,279.883"/>
	<path fill="#9F0000" d="M855.425,774.434c-0.003,0.01-0.008,0.026-0.01,0.036C855.417,774.459,855.421,774.445,855.425,774.434
		 M855.528,774.071c-0.006,0.02-0.014,0.049-0.02,0.069C855.515,774.117,855.522,774.093,855.528,774.071 M855.626,773.724
		c-0.001,0.005-0.004,0.016-0.006,0.021C855.621,773.742,855.625,773.728,855.626,773.724 M855.73,773.356
		c-0.006,0.02-0.01,0.035-0.015,0.055C855.72,773.392,855.725,773.375,855.73,773.356 M855.931,772.644
		c-0.003,0.01-0.005,0.018-0.008,0.028C855.925,772.664,855.929,772.651,855.931,772.644 M856.134,771.916
		c-0.003,0.01-0.008,0.029-0.011,0.039C856.126,771.944,856.131,771.927,856.134,771.916 M856.335,771.191
		c-0.003,0.01-0.008,0.028-0.01,0.038C856.329,771.213,856.331,771.206,856.335,771.191 M856.533,770.47
		c-0.003,0.01-0.005,0.016-0.007,0.026C856.528,770.489,856.531,770.477,856.533,770.47 M856.73,769.747
		c-0.001,0.005-0.003,0.01-0.004,0.015C856.728,769.755,856.728,769.755,856.73,769.747"/>
	<path fill="#A28B15" d="M863.386,740.881c-34.856,11.644-70.119,22.068-105.845,30.688
		c-52.095,12.569-105.259,21.406-158.839,23.922v22.094c2.216-0.432,4.478-0.632,6.775-0.632c8.913,0,17.287,3.009,24.56,10.903
		c10.677-0.5,21.324-1.26,31.907-2.271c0.004,0.037,0.008,0.074,0.013,0.111c60.755-5.822,119.503-20.047,171.387-41.408
		c0.003-0.017,0.007-0.035,0.011-0.052c7.479-3.079,14.847-6.274,22.026-9.646c0.011-0.038,0.023-0.081,0.034-0.119
		c0.003-0.01,0.008-0.026,0.01-0.036c0.029-0.101,0.055-0.193,0.084-0.295c0.006-0.02,0.014-0.049,0.02-0.069
		c0.031-0.109,0.061-0.216,0.092-0.325c0.001-0.005,0.005-0.016,0.006-0.021c0.03-0.105,0.059-0.208,0.089-0.314
		c0.006-0.02,0.01-0.035,0.015-0.055c0.065-0.229,0.128-0.454,0.192-0.684c0.003-0.01,0.005-0.018,0.008-0.028
		c0.065-0.23,0.128-0.458,0.192-0.689c0.003-0.01,0.008-0.029,0.011-0.039c0.064-0.23,0.127-0.457,0.191-0.688
		c0.003-0.01,0.008-0.028,0.01-0.038c0.064-0.231,0.128-0.463,0.191-0.694c0.003-0.01,0.005-0.016,0.007-0.026
		c0.064-0.235,0.129-0.472,0.193-0.708c0.001-0.005,0.003-0.01,0.004-0.015c0.075-0.277,0.15-0.553,0.225-0.83
		c-0.006-0.004-0.012-0.009-0.018-0.013c1.282-4.761,2.487-9.594,3.608-14.502c0.2-0.875,0.397-1.752,0.592-2.631
		C861.931,748.181,862.681,744.55,863.386,740.881"/>
	<path fill="#CCCCCC" d="M733.852,249.387c-0.299,0.152-0.636,0.303-0.936,0.455l0,0l0,0
		c-40.88,20.028-86.926,30.072-132.973,30.072c-0.413,0-0.828-0.001-1.241-0.003v34.085c0.411,0.001,0.83,0.002,1.241,0.002
		c51.849,0,103.698-11.372,149.632-34.115l0,0l0,0L733.852,249.387"/>
	<path fill="#CCCCCC" d="M833.344,784.287c-51.884,21.362-110.631,35.586-171.387,41.408c2.568,22.372,3.759,44.883,3.703,67.405
		c-0.064,25.813-1.594,51.596-3.737,77.314c-0.521,6.25-1.093,12.497-1.674,18.742c-1.679,0.302-3.355,0.592-5.03,0.869
		c-0.001,0.017-0.002,0.033-0.003,0.051c38.51-6.383,78.114-19.383,120.998-38.99c0.622-1.443,1.258-2.881,1.878-4.325
		c15.917-37.065,31.13-74.539,42.777-113.197C825.759,817.336,829.996,800.903,833.344,784.287 M855.388,774.586L855.388,774.586
		c-0.034,0.122-5.235,18.952-7.525,25.23c-4.213,11.546-50.12,141.052-50.12,141.052c-0.442,0.219-0.883,0.436-1.323,0.653
		c0.001,0.001,0,0,0.001,0.001l0.002-0.001c0.442-0.218,0.878-0.433,1.321-0.652c0,0,29.587-83.466,43.436-122.359
		c3.402-9.554,5.853-16.417,6.684-18.693c1.794-4.917,5.374-17.536,6.858-22.833C855.136,775.496,855.388,774.586,855.388,774.586"
		/>
	<path fill="#826F11" d="M661.944,825.585c-10.582,1.011-21.23,1.771-31.907,2.271c0.032,0.035,0.066,0.071,0.098,0.106
		c10.66-0.497,21.257-1.254,31.822-2.266C661.952,825.659,661.948,825.622,661.944,825.585"/>
	<path fill="#A3A3A3" d="M661.957,825.696c-10.565,1.012-21.162,1.769-31.822,2.266c15.476,16.911,25.939,56.031,25.939,135.483
		c0,9.003-0.3,17.873-0.854,26.58c1.675-0.277,3.351-0.567,5.03-0.869c0.58-6.245,1.153-12.492,1.674-18.742
		c2.142-25.718,3.672-51.501,3.737-77.314C665.716,870.578,664.525,848.068,661.957,825.696"/>
	<path fill="#9F0000" d="M855.388,774.586c-0.002,0.001-0.005,0.002-0.007,0.003l0,0.001
		C855.388,774.586,855.388,774.586,855.388,774.586C855.387,774.586,855.388,774.586,855.388,774.586"/>
	<path fill="#A28B15" d="M855.38,774.589L855.38,774.589L855.38,774.589c0.007-0.003,0.007-0.003,0.007-0.003
		C855.38,774.589,855.38,774.589,855.38,774.589"/>
	<path fill="#826F11" d="M855.38,774.589c-7.179,3.373-14.547,6.568-22.026,9.646c-0.004,0.017-0.007,0.035-0.011,0.052
		c7.492-3.085,14.853-6.323,22.044-9.701C855.38,774.589,855.38,774.589,855.38,774.589"/>
	<path fill="#A3A3A3" d="M855.388,774.586L855.388,774.586L855.388,774.586c-7.191,3.378-14.552,6.617-22.044,9.701
		c-3.347,16.616-7.584,33.048-12.474,49.277c-11.647,38.658-26.86,76.131-42.777,113.197c-0.62,1.444-1.256,2.882-1.879,4.325
		c0,0,0,0,0,0l-0.003,0.006c0.292-0.134,0.589-0.276,0.882-0.411c3.109-1.426,6.225-2.865,9.369-4.36
		c3.291-1.558,6.609-3.166,9.945-4.808c0.003,0.002,0.008,0.005,0.011,0.007c0.441-0.217,0.882-0.435,1.323-0.653
		c0,0,45.908-129.505,50.12-141.052C850.153,793.538,855.354,774.708,855.388,774.586"/>
	<path fill="#A28B15" d="M599.944,383.725c-0.411,0-0.832,0.001-1.242,0.004v37.437c0.413-0.003,0.829-0.005,1.243-0.005
		c79.093,0,143.67,62.155,147.561,140.282c0,0.005,0.001,0.013,0.001,0.018c0.003,0.069,0.007,0.143,0.01,0.212
		c0,0.01,0.001,0.011,0.001,0.021c0.003,0.069,0.007,0.137,0.01,0.206c0,0.01,0.001,0.02,0.001,0.029
		c0.003,0.069,0.006,0.133,0.009,0.202c0,0.01,0.001,0.022,0.001,0.031c0.003,0.064,0.006,0.129,0.009,0.193
		c0.001,0.014,0.001,0.032,0.002,0.047c0.003,0.064,0.005,0.12,0.008,0.184c0.001,0.019,0.001,0.031,0.002,0.05
		c0.002,0.059,0.005,0.122,0.007,0.182c0.001,0.019,0.001,0.035,0.002,0.054c0.003,0.059,0.005,0.117,0.007,0.176
		c0.001,0.019,0.002,0.04,0.002,0.059c0.002,0.059,0.004,0.112,0.006,0.171c0.001,0.019,0.002,0.047,0.003,0.067
		c0.002,0.054,0.004,0.112,0.006,0.166c0.001,0.019,0.002,0.047,0.002,0.067c0.002,0.054,0.004,0.11,0.006,0.165
		c0.001,0.024,0.002,0.049,0.003,0.074c0.002,0.049,0.004,0.107,0.005,0.157c0.001,0.024,0.002,0.056,0.003,0.08
		c0.001,0.049,0.003,0.104,0.005,0.153c0.001,0.024,0.002,0.059,0.003,0.083c0.001,0.049,0.003,0.1,0.005,0.15
		c0.001,0.029,0.002,0.057,0.003,0.086c0.001,0.049,0.003,0.098,0.004,0.147c0.001,0.029,0.002,0.059,0.002,0.088
		c0.001,0.045,0.003,0.102,0.004,0.147c0.001,0.029,0.001,0.059,0.002,0.088c0.001,0.05,0.003,0.095,0.004,0.144
		c0.001,0.034,0.002,0.062,0.002,0.096c0.001,0.045,0.002,0.094,0.003,0.138c0.001,0.034,0.001,0.063,0.002,0.097
		c0.001,0.05,0.002,0.088,0.003,0.137c0.001,0.034,0.001,0.066,0.002,0.1c0.001,0.045,0.002,0.09,0.003,0.134
		c0.001,0.034,0.001,0.066,0.002,0.1c0.001,0.045,0.002,0.09,0.003,0.135c0.001,0.034,0.001,0.068,0.002,0.102
		c0.001,0.045,0.002,0.089,0.002,0.133c0.001,0.034,0.001,0.07,0.002,0.104c0.001,0.045,0.001,0.085,0.002,0.13
		c0.001,0.034,0.001,0.077,0.002,0.111c0.001,0.045,0.001,0.079,0.002,0.124c0.001,0.034,0.001,0.075,0.001,0.109
		c0.001,0.04,0.001,0.088,0.002,0.128c0.001,0.039,0.001,0.075,0.001,0.114c0.001,0.04,0.001,0.082,0.001,0.121
		c0,0.039,0.001,0.073,0.001,0.112c0,0.04,0.001,0.085,0.001,0.125c0,0.039,0.001,0.079,0.001,0.118c0,0.04,0.001,0.077,0.001,0.117
		c0,0.044,0,0.081,0.001,0.125c0,0.04,0.001,0.071,0.001,0.111c0,0.049,0,0.085,0.001,0.134c0,0.03,0,0.072,0.001,0.102
		c0,0.044,0,0.098,0,0.142c0,0.03,0,0.064,0,0.094c0,0.049,0,0.1,0,0.149c0,0.03,0,0.059,0,0.089c0,0.078,0,0.158,0,0.236l0,0l0,0
		c0,0.149,0,0.298-0.001,0.448c0,0.01,0,0.019,0,0.029c0,0.025,0,0.054,0,0.078c0,0.134-0.001,0.265-0.002,0.399
		c0,0.03-0.001,0.061-0.001,0.091c0,0.05-0.001,0.098-0.001,0.148c0,0.035-0.001,0.068-0.001,0.102c0,0.044-0.001,0.09-0.001,0.135
		c0,0.035-0.001,0.076-0.001,0.111c0,0.04-0.001,0.089-0.001,0.128c-0.001,0.04-0.001,0.075-0.001,0.115
		c0,0.04-0.001,0.082-0.001,0.121c-0.001,0.045-0.001,0.096-0.002,0.141c0,0.03-0.001,0.068-0.001,0.098
		c-0.001,0.05-0.002,0.099-0.002,0.148c0,0.03-0.001,0.059-0.001,0.089c-0.001,0.059-0.002,0.128-0.003,0.187
		c0,0.015-0.001,0.034-0.001,0.049c-0.001,0.059-0.002,0.111-0.003,0.171c0,0.02-0.001,0.048-0.001,0.068
		c-0.001,0.05-0.002,0.102-0.003,0.152c-0.001,0.03-0.001,0.057-0.002,0.087c-0.001,0.05-0.002,0.106-0.003,0.156
		c-0.001,0.025-0.001,0.056-0.002,0.081c-0.001,0.054-0.003,0.105-0.004,0.16c-0.001,0.025-0.001,0.053-0.002,0.078
		c-0.001,0.054-0.003,0.105-0.004,0.159c-0.001,0.025-0.001,0.053-0.002,0.078c-0.001,0.059-0.003,0.108-0.004,0.168
		c-0.001,0.02-0.001,0.049-0.002,0.069c-0.002,0.059-0.003,0.119-0.005,0.178c-0.001,0.02-0.001,0.038-0.002,0.058
		c-0.002,0.064-0.004,0.129-0.006,0.193c-0.001,0.015-0.001,0.027-0.001,0.042c-0.002,0.059-0.004,0.121-0.006,0.18
		c-0.001,0.02-0.001,0.038-0.002,0.058c-0.002,0.059-0.004,0.12-0.006,0.179c-0.001,0.02-0.001,0.038-0.002,0.057
		c-0.002,0.064-0.005,0.134-0.007,0.198c0,0.01-0.001,0.026-0.001,0.036c-0.002,0.064-0.005,0.136-0.007,0.2
		c0,0.01-0.001,0.027-0.001,0.037c-0.002,0.064-0.005,0.129-0.007,0.193c-0.001,0.015-0.001,0.029-0.002,0.043
		c-0.003,0.064-0.005,0.132-0.008,0.197c0,0.01-0.001,0.029-0.001,0.039c-0.003,0.064-0.005,0.133-0.008,0.197
		c0,0.01-0.001,0.029-0.002,0.039c-0.003,0.069-0.006,0.137-0.009,0.206c0,0.01-0.001,0.019-0.001,0.029
		c-0.003,0.069-0.006,0.144-0.009,0.213c0,0.005-0.001,0.017-0.001,0.022c-0.003,0.074-0.007,0.154-0.01,0.228l0,0.006
		c-0.003,0.074-0.007,0.143-0.01,0.217c0,0.005-0.001,0.015-0.001,0.02c-0.004,0.079-0.007,0.151-0.011,0.23l0,0.004
		c-0.004,0.079-0.007,0.147-0.011,0.225c0,0.005,0,0.006-0.001,0.011c-0.008,0.157-0.016,0.311-0.024,0.469v0.001
		c-4.178,77.856-68.632,139.699-147.531,139.699c-0.413,0-0.83-0.002-1.243-0.005v37.437c0.411,0.003,0.831,0.004,1.242,0.004
		c102.11,0,185.182-83.072,185.182-185.181S702.055,383.725,599.944,383.725"/>
	<path fill="#4FA7B5" d="M747.5,576.483c-0.008,0.157-0.016,0.312-0.024,0.469C747.484,576.794,747.492,576.64,747.5,576.483
		 M747.512,576.247c-0.004,0.073-0.008,0.152-0.011,0.225C747.504,576.393,747.508,576.326,747.512,576.247 M747.523,576.013
		c-0.004,0.078-0.007,0.152-0.011,0.23C747.516,576.165,747.519,576.092,747.523,576.013 M747.534,575.776
		c-0.003,0.074-0.007,0.144-0.01,0.217C747.527,575.919,747.531,575.85,747.534,575.776 M747.544,575.542
		c-0.003,0.078-0.007,0.149-0.01,0.228C747.538,575.696,747.541,575.616,747.544,575.542 M747.555,575.307
		c-0.003,0.074-0.006,0.14-0.009,0.213C747.549,575.451,747.552,575.376,747.555,575.307 M747.565,575.072
		c-0.003,0.069-0.006,0.137-0.009,0.206C747.559,575.209,747.562,575.141,747.565,575.072 M747.574,574.836
		c-0.003,0.069-0.005,0.128-0.008,0.197C747.569,574.969,747.572,574.9,747.574,574.836 M747.583,574.6
		c-0.003,0.069-0.005,0.128-0.008,0.197C747.578,574.733,747.581,574.664,747.583,574.6 M747.592,574.364
		c-0.002,0.064-0.005,0.129-0.007,0.193C747.587,574.493,747.59,574.428,747.592,574.364 M747.6,574.127
		c-0.002,0.069-0.005,0.131-0.007,0.2C747.596,574.263,747.598,574.191,747.6,574.127 M747.608,573.892
		c-0.002,0.069-0.004,0.13-0.007,0.198C747.604,574.027,747.606,573.957,747.608,573.892 M747.616,573.656
		c-0.002,0.059-0.004,0.12-0.006,0.179C747.612,573.776,747.614,573.716,747.616,573.656 M747.623,573.418
		c-0.002,0.059-0.004,0.121-0.006,0.18C747.62,573.539,747.622,573.477,747.623,573.418 M747.63,573.182
		c-0.002,0.064-0.004,0.13-0.006,0.193C747.627,573.312,747.628,573.247,747.63,573.182 M747.637,572.946
		c-0.002,0.059-0.003,0.119-0.005,0.178C747.634,573.065,747.635,573.006,747.637,572.946 M747.643,572.71
		c-0.001,0.059-0.003,0.109-0.004,0.168C747.64,572.818,747.642,572.769,747.643,572.71 M747.649,572.473
		c-0.001,0.054-0.003,0.105-0.004,0.159C747.646,572.578,747.647,572.527,747.649,572.473 M747.654,572.235
		c-0.001,0.054-0.003,0.106-0.004,0.16C747.652,572.341,747.653,572.29,747.654,572.235 M747.659,571.999
		c-0.001,0.054-0.002,0.101-0.003,0.156C747.657,572.105,747.658,572.049,747.659,571.999 M747.664,571.761
		c-0.001,0.049-0.002,0.102-0.003,0.152C747.662,571.863,747.663,571.81,747.664,571.761 M747.668,571.522
		c-0.001,0.059-0.002,0.112-0.003,0.171C747.666,571.634,747.667,571.582,747.668,571.522 M747.672,571.286
		c-0.001,0.064-0.002,0.123-0.003,0.187C747.67,571.414,747.671,571.345,747.672,571.286 M747.676,571.049
		c-0.001,0.049-0.002,0.099-0.002,0.148C747.674,571.148,747.675,571.099,747.676,571.049 M747.679,570.811
		c-0.001,0.049-0.001,0.091-0.002,0.141C747.678,570.907,747.678,570.856,747.679,570.811 M747.682,570.575
		c0,0.04-0.001,0.075-0.001,0.115C747.681,570.65,747.681,570.615,747.682,570.575 M747.684,570.335c0,0.04-0.001,0.071-0.001,0.111
		C747.683,570.411,747.684,570.37,747.684,570.335 M747.686,570.098c0,0.035-0.001,0.068-0.001,0.102
		C747.686,570.166,747.686,570.133,747.686,570.098 M747.688,569.86c0,0.03-0.001,0.061-0.001,0.091
		C747.688,569.921,747.688,569.889,747.688,569.86 M747.69,569.382c0,0.025,0,0.054,0,0.078
		C747.69,569.436,747.69,569.407,747.69,569.382 M747.691,568.906c0,0.149,0,0.299-0.001,0.448
		C747.691,569.204,747.691,569.055,747.691,568.906L747.691,568.906 M747.691,568.581c0,0.029,0,0.059,0,0.089
		C747.691,568.64,747.691,568.611,747.691,568.581 M747.69,568.338c0,0.034,0,0.06,0,0.094
		C747.69,568.402,747.69,568.368,747.69,568.338 M747.689,568.094c0,0.034,0,0.068,0.001,0.102
		C747.689,568.166,747.689,568.124,747.689,568.094 M747.687,567.849c0,0.034,0.001,0.077,0.001,0.111
		C747.688,567.92,747.688,567.889,747.687,567.849 M747.685,567.607c0,0.039,0.001,0.078,0.001,0.117
		C747.686,567.684,747.686,567.647,747.685,567.607 M747.683,567.365c0,0.039,0.001,0.086,0.001,0.125
		C747.684,567.449,747.684,567.404,747.683,567.365 M747.68,567.131c0.001,0.039,0.001,0.082,0.001,0.121
		C747.681,567.213,747.681,567.171,747.68,567.131 M747.677,566.89c0.001,0.044,0.001,0.084,0.002,0.128
		C747.679,566.978,747.678,566.929,747.677,566.89 M747.674,566.657c0.001,0.044,0.001,0.08,0.002,0.124
		C747.675,566.737,747.675,566.702,747.674,566.657 M747.67,566.416c0.001,0.044,0.001,0.086,0.002,0.13
		C747.672,566.501,747.671,566.461,747.67,566.416 M747.666,566.179c0.001,0.049,0.001,0.085,0.002,0.133
		C747.668,566.267,747.667,566.223,747.666,566.179 M747.662,565.942c0.001,0.044,0.002,0.091,0.003,0.135
		C747.664,566.032,747.663,565.986,747.662,565.942 M747.657,565.707c0.001,0.044,0.002,0.091,0.003,0.134
		C747.659,565.797,747.658,565.752,747.657,565.707 M747.652,565.469c0.001,0.044,0.002,0.094,0.003,0.137
		C747.654,565.557,747.653,565.519,747.652,565.469 M747.646,565.234c0.001,0.044,0.002,0.095,0.003,0.138
		C747.648,565.328,747.647,565.279,747.646,565.234 M747.64,564.994c0.001,0.048,0.003,0.096,0.004,0.144
		C747.643,565.089,747.642,565.044,747.64,564.994 M747.634,564.759c0.001,0.048,0.003,0.098,0.004,0.147
		C747.637,564.861,747.635,564.804,747.634,564.759 M747.627,564.524c0.001,0.049,0.003,0.099,0.004,0.147
		C747.63,564.622,747.629,564.573,747.627,564.524 M747.62,564.288c0.002,0.053,0.003,0.097,0.005,0.15
		C747.623,564.388,747.622,564.337,747.62,564.288 M747.613,564.051c0.002,0.053,0.003,0.1,0.005,0.153
		C747.616,564.155,747.614,564.101,747.613,564.051 M747.605,563.815c0.002,0.053,0.003,0.103,0.005,0.157
		C747.608,563.922,747.607,563.864,747.605,563.815 M747.597,563.576c0.002,0.058,0.004,0.107,0.006,0.165
		C747.601,563.687,747.599,563.63,747.597,563.576 M747.588,563.343c0.002,0.058,0.004,0.108,0.006,0.166
		C747.592,563.455,747.59,563.397,747.588,563.343 M747.579,563.105c0.002,0.058,0.004,0.113,0.006,0.171
		C747.583,563.217,747.582,563.164,747.579,563.105 M747.57,562.87c0.002,0.058,0.005,0.118,0.007,0.176
		C747.575,562.987,747.572,562.929,747.57,562.87 M747.56,562.634c0.002,0.058,0.005,0.124,0.007,0.182
		C747.565,562.757,747.563,562.694,747.56,562.634 M747.55,562.401c0.003,0.063,0.005,0.121,0.008,0.184
		C747.555,562.521,747.553,562.465,747.55,562.401 M747.54,562.161c0.003,0.063,0.006,0.13,0.009,0.193
		C747.545,562.29,747.543,562.225,747.54,562.161 M747.529,561.928c0.003,0.068,0.006,0.134,0.009,0.202
		C747.535,562.061,747.532,561.997,747.529,561.928 M747.518,561.693c0.003,0.068,0.007,0.138,0.01,0.206
		C747.525,561.83,747.521,561.761,747.518,561.693 M747.507,561.46c0.004,0.072,0.007,0.14,0.01,0.212
		C747.514,561.603,747.51,561.529,747.507,561.46 M599.945,421.16c-0.413,0-0.83,0.002-1.243,0.005v56.202
		c4.273,6.18,6.775,13.677,6.775,21.758c0,8.082-2.503,15.578-6.775,21.758v195.762c0.413,0.003,0.829,0.005,1.243,0.005
		c78.898,0,143.353-61.843,147.531-139.699c-4.163,77.568-68.164,139.225-146.666,139.678c10.463-8.633,19.521-19.42,27.832-29.563
		c8.873-10.83,17.501-21.729,25.18-33.457c7.945-12.135,15.035-24.862,20.815-38.172c11.044-25.43,17.497-53.781,12.794-81.475
		c-2.173-12.799-6.763-24.982-13.306-36.177c-6.009-10.283-13.12-19.933-20.608-29.18c-8.097-9.997-16.76-19.567-26.021-28.5
		c-7.055-6.805-14.53-13.368-22.71-18.823c76.868,2.479,138.911,63.637,142.721,140.16
		C743.615,483.315,679.038,421.16,599.945,421.16"/>
	<path fill="#826F11" d="M747.476,576.952L747.476,576.952L747.476,576.952 M747.5,576.472l-0.001,0.011
		C747.5,576.478,747.5,576.477,747.5,576.472 M747.512,576.243l0,0.004L747.512,576.243 M747.524,575.993
		c0,0.005-0.001,0.015-0.001,0.02C747.523,576.008,747.524,575.998,747.524,575.993 M747.534,575.77l0,0.006L747.534,575.77
		 M747.546,575.52c-0.001,0.01-0.001,0.012-0.001,0.022C747.545,575.537,747.545,575.525,747.546,575.52 M747.556,575.278
		c0,0.01-0.001,0.019-0.001,0.029C747.555,575.297,747.556,575.288,747.556,575.278 M747.566,575.033
		c-0.001,0.015-0.001,0.024-0.002,0.039C747.565,575.062,747.566,575.043,747.566,575.033 M747.576,574.797
		c-0.001,0.015-0.001,0.025-0.001,0.039C747.575,574.826,747.575,574.807,747.576,574.797 M747.585,574.557
		c-0.001,0.015-0.001,0.029-0.002,0.043C747.584,574.586,747.584,574.572,747.585,574.557 M747.593,574.327
		c-0.001,0.015-0.001,0.022-0.001,0.037C747.592,574.354,747.593,574.337,747.593,574.327 M747.602,574.091
		c-0.001,0.015-0.001,0.021-0.001,0.036C747.601,574.117,747.601,574.101,747.602,574.091 M747.61,573.835
		c-0.001,0.02-0.001,0.038-0.002,0.057C747.609,573.873,747.61,573.855,747.61,573.835 M747.618,573.598
		c-0.001,0.02-0.001,0.038-0.002,0.058C747.617,573.636,747.617,573.618,747.618,573.598 M747.625,573.376
		c-0.001,0.015-0.001,0.027-0.001,0.042C747.624,573.403,747.624,573.391,747.625,573.376 M747.632,573.124
		c-0.001,0.02-0.001,0.038-0.002,0.058C747.631,573.163,747.631,573.144,747.632,573.124 M747.639,572.877
		c-0.001,0.02-0.001,0.049-0.002,0.069C747.637,572.927,747.638,572.897,747.639,572.877 M747.645,572.632
		c-0.001,0.025-0.001,0.053-0.002,0.078C747.643,572.685,747.644,572.657,747.645,572.632 M747.651,572.395
		c-0.001,0.025-0.001,0.053-0.002,0.078C747.649,572.448,747.65,572.42,747.651,572.395 M747.656,572.155
		c-0.001,0.025-0.001,0.056-0.002,0.081C747.655,572.211,747.655,572.179,747.656,572.155 M747.661,571.912
		c-0.001,0.03-0.001,0.057-0.002,0.087C747.66,571.969,747.66,571.942,747.661,571.912 M747.665,571.693
		c-0.001,0.025-0.001,0.043-0.001,0.068C747.664,571.741,747.665,571.713,747.665,571.693 M747.669,571.473
		c0,0.015-0.001,0.034-0.001,0.049C747.668,571.507,747.669,571.488,747.669,571.473 M747.674,571.197
		c0,0.03-0.001,0.059-0.001,0.089C747.673,571.256,747.673,571.227,747.674,571.197 M747.677,570.951
		c0,0.035-0.001,0.063-0.001,0.098C747.676,571.02,747.677,570.981,747.677,570.951 M747.68,570.689c0,0.04-0.001,0.082-0.001,0.121
		C747.679,570.771,747.68,570.729,747.68,570.689 M747.683,570.446c0,0.045-0.001,0.084-0.001,0.128
		C747.682,570.535,747.683,570.486,747.683,570.446 M747.685,570.201c0,0.045-0.001,0.09-0.001,0.135
		C747.685,570.291,747.685,570.245,747.685,570.201 M747.687,569.951c0,0.05-0.001,0.098-0.001,0.148
		C747.687,570.049,747.687,570,747.687,569.951 M747.69,569.46c0,0.134-0.001,0.265-0.002,0.399
		C747.689,569.726,747.69,569.594,747.69,569.46 M747.69,569.353c0,0.01,0,0.019,0,0.029
		C747.69,569.372,747.69,569.363,747.69,569.353 M747.691,568.67c0,0.08,0,0.156,0,0.236l0,0
		C747.691,568.828,747.691,568.748,747.691,568.67 M747.69,568.432c0,0.05,0,0.099,0,0.149
		C747.691,568.532,747.69,568.481,747.69,568.432 M747.689,568.196c0,0.05,0,0.092,0,0.142
		C747.69,568.294,747.69,568.24,747.689,568.196 M747.688,567.96c0,0.045,0.001,0.089,0.001,0.134
		C747.688,568.045,747.688,568.009,747.688,567.96 M747.686,567.724c0,0.04,0,0.085,0.001,0.125
		C747.687,567.805,747.687,567.768,747.686,567.724 M747.684,567.489c0,0.04,0.001,0.078,0.001,0.118
		C747.685,567.568,747.685,567.528,747.684,567.489 M747.682,567.253c0,0.04,0.001,0.072,0.001,0.112
		C747.683,567.326,747.682,567.291,747.682,567.253 M747.679,567.018c0.001,0.04,0.001,0.074,0.001,0.114
		C747.68,567.092,747.68,567.056,747.679,567.018 M747.676,566.781c0.001,0.035,0.001,0.074,0.001,0.109
		C747.677,566.856,747.677,566.815,747.676,566.781 M747.672,566.546c0.001,0.035,0.001,0.077,0.002,0.111
		C747.674,566.623,747.673,566.58,747.672,566.546 M747.669,566.312c0.001,0.035,0.001,0.07,0.002,0.104
		C747.67,566.382,747.669,566.346,747.669,566.312 M747.664,566.077c0.001,0.035,0.001,0.067,0.002,0.102
		C747.666,566.145,747.665,566.111,747.664,566.077 M747.66,565.841c0.001,0.035,0.001,0.066,0.002,0.1
		C747.661,565.908,747.661,565.875,747.66,565.841 M747.655,565.607c0.001,0.03,0.002,0.071,0.002,0.1
		C747.656,565.673,747.656,565.641,747.655,565.607 M747.65,565.372c0.001,0.03,0.001,0.067,0.002,0.097
		C747.651,565.436,747.65,565.406,747.65,565.372 M747.644,565.138c0.001,0.035,0.001,0.061,0.002,0.096
		C747.645,565.2,747.645,565.172,747.644,565.138 M747.638,564.906c0.001,0.03,0.001,0.058,0.002,0.088
		C747.639,564.965,747.639,564.935,747.638,564.906 M747.631,564.671c0.001,0.03,0.002,0.059,0.002,0.088
		C747.633,564.73,747.632,564.7,747.631,564.671 M747.625,564.438c0.001,0.03,0.002,0.056,0.003,0.086
		C747.626,564.495,747.626,564.467,747.625,564.438 M747.618,564.204c0.001,0.03,0.002,0.054,0.003,0.083
		C747.619,564.264,747.618,564.229,747.618,564.204 M747.61,563.971c0.001,0.03,0.002,0.05,0.003,0.08
		C747.612,564.027,747.611,563.996,747.61,563.971 M747.602,563.741c0.001,0.025,0.002,0.049,0.003,0.074
		C747.604,563.79,747.603,563.765,747.602,563.741 M747.594,563.509c0.001,0.025,0.001,0.042,0.002,0.067
		C747.596,563.557,747.595,563.529,747.594,563.509 M747.586,563.276c0.001,0.02,0.002,0.047,0.003,0.067
		C747.587,563.324,747.586,563.296,747.586,563.276 M747.577,563.046c0.001,0.02,0.002,0.039,0.002,0.059
		C747.578,563.086,747.578,563.065,747.577,563.046 M747.568,562.816c0.001,0.02,0.001,0.034,0.002,0.054
		C747.569,562.851,747.569,562.835,747.568,562.816 M747.558,562.584c0.001,0.015,0.001,0.035,0.002,0.05
		C747.559,562.615,747.559,562.604,747.558,562.584 M747.548,562.354c0.001,0.015,0.001,0.032,0.002,0.047
		C747.55,562.386,747.549,562.369,747.548,562.354 M747.538,562.13c0,0.01,0.001,0.021,0.001,0.031
		C747.539,562.152,747.539,562.14,747.538,562.13 M747.528,561.899c0,0.01,0.001,0.019,0.001,0.029
		C747.529,561.918,747.528,561.908,747.528,561.899 M747.517,561.672c0,0.005,0.001,0.016,0.001,0.021
		C747.518,561.683,747.517,561.681,747.517,561.672 M747.506,561.442c0,0.01,0,0.008,0.001,0.018
		C747.506,561.455,747.506,561.447,747.506,561.442"/>
	<path fill="#3F8691" d="M604.785,421.282c8.18,5.456,15.655,12.019,22.71,18.823c9.261,8.933,17.924,18.503,26.021,28.5
		c7.488,9.246,14.599,18.896,20.608,29.18c6.543,11.195,11.133,23.378,13.306,36.177c4.703,27.694-1.75,56.045-12.794,81.475
		c-5.78,13.31-12.87,26.036-20.815,38.172c-7.679,11.728-16.307,22.628-25.18,33.457c-8.311,10.143-17.368,20.929-27.832,29.563
		c78.502-0.453,142.503-62.109,146.666-139.678v-0.001c0.008-0.157,0.017-0.312,0.024-0.469l0.001-0.011
		c0.004-0.073,0.008-0.152,0.011-0.225l0-0.004c0.004-0.078,0.007-0.151,0.011-0.23c0-0.005,0.001-0.015,0.001-0.02
		c0.003-0.073,0.007-0.143,0.01-0.217l0-0.006c0.004-0.078,0.007-0.149,0.01-0.228c0.001-0.01,0.001-0.012,0.001-0.022
		c0.003-0.074,0.006-0.14,0.009-0.213c0.001-0.01,0.001-0.019,0.001-0.029c0.003-0.069,0.006-0.137,0.009-0.206
		c0.001-0.015,0.001-0.024,0.002-0.039c0.003-0.069,0.005-0.128,0.008-0.197c0.001-0.015,0.001-0.025,0.001-0.039
		c0.003-0.069,0.005-0.128,0.008-0.197c0.001-0.015,0.001-0.028,0.002-0.043c0.002-0.064,0.005-0.129,0.007-0.193
		c0.001-0.015,0.001-0.022,0.001-0.037c0.003-0.069,0.005-0.131,0.007-0.2c0.001-0.015,0.001-0.021,0.001-0.036
		c0.002-0.069,0.005-0.13,0.007-0.198c0.001-0.02,0.001-0.038,0.002-0.057c0.002-0.059,0.004-0.12,0.006-0.179
		c0.001-0.02,0.001-0.038,0.002-0.058c0.002-0.059,0.004-0.121,0.006-0.18c0.001-0.015,0.001-0.027,0.001-0.042
		c0.002-0.064,0.004-0.129,0.006-0.193c0.001-0.02,0.001-0.038,0.002-0.058c0.002-0.059,0.003-0.119,0.005-0.178
		c0.001-0.02,0.001-0.049,0.002-0.069c0.001-0.059,0.003-0.108,0.004-0.168c0.001-0.025,0.001-0.053,0.002-0.078
		c0.001-0.054,0.003-0.105,0.004-0.159c0.001-0.025,0.001-0.053,0.002-0.078c0.001-0.054,0.003-0.106,0.004-0.16
		c0-0.025,0.001-0.056,0.002-0.081c0.001-0.054,0.002-0.101,0.003-0.156c0.001-0.03,0.001-0.057,0.002-0.087
		c0.001-0.049,0.002-0.102,0.003-0.152c0-0.025,0.001-0.043,0.001-0.068c0.001-0.059,0.002-0.112,0.003-0.171
		c0-0.015,0.001-0.034,0.001-0.049c0.001-0.064,0.002-0.123,0.003-0.187c0-0.03,0.001-0.059,0.001-0.089
		c0.001-0.049,0.002-0.099,0.002-0.148c0-0.035,0.001-0.063,0.001-0.098c0.001-0.049,0.001-0.091,0.002-0.141
		c0.001-0.04,0.001-0.082,0.001-0.121c0.001-0.039,0.001-0.075,0.001-0.115c0.001-0.044,0.001-0.084,0.001-0.128
		c0-0.04,0.001-0.071,0.001-0.111c0-0.045,0.001-0.09,0.001-0.135c0-0.035,0.001-0.068,0.001-0.102c0-0.05,0.001-0.098,0.001-0.148
		c0-0.03,0.001-0.061,0.001-0.091c0.001-0.134,0.001-0.265,0.002-0.399c0-0.025,0-0.054,0-0.078c0-0.01,0-0.019,0-0.029
		c0-0.149,0.001-0.299,0.001-0.448c0-0.08,0-0.156,0-0.236c0-0.029,0-0.059,0-0.089c0-0.05,0-0.099,0-0.149c0-0.034,0-0.06,0-0.094
		c0-0.05,0-0.092,0-0.142c0-0.034,0-0.068-0.001-0.102c0-0.045-0.001-0.089-0.001-0.134c0-0.034-0.001-0.077-0.001-0.111
		c0-0.04-0.001-0.086-0.001-0.125c0-0.039-0.001-0.078-0.001-0.117c0-0.04-0.001-0.078-0.001-0.118c0-0.039-0.001-0.086-0.001-0.125
		c0-0.04-0.001-0.072-0.001-0.112c-0.001-0.039-0.001-0.082-0.001-0.121c0-0.04-0.001-0.074-0.001-0.114
		c-0.001-0.044-0.001-0.084-0.002-0.128c0-0.035-0.001-0.074-0.001-0.109c-0.001-0.044-0.001-0.08-0.002-0.124
		c0-0.035-0.001-0.077-0.002-0.111c-0.001-0.044-0.001-0.086-0.002-0.13c-0.001-0.035-0.001-0.07-0.002-0.104
		c-0.001-0.049-0.001-0.085-0.002-0.133c-0.001-0.035-0.001-0.067-0.002-0.102c-0.001-0.044-0.002-0.091-0.003-0.135
		c-0.001-0.035-0.001-0.066-0.002-0.1c-0.001-0.044-0.002-0.09-0.003-0.134c-0.001-0.03-0.001-0.071-0.002-0.1
		c-0.001-0.044-0.002-0.094-0.003-0.137c-0.001-0.03-0.001-0.067-0.002-0.097c-0.001-0.044-0.002-0.094-0.003-0.138
		c-0.001-0.034-0.001-0.061-0.002-0.096c-0.001-0.049-0.003-0.096-0.004-0.144c-0.001-0.03-0.001-0.058-0.002-0.088
		c-0.001-0.048-0.003-0.098-0.004-0.147c-0.001-0.03-0.002-0.059-0.002-0.088c-0.001-0.049-0.003-0.099-0.004-0.147
		c-0.001-0.03-0.002-0.056-0.003-0.086c-0.002-0.053-0.003-0.096-0.005-0.15c-0.001-0.03-0.002-0.054-0.003-0.083
		c-0.002-0.053-0.003-0.1-0.005-0.153c-0.001-0.03-0.002-0.05-0.003-0.08c-0.002-0.053-0.003-0.104-0.005-0.157
		c-0.001-0.025-0.002-0.049-0.003-0.074c-0.002-0.058-0.004-0.107-0.006-0.165c-0.001-0.025-0.001-0.042-0.002-0.067
		c-0.002-0.058-0.004-0.108-0.006-0.166c-0.001-0.02-0.002-0.047-0.003-0.067c-0.002-0.058-0.004-0.113-0.006-0.171
		c-0.001-0.02-0.002-0.039-0.002-0.059c-0.002-0.058-0.005-0.118-0.007-0.176c-0.001-0.02-0.001-0.034-0.002-0.054
		c-0.002-0.058-0.005-0.124-0.007-0.182c-0.001-0.015-0.002-0.035-0.002-0.05c-0.003-0.063-0.005-0.121-0.008-0.184
		c-0.001-0.015-0.001-0.032-0.002-0.047c-0.003-0.063-0.006-0.13-0.009-0.193c0-0.01-0.001-0.021-0.001-0.031
		c-0.003-0.068-0.006-0.134-0.009-0.202c0-0.01-0.001-0.019-0.001-0.029c-0.003-0.068-0.006-0.138-0.01-0.206
		c0-0.005-0.001-0.016-0.001-0.021c-0.004-0.072-0.007-0.139-0.01-0.212c-0.001-0.01,0-0.008-0.001-0.018
		C743.696,484.919,681.652,423.761,604.785,421.282"/>
	<path fill="#B3C5C7" d="M598.702,477.368v43.516c4.273-6.18,6.775-13.676,6.775-21.758
		C605.478,491.044,602.975,483.548,598.702,477.368"/>
	<path fill="#CCCCCC" d="M621.265,1139.527c-0.003,0.008-0.006,0.016-0.01,0.023
		C621.258,1139.543,621.262,1139.534,621.265,1139.527"/>
	<path fill="#C70000" d="M605.478,816.953c-2.297,0-4.559,0.2-6.775,0.632v65.297c2.164-1.113,4.435-1.596,6.775-1.596
		c14.849,0,26.886,19.427,26.886,96.19c0,48.044-10.532,90.394-18.412,115.359c-1.502,4.759-4.988,7.138-8.474,7.138
		c-2.503,0-5.007-1.227-6.775-3.681v52.329c2.157,0.906,4.481,1.359,6.802,1.359c6.424,0,12.841-3.469,15.751-10.429
		c0.003-0.008,0.006-0.016,0.01-0.023c0.055-0.131,0.108-0.263,0.16-0.397c13.001-33.332,29.832-87.018,33.786-149.053
		c0.002,0,0.004-0.001,0.006-0.001c0.001-0.017,0.002-0.033,0.003-0.051c0.554-8.707,0.854-17.577,0.854-26.58
		c0-79.452-10.463-118.572-25.939-135.483c-0.032-0.035-0.066-0.071-0.098-0.106C622.764,819.962,614.391,816.953,605.478,816.953"
		/>
	<path fill="#C82929" d="M605.478,881.286c-2.34,0-4.611,0.483-6.775,1.596v213.409c1.769,2.454,4.272,3.681,6.775,3.681
		c3.486,0,6.972-2.379,8.474-7.138c7.88-24.964,18.412-67.315,18.412-115.359C632.363,900.712,620.326,881.286,605.478,881.286"/>
	<path fill="#C82929" d="M600.058,50.042c-0.452,0-0.903,0.01-1.356,0.027v37.364c6.103-10.685,12.33-21.301,18.782-31.775
		c-0.486-0.376-0.988-0.733-1.503-1.071c-0.278-0.181-0.559-0.357-0.844-0.528l-0.047-0.028c-4.003-2.388-8.714-3.703-13.529-3.943
		l-0.592-0.032C600.665,50.047,600.361,50.042,600.058,50.042"/>
</g>
</svg>
