<?xml version="1.0" encoding="utf-8"?>
<!--Designed by Vexels.com - 2018 All Rights Reserved - https://vexels.com/terms-and-conditions/-->
<svg version="1.1" id="Layer_1" xmlns="http://www.w3.org/2000/svg" xmlns:xlink="http://www.w3.org/1999/xlink" x="0px" y="0px"
	 viewBox="0 0 1200 1200" enable-background="new 0 0 1200 1200" xml:space="preserve">
<g>
	<path fill="#FFFFFF" d="M712.534,653.307c0,276.181-50.675,443.489-113.187,443.489c-62.512,0-113.187-167.308-113.187-443.489
		c0-218.339,70.741-489.591,100.372-593.632c3.674-12.901,21.954-12.901,25.629,0C641.792,163.716,712.534,434.968,712.534,653.307"
		/>
	<path fill="#F90000" d="M531.366,967.259c26.224,5.697,53.305,7.162,80.067,5.887c24.282-1.158,48.471-4.61,72.152-10.133
		c10.105-42.075,18.01-93.359,23.03-152.826c-3.999,1.331-8.014,2.619-12.047,3.847c-26.148,7.959-53.107,13.632-80.434,15.242
		c-26.282,1.548-52.776-0.805-78.188-7.805c-15.217-4.191-29.871-10.026-43.867-17.179c4.999,62.104,13.115,115.464,23.584,158.971
		C520.858,964.785,526.103,966.116,531.366,967.259"/>
	<path fill="#F90000" d="M601.715,317.924c36.802,0,67.909-23.342,67.909-23.342c-20.489-100.026-43.523-185.967-57.462-234.906
		c-3.674-12.901-21.954-12.901-25.629,0c-13.938,48.94-36.973,134.881-57.463,234.908
		C528.623,296.779,567.713,317.924,601.715,317.924"/>
	<path fill="#F90000" d="M599.346,473.104c-25.872,0-46.921-21.048-46.921-46.921c0-25.873,21.049-46.921,46.921-46.921
		c25.873,0,46.922,21.048,46.922,46.921C646.269,452.056,625.219,473.104,599.346,473.104"/>
	<path fill="#63D1E2" d="M636.783,426.183c0,20.676-16.761,37.436-37.436,37.436c-20.676,0-37.437-16.76-37.437-37.436
		s16.761-37.436,37.437-37.436C620.022,388.747,636.783,405.508,636.783,426.183"/>
	<path fill="#4FA7B5" d="M599.64,463.552c-0.025,0.021-0.05,0.041-0.075,0.062c0.025,0,0.05,0,0.075-0.001V463.552"/>
	<path fill="#E0F6F9" d="M576.09,420.724c-2.184,0-3.955,1.77-3.955,3.954c0,2.184,1.771,3.954,3.955,3.954s3.954-1.771,3.954-3.954
		C580.044,422.494,578.274,420.724,576.09,420.724"/>
	<path fill="#E0F6F9" d="M591.043,398.796c-5.36,0-9.705,4.345-9.705,9.706c0,5.36,4.345,9.706,9.705,9.706
		c3.733,0,6.974-2.108,8.597-5.198v-9.015C598.017,400.904,594.776,398.796,591.043,398.796"/>
	<path fill="#F90000" d="M599.346,711.918c-34.98,0-63.439-28.459-63.439-63.439c0-34.981,28.459-63.439,63.439-63.439
		c34.982,0,63.44,28.458,63.44,63.439C662.786,683.459,634.328,711.918,599.346,711.918"/>
	<path fill="#63D1E2" d="M649.962,648.479c0,27.954-22.662,50.615-50.615,50.615c-27.954,0-50.615-22.661-50.615-50.615
		c0-27.954,22.661-50.615,50.615-50.615C627.3,597.864,649.962,620.525,649.962,648.479"/>
	<path fill="#E0F6F9" d="M567.903,641.098c-2.953,0-5.346,2.394-5.346,5.346c0,2.952,2.394,5.346,5.346,5.346
		c2.953,0,5.346-2.394,5.346-5.346C573.249,643.492,570.856,641.098,567.903,641.098"/>
	<path fill="#E0F6F9" d="M588.12,611.451c-7.247,0-13.122,5.876-13.122,13.123c0,7.247,5.875,13.123,13.122,13.123
		c4.969,0,9.293-2.762,11.521-6.835v-12.576C597.413,614.213,593.089,611.451,588.12,611.451"/>
	<path fill="#00597B" d="M492.079,804.292L353.553,928.623c-4.12,3.697-5.772,9.419-4.258,14.744l55.745,196.103
		c4.311,15.166,26.318,13.507,28.309-2.133l21-165.049c0.385-3.028,1.717-5.858,3.806-8.084l47.366-50.49L492.079,804.292"/>
	<path fill="#004762" d="M498.851,859.423l2.334,19.003c-7.029,4.579-13.957,9.321-20.731,14.267
		c2.265,10.004,4.68,19.975,7.132,29.927c0.663,2.693,1.332,5.386,2.001,8.078l15.934-16.984L498.851,859.423 M492.079,804.292
		L492.079,804.292l-23.266,20.882c0.363,3.602,0.755,7.202,1.217,10.793c0.471,3.667,0.99,7.328,1.55,10.98
		c7.15-7.219,13.948-14.784,21.054-22.045c0.582-0.594,1.172-1.183,1.758-1.774L492.079,804.292"/>
	<polyline fill="#FA3333" points="494.393,823.128 494.392,823.128 498.851,859.423 494.393,823.128 	"/>
	<path fill="#337A95" d="M471.58,846.947c-0.65,0.656-1.302,1.309-1.958,1.958c-6.646,6.583-13.77,12.674-20.865,18.763
		c-15.869,13.617-32.337,27.07-45.651,43.302c-5.522,6.733-10.66,14.144-13.494,22.448c-2.963,8.68-4.131,17.903-4.456,27.037
		c-0.742,20.876,2.654,41.816,6.771,62.212c3.959,19.611,9.036,38.963,13.385,58.486c0.44,1.976,0.87,3.955,1.283,5.937
		c0.217,1.038,0.429,2.077,0.634,3.118l0.08,0.319l0.032-0.617c0.024-7.06,0.163-14.118,0.425-21.173
		c0.514-13.858,1.505-27.696,2.934-41.49c0.733-7.074,1.863-14.125,2.508-21.203c0.542-5.951,0.768-11.935,1.247-17.892
		c0.837-10.423,2.089-20.948,5.588-30.858c1.705-4.828,3.945-9.463,6.718-13.77c2.798-4.345,6.167-8.29,9.613-12.13
		c7.245-8.073,15.18-15.513,23.454-22.519c6.671-5.648,13.564-11.025,20.626-16.181C477.022,877.536,473.934,862.304,471.58,846.947
		"/>
	<path fill="#336C81" d="M494.392,823.128c-0.587,0.591-1.177,1.18-1.758,1.774c-7.106,7.261-13.904,14.826-21.054,22.045
		c2.354,15.357,5.442,30.589,8.874,45.746c6.774-4.946,13.702-9.688,20.731-14.267l-2.334-19.003L494.392,823.128"/>
	<path fill="#00597B" d="M707.921,804.292l138.527,124.331c4.12,3.697,5.772,9.419,4.258,14.744l-55.745,196.103
		c-4.31,15.166-26.319,13.507-28.308-2.133l-21-165.049c-0.385-3.028-1.718-5.858-3.806-8.084l-47.365-50.49L707.921,804.292"/>
	<path fill="#CCCCCC" d="M695.614,902.045l-0.001,0.006l-1.433,11.664l15.934,16.984c0.021-0.084,0.042-0.168,0.063-0.253h0
		l-0.062,0.253l-15.933-16.984L695.614,902.045"/>
	<polyline fill="#C70000" points="695.623,901.968 695.622,901.975 695.613,902.051 695.614,902.045 695.623,901.968 	"/>
	<polyline fill="#004762" points="710.177,930.446 710.177,930.446 710.177,930.446 710.177,930.446 710.177,930.446 	"/>
	<path fill="#FFFFFF" d="M530.837,296.336c-6.447,32.964-11.687,66.164-15.779,99.501c-7.929,64.595-11.569,129.646-11.106,194.715
		c0.441,62.125,2.747,124.468,12.384,185.931c2.172,13.849,4.721,27.643,7.713,41.342c3.925,1.325,7.892,2.542,11.897,3.645
		c6.302,1.736,12.672,3.187,19.087,4.362c-0.786-20.004-2.718-39.967-3.05-59.992c-0.421-25.403-0.868-50.768-0.835-76.159
		c-9.497-11.093-15.239-25.49-15.239-41.203c0-16.6,6.407-31.73,16.88-43.048c1.488-47.008,3.646-93.996,5.34-140.996
		c0.179-4.958,0.361-9.913,0.551-14.868c-3.976-6.888-6.253-14.876-6.253-23.384c0-10.002,3.147-19.285,8.501-26.908
		c1.542-29.034,3.602-58.012,6.68-86.934C550.267,307.18,535.735,299.801,530.837,296.336"/>
	<path fill="#FA3333" d="M524.049,817.826c3.66,16.759,7.982,33.373,13.082,49.754c2.313,7.428,4.784,14.806,7.425,22.124
		c0.38,1.055,1.196,5.009,2.309,5.29c0.045,0.011,0.089,0.017,0.132,0.017c0.815,0,1.185-1.994,1.508-2.896
		c1.152-3.207,2.107-6.485,2.899-9.798c3.053-12.766,3.883-25.993,3.955-39.082c0.032-5.807-0.099-11.605-0.327-17.402
		c-6.415-1.176-12.785-2.626-19.087-4.362C531.94,820.368,527.974,819.15,524.049,817.826"/>
	<path fill="#FA3333" d="M599.373,50.022c-1.914,0-3.828,0.392-5.589,1.174c-7.651,22.482-13.498,45.57-19.212,68.601
		c-2.717,10.949-5.549,21.854-8.422,32.745c-0.22,0.864-0.43,1.73-0.651,2.594c-2.867,11.177-5.931,22.297-9.009,33.412
		c-1.183,4.348-2.364,8.696-3.55,13.047c-8.528,31.297-15.879,62.91-22.105,94.743c4.898,3.465,19.43,10.844,36.77,16.005
		c1.445-13.582,3.115-27.152,5.062-40.706c6.288-43.791,15.13-87.261,26.972-129.897V50.021
		C599.551,50.022,599.462,50.022,599.373,50.022"/>
	<path fill="#FA3333" d="M560.927,399.275c-5.354,7.623-8.501,16.906-8.501,26.908c0,8.508,2.277,16.496,6.253,23.384
		C559.319,432.789,560.037,416.022,560.927,399.275"/>
	<path fill="#FA3333" d="M552.787,605.431c-10.473,11.318-16.88,26.448-16.88,43.048c0,15.714,5.742,30.11,15.239,41.203
		c0.01-7.86,0.066-15.726,0.184-23.592c0.007-0.497,0.015-0.997,0.023-1.494c-1.7-5.063-2.62-10.483-2.62-16.118
		c0-6.381,1.18-12.484,3.335-18.107C552.282,622.058,552.524,613.744,552.787,605.431"/>
	<path fill="#82DAE8" d="M552.067,630.372c-2.155,5.623-3.335,11.726-3.335,18.107c0,5.635,0.921,11.055,2.62,16.118
		C551.529,653.186,551.772,641.78,552.067,630.372"/>
	<path fill="#FA3333" d="M609.658,54.79c0.001,0.001,0.001,0.001,0.002,0.002C609.66,54.791,609.659,54.79,609.658,54.79
		 M609.592,54.709c0.01,0.013,0.021,0.025,0.031,0.038C609.613,54.734,609.602,54.721,609.592,54.709 M601.466,50.179
		c3.081,0.471,6.011,1.976,8.121,4.523C607.477,52.152,604.547,50.646,601.466,50.179"/>
	<path fill="#C70000" d="M609.623,54.746c0.012,0.014,0.024,0.029,0.036,0.043C609.647,54.775,609.635,54.761,609.623,54.746
		 M609.586,54.702c0.002,0.002,0.004,0.004,0.005,0.006C609.59,54.706,609.588,54.704,609.586,54.702 M599.64,50.021L599.64,50.021
		c0.611,0.015,1.221,0.066,1.825,0.158C600.861,50.087,600.251,50.034,599.64,50.021"/>
	<path fill="#CCCCCC" d="M683.694,962.554c-0.005,0.021-0.011,0.047-0.016,0.067C683.684,962.599,683.689,962.577,683.694,962.554
		 M683.803,962.1c-0.007,0.028-0.015,0.063-0.022,0.091C683.788,962.16,683.796,962.131,683.803,962.1 M683.906,961.666
		c-0.004,0.018-0.01,0.043-0.014,0.061C683.897,961.707,683.901,961.687,683.906,961.666 M684.005,961.25
		c-0.002,0.008-0.003,0.014-0.005,0.021C684.002,961.265,684.003,961.257,684.005,961.25 M684.106,960.824
		c-0.001,0.003-0.002,0.009-0.003,0.011C684.104,960.831,684.105,960.827,684.106,960.824 M684.21,960.383
		c-0.001,0.005-0.001,0.006-0.003,0.011C684.208,960.391,684.209,960.387,684.21,960.383 M706.615,810.187l-0.247,0.079l0,0.003
		C706.45,810.242,706.532,810.214,706.615,810.187L706.615,810.187 M707.622,804.292l-1.696,13.803l-0.001,0.008L707.622,804.292
		l0.27,0.242v0L707.622,804.292 M712.532,656.647v0.013C712.532,656.656,712.532,656.65,712.532,656.647 M712.533,655.924
		c0,0.034,0,0.069,0,0.103C712.533,655.992,712.533,655.959,712.533,655.924 M712.533,655.313v0.003V655.313 M712.534,654.59
		c0,0.05,0,0.083,0,0.134C712.534,654.682,712.534,654.631,712.534,654.59 M712.534,653.924c0,0.034,0,0.054,0,0.088
		C712.534,653.984,712.534,653.952,712.534,653.924 M712.534,652.601c0,0.013,0,0.028,0,0.041
		C712.534,652.628,712.534,652.615,712.534,652.601 M712.533,651.909c0,0.027,0,0.04,0,0.066
		C712.533,651.955,712.533,651.931,712.533,651.909 M712.532,651.224c0,0.027,0,0.057,0,0.084
		C712.532,651.28,712.532,651.253,712.532,651.224 M712.53,650.549c0,0.027,0,0.058,0,0.085
		C712.53,650.605,712.53,650.577,712.53,650.549 M712.528,649.877c0,0.027,0,0.056,0,0.082
		C712.529,649.931,712.528,649.905,712.528,649.877 M712.526,649.203c0,0.027,0,0.053,0,0.079
		C712.526,649.254,712.526,649.231,712.526,649.203 M712.523,648.536c0,0.013,0,0.044,0,0.058
		C712.523,648.572,712.523,648.557,712.523,648.536 M712.52,647.858c0,0.013,0,0.041,0,0.054
		C712.52,647.891,712.52,647.879,712.52,647.858 M712.516,647.165c0,0.013,0,0.031,0,0.045
		C712.516,647.196,712.516,647.18,712.516,647.165 M712.511,646.469c0,0.027,0,0.045,0,0.072
		C712.512,646.52,712.511,646.49,712.511,646.469 M712.506,645.789c0,0.027,0,0.052,0.001,0.079
		C712.507,645.839,712.507,645.817,712.506,645.789 M712.501,645.104c0,0.04,0,0.051,0.001,0.091
		C712.502,645.166,712.501,645.132,712.501,645.104 M712.496,644.442c0,0.013,0,0.048,0,0.061
		C712.496,644.482,712.496,644.464,712.496,644.442 M712.49,643.756c0,0.027,0,0.053,0.001,0.08
		C712.49,643.807,712.49,643.784,712.49,643.756 M712.483,643.095c0,0.013,0,0.021,0,0.035
		C712.484,643.115,712.484,643.109,712.483,643.095 M712.476,642.407c0,0.027,0,0.025,0,0.052
		C712.477,642.438,712.477,642.429,712.476,642.407 M712.461,641.035c0,0.014,0,0.021,0,0.034
		C712.461,641.055,712.461,641.049,712.461,641.035 M712.453,640.35c0,0.013,0,0.025,0,0.038
		C712.453,640.374,712.453,640.365,712.453,640.35 M712.444,639.653c0,0.027,0,0.04,0.001,0.066
		C712.444,639.698,712.444,639.674,712.444,639.653 M712.435,638.972c0,0.027,0,0.041,0.001,0.068
		C712.435,639.011,712.435,639,712.435,638.972 M712.425,638.289c0,0.027,0.001,0.044,0.001,0.071
		C712.426,638.332,712.426,638.318,712.425,638.289 M712.415,637.62c0,0.013,0,0.029,0.001,0.042
		C712.416,637.648,712.416,637.634,712.415,637.62 M712.405,636.928c0,0.014,0.001,0.054,0.001,0.067
		C712.405,636.974,712.405,636.949,712.405,636.928 M712.359,634.191c0,0.014,0,0.016,0,0.03
		C712.359,634.207,712.359,634.206,712.359,634.191 M712.346,633.514c0,0.013,0,0,0,0.014L712.346,633.514 M712.333,632.833l0,0.005
		L712.333,632.833 M712.319,632.142c0,0.014,0,0,0,0.014L712.319,632.142 M712.306,631.452c0,0.014,0,0.008,0,0.022
		C712.306,631.467,712.306,631.459,712.306,631.452 M712.246,628.705v0.003V628.705 M669.535,294.143
		c0.03,0.146,0.06,0.293,0.09,0.439c0,0,0,0-0.001,0.001v0l0.002-0.001C669.595,294.435,669.565,294.289,669.535,294.143
		 M613.044,62.776c0.004,0.012,0.009,0.032,0.013,0.045C613.052,62.805,613.049,62.792,613.044,62.776 M612.835,62.04
		c0.063,0.223,0.127,0.449,0.191,0.674C612.962,62.488,612.899,62.263,612.835,62.04 M612.119,59.526
		c0.015,0.05,0.029,0.1,0.044,0.15c0.214,0.753,0.431,1.514,0.649,2.284c-0.219-0.77-0.435-1.532-0.649-2.284
		C612.149,59.626,612.134,59.575,612.119,59.526 M612.097,59.45c0.007,0.023,0.014,0.046,0.021,0.069
		C612.111,59.496,612.104,59.473,612.097,59.45 M612.075,59.377c0.007,0.024,0.015,0.048,0.022,0.072
		C612.089,59.425,612.082,59.401,612.075,59.377 M612.051,59.302c0.007,0.022,0.013,0.042,0.02,0.063
		C612.065,59.344,612.058,59.324,612.051,59.302 M612.028,59.229c0.007,0.022,0.014,0.044,0.021,0.065
		C612.042,59.272,612.035,59.251,612.028,59.229 M612.005,59.156c0.006,0.02,0.013,0.041,0.02,0.061
		C612.018,59.196,612.012,59.177,612.005,59.156 M611.981,59.083c0.006,0.019,0.012,0.037,0.018,0.056
		C611.993,59.121,611.987,59.102,611.981,59.083 M611.957,59.012c0.006,0.017,0.011,0.034,0.017,0.051
		C611.969,59.046,611.963,59.029,611.957,59.012 M611.933,58.94c0.005,0.016,0.01,0.031,0.016,0.047
		C611.943,58.971,611.938,58.955,611.933,58.94 M611.909,58.869c0.005,0.014,0.01,0.028,0.015,0.042
		C611.918,58.897,611.913,58.883,611.909,58.869 M611.884,58.798c0.004,0.012,0.009,0.024,0.013,0.036
		C611.892,58.823,611.888,58.811,611.884,58.798 M611.859,58.728c0.003,0.01,0.007,0.02,0.01,0.03
		C611.866,58.748,611.863,58.738,611.859,58.728 M611.834,58.66c0.003,0.007,0.005,0.015,0.008,0.022
		C611.84,58.674,611.837,58.667,611.834,58.66 M611.809,58.591c0.002,0.004,0.003,0.009,0.005,0.013
		C611.812,58.6,611.811,58.596,611.809,58.591 M611.784,58.523c0.001,0.003,0.002,0.005,0.003,0.008
		C611.785,58.528,611.784,58.525,611.784,58.523"/>
	<path fill="#CCCCCC" d="M683.325,963.073c-23.598,5.488-47.699,8.92-71.892,10.073c-3.925,0.187-7.857,0.315-11.792,0.379v123.257
		c33.198-0.279,63.034-47.772,83.686-133.713 M669.623,294.584c-0.291,0.217-31.279,23.34-67.907,23.34
		c-0.689,0-1.382-0.009-2.075-0.026v61.365c25.739,0.158,46.628,21.145,46.628,46.92c0,25.775-20.89,46.762-46.628,46.92v111.937
		c34.846,0.159,63.146,28.556,63.146,63.439c0,34.882-28.299,63.279-63.146,63.438V829.73c4.831-0.017,9.667-0.169,14.493-0.454
		c27.327-1.61,54.286-7.284,80.434-15.242c3.951-1.202,7.883-2.462,11.8-3.764l0-0.003l-0.007,0.002
		c3.919-46.39,6.088-97.746,6.171-153.609v-0.013c0-0.209,0.001-0.411,0.001-0.62c0-0.034,0-0.069,0-0.103
		c0-0.202,0-0.406,0.001-0.608v-0.003c0-0.198,0-0.391,0-0.589c0-0.051,0-0.083,0-0.134c0-0.195,0-0.383,0-0.578
		c0-0.034,0-0.054,0-0.088c0-0.206,0-0.411,0-0.617l0,0c0-0.219,0-0.446,0-0.665c0-0.013,0-0.028,0-0.041
		c0-0.212,0-0.413-0.001-0.625c0-0.027,0-0.04,0-0.066c0-0.198,0-0.403-0.001-0.601c0-0.027,0-0.057,0-0.084
		c0-0.198-0.001-0.393-0.001-0.591c0-0.027,0-0.058,0-0.085c0-0.198-0.001-0.392-0.002-0.59c0-0.027,0-0.056,0-0.082
		c-0.001-0.198-0.001-0.396-0.002-0.595c0-0.027,0-0.052,0-0.079c-0.001-0.198-0.002-0.411-0.003-0.609c0-0.013,0-0.044,0-0.058
		c-0.001-0.205-0.002-0.418-0.003-0.623c0-0.013,0-0.041,0-0.054c-0.001-0.213-0.002-0.436-0.004-0.648c0-0.013,0-0.031,0-0.045
		c-0.001-0.213-0.003-0.411-0.004-0.624c0-0.027,0-0.045,0-0.072c-0.001-0.198-0.003-0.403-0.004-0.601c0-0.027,0-0.052-0.001-0.079
		c-0.001-0.199-0.003-0.395-0.005-0.594c0-0.04,0-0.051-0.001-0.091c-0.002-0.199-0.003-0.402-0.005-0.601c0-0.013,0-0.048,0-0.061
		c-0.002-0.206-0.004-0.4-0.005-0.606c0-0.027,0-0.053-0.001-0.08c-0.002-0.206-0.004-0.42-0.006-0.626c0-0.013,0-0.021,0-0.035
		c-0.002-0.206-0.004-0.429-0.006-0.635c0-0.027,0-0.025,0-0.052c-0.005-0.441-0.01-0.897-0.015-1.338c0-0.013,0-0.021,0-0.034
		c-0.003-0.214-0.005-0.433-0.008-0.647c0-0.013,0-0.025,0-0.038c-0.003-0.214-0.005-0.417-0.008-0.631c0-0.027,0-0.04-0.001-0.066
		c-0.003-0.2-0.005-0.414-0.008-0.613c0-0.027,0-0.041-0.001-0.068c-0.003-0.2-0.006-0.412-0.009-0.611c0-0.027,0-0.044-0.001-0.071
		c-0.003-0.207-0.006-0.421-0.009-0.627c0-0.013,0-0.029-0.001-0.042c-0.003-0.207-0.006-0.418-0.01-0.625
		c0-0.013-0.001-0.054-0.001-0.067c-0.014-0.899-0.029-1.806-0.046-2.707c0-0.014,0-0.016,0-0.03
		c-0.004-0.222-0.008-0.442-0.012-0.663c0-0.014,0,0,0-0.014c-0.004-0.229-0.009-0.448-0.013-0.677l0-0.005
		c-0.004-0.229-0.009-0.448-0.013-0.677c0-0.013,0,0,0-0.014c-0.004-0.222-0.009-0.446-0.014-0.668c0-0.014,0-0.008,0-0.022
		c-0.019-0.917-0.039-1.826-0.06-2.744v-0.003C709.728,519.412,691.069,399.284,669.623,294.584 M669.624,294.583
		C669.624,294.583,669.624,294.583,669.624,294.583L669.624,294.583L669.624,294.583"/>
	<path fill="#C70000" d="M706.615,810.187c-0.083,0.027-0.165,0.055-0.247,0.082c-3.917,1.302-7.849,2.562-11.8,3.764
		c-26.148,7.959-53.107,13.632-80.434,15.242c-4.825,0.284-9.661,0.437-14.493,0.454v143.796c3.935-0.064,7.867-0.193,11.792-0.379
		c24.193-1.153,48.294-4.585,71.892-10.073c0.001-0.003,0.001-0.003,0.001-0.003l0.258-0.057c0.031-0.13,0.063-0.261,0.094-0.391
		c0.005-0.021,0.011-0.047,0.016-0.067c0.029-0.12,0.058-0.243,0.087-0.364c0.007-0.028,0.015-0.063,0.022-0.091
		c0.03-0.124,0.059-0.249,0.089-0.373c0.004-0.018,0.01-0.043,0.014-0.061c0.031-0.131,0.063-0.263,0.094-0.395
		c0.002-0.008,0.003-0.014,0.005-0.021c0.033-0.139,0.065-0.276,0.098-0.415c0.001-0.003,0.002-0.009,0.003-0.011
		c0.034-0.143,0.068-0.286,0.101-0.429c0.001-0.005,0.001-0.006,0.003-0.011c4.214-17.866,8.034-37.365,11.412-58.408l2.569-20.911
		c-1.333-0.885-2.67-1.765-4.011-2.638l6.793-55.298c0.587,0.591,1.176,1.18,1.759,1.774c0.701,0.716,1.398,1.434,2.093,2.156
		l1.1-8.955l0.001-0.008l-0.03,0.246C706.139,815.635,706.383,812.929,706.615,810.187"/>
	<path fill="#C70000" d="M609.66,54.792c1.091,1.344,1.956,2.971,2.501,4.884c1.93,6.774,4.037,14.273,6.283,22.403
		c-0.615,1.74-1.242,3.476-1.847,5.218c-6.229,17.965-11.87,36.128-16.957,54.442v176.16c0.693,0.017,1.386,0.026,2.075,0.026
		c36.629,0,67.617-23.123,67.907-23.34c0,0,0,0,0,0l0.001,0c0,0,0,0,0.001,0c0,0,0.001-0.001,0.001-0.001
		c-0.03-0.147-0.06-0.293-0.09-0.439c-0.036-0.172-0.071-0.343-0.107-0.516c-0.049-0.239-0.098-0.476-0.147-0.716
		c-0.615-2.991-1.231-5.971-1.85-8.937c-0.128-0.615-0.257-1.224-0.386-1.838c-0.543-2.596-1.087-5.184-1.633-7.758
		c-0.157-0.738-0.314-1.47-0.47-2.207c-0.525-2.464-1.049-4.922-1.576-7.365c-0.166-0.771-0.332-1.537-0.498-2.306
		c-0.509-2.352-1.017-4.697-1.528-7.029c-0.191-0.872-0.382-1.741-0.573-2.612c-0.498-2.268-0.996-4.529-1.495-6.777
		c-0.182-0.824-0.365-1.645-0.548-2.466c-0.505-2.265-1.008-4.52-1.513-6.765c-0.186-0.828-0.372-1.654-0.559-2.478
		c-0.504-2.231-1.008-4.451-1.512-6.66c-0.179-0.787-0.359-1.575-0.539-2.359c-0.524-2.29-1.048-4.568-1.571-6.834
		c-0.155-0.668-0.309-1.337-0.464-2.003c-0.55-2.376-1.1-4.734-1.649-7.08c-0.131-0.56-0.262-1.122-0.393-1.68
		c-0.576-2.456-1.152-4.892-1.726-7.315c-0.105-0.44-0.209-0.884-0.313-1.323c-0.621-2.614-1.24-5.207-1.858-7.781l-0.169-0.704
		c-6.89-28.673-13.582-54.855-19.661-77.735l-0.015-0.057c-5.09-19.154-9.75-36.004-13.725-50.023
		c-0.004-0.012-0.009-0.032-0.013-0.045c-0.006-0.02-0.012-0.043-0.018-0.063c-0.064-0.225-0.128-0.45-0.191-0.674
		c-0.008-0.027-0.015-0.052-0.023-0.08c-0.219-0.77-0.435-1.531-0.649-2.284c-0.014-0.05-0.029-0.1-0.044-0.15
		c-0.001-0.002-0.001-0.004-0.002-0.006c-0.007-0.023-0.014-0.046-0.021-0.069c0-0.001,0,0,0-0.001
		c-0.007-0.024-0.015-0.048-0.022-0.072c-0.001-0.003-0.002-0.008-0.003-0.011c-0.007-0.022-0.013-0.042-0.02-0.063
		c-0.001-0.003-0.002-0.006-0.003-0.008c-0.007-0.022-0.014-0.044-0.021-0.065c-0.001-0.004-0.003-0.008-0.004-0.012
		c-0.006-0.02-0.013-0.041-0.02-0.061c-0.002-0.006-0.004-0.011-0.005-0.017c-0.006-0.019-0.012-0.037-0.018-0.056
		c-0.002-0.007-0.005-0.014-0.007-0.021c-0.005-0.017-0.011-0.034-0.017-0.051c-0.003-0.008-0.006-0.017-0.009-0.026
		c-0.005-0.016-0.01-0.031-0.016-0.047c-0.003-0.01-0.006-0.019-0.01-0.029c-0.005-0.014-0.01-0.028-0.015-0.042
		c-0.004-0.011-0.008-0.023-0.012-0.034c-0.004-0.012-0.009-0.024-0.013-0.036c-0.005-0.014-0.01-0.027-0.014-0.04
		c-0.003-0.01-0.007-0.02-0.01-0.03c-0.006-0.015-0.011-0.031-0.017-0.047c-0.003-0.007-0.005-0.015-0.008-0.022
		c-0.007-0.019-0.014-0.037-0.02-0.055c-0.002-0.005-0.003-0.009-0.005-0.013c-0.008-0.02-0.015-0.04-0.023-0.061
		c-0.001-0.003-0.002-0.005-0.003-0.008C611.249,57.1,610.526,55.856,609.66,54.792"/>
	<path fill="#C70000" d="M599.64,379.263v9.485c19.354,0.149,35.213,14.984,36.979,33.912c0,0.001,0,0.002,0,0.003
		c0.003,0.036,0.007,0.075,0.01,0.11c0,0.002,0,0.005,0.001,0.007c0.003,0.036,0.006,0.069,0.009,0.104
		c0,0.005,0.001,0.011,0.001,0.016c0.003,0.033,0.006,0.066,0.009,0.099c0,0.006,0.001,0.012,0.001,0.018
		c0.003,0.032,0.005,0.064,0.008,0.096c0.001,0.007,0.001,0.016,0.002,0.023c0.003,0.031,0.005,0.062,0.007,0.093
		c0.001,0.007,0.001,0.017,0.002,0.024c0.002,0.031,0.005,0.06,0.007,0.091c0.001,0.01,0.001,0.02,0.002,0.029
		c0.002,0.029,0.004,0.059,0.006,0.087c0.001,0.01,0.001,0.02,0.002,0.03c0.002,0.029,0.004,0.059,0.006,0.087
		c0.001,0.011,0.001,0.02,0.002,0.031c0.002,0.029,0.004,0.057,0.006,0.086c0.001,0.011,0.001,0.022,0.002,0.033
		c0.002,0.027,0.004,0.055,0.005,0.082c0.001,0.012,0.001,0.025,0.002,0.037c0.002,0.027,0.003,0.054,0.005,0.081
		c0.001,0.012,0.001,0.024,0.002,0.036c0.002,0.027,0.003,0.053,0.005,0.08c0.001,0.013,0.002,0.028,0.002,0.042
		c0.001,0.025,0.003,0.05,0.004,0.075c0.001,0.015,0.002,0.03,0.002,0.045c0.001,0.024,0.003,0.049,0.004,0.072
		c0.001,0.016,0.002,0.034,0.002,0.049c0.001,0.024,0.002,0.045,0.003,0.068c0.001,0.016,0.002,0.034,0.002,0.049
		c0.001,0.022,0.002,0.046,0.003,0.069c0.001,0.017,0.001,0.034,0.002,0.051c0.001,0.022,0.002,0.045,0.003,0.067
		c0.001,0.016,0.001,0.035,0.002,0.051c0.001,0.022,0.002,0.045,0.003,0.067c0.001,0.018,0.001,0.038,0.002,0.056
		c0.001,0.021,0.001,0.04,0.002,0.062c0.001,0.018,0.001,0.038,0.002,0.057c0.001,0.02,0.001,0.042,0.002,0.063
		c0.001,0.02,0.001,0.038,0.002,0.058c0,0.02,0.001,0.041,0.002,0.061c0,0.02,0.001,0.037,0.001,0.057
		c0.001,0.021,0.001,0.041,0.002,0.062c0,0.02,0.001,0.04,0.001,0.06c0,0.019,0.001,0.04,0.001,0.059c0,0.02,0.001,0.04,0.001,0.06
		c0,0.02,0.001,0.039,0.001,0.06c0,0.022,0.001,0.044,0.001,0.066c0,0.016,0.001,0.036,0.001,0.052c0,0.022,0.001,0.045,0.001,0.067
		c0,0.018,0.001,0.036,0.001,0.053c0,0.022,0,0.045,0.001,0.067c0,0.018,0,0.034,0,0.052c0,0.021,0,0.041,0,0.062
		c0,0.02,0,0.039,0,0.059c0,0.016,0,0.035,0,0.051c0,0.023,0,0.046,0,0.068c0,0.04,0,0.08,0,0.119l0,0l0,0
		c0,0.116-0.001,0.231-0.002,0.347c0,0.005,0,0.01,0,0.015c0,0.023,0,0.045-0.001,0.068c0,0.018,0,0.036,0,0.053
		c0,0.015,0,0.031-0.001,0.046c0,0.025-0.001,0.05-0.001,0.075c0,0.013,0,0.027-0.001,0.04c0,0.026-0.001,0.054-0.001,0.08
		c0,0.021-0.001,0.046-0.001,0.067c0,0.018-0.001,0.035-0.001,0.053c0,0.021-0.001,0.042-0.001,0.063
		c0,0.019-0.001,0.039-0.001,0.057c0,0.016-0.001,0.035-0.001,0.051c-0.001,0.024-0.001,0.046-0.002,0.07
		c0,0.015-0.001,0.032-0.001,0.047c-0.001,0.025-0.001,0.047-0.002,0.072c0,0.015-0.001,0.028-0.001,0.043
		c-0.001,0.026-0.002,0.052-0.003,0.078c0,0.009-0.001,0.02-0.001,0.029c-0.001,0.03-0.002,0.06-0.003,0.09
		c-0.001,0.02-0.001,0.039-0.002,0.059c-0.001,0.02-0.002,0.04-0.002,0.06c-0.001,0.023-0.002,0.044-0.003,0.066
		c-0.001,0.019-0.001,0.034-0.002,0.053c-0.001,0.021-0.002,0.043-0.003,0.064c-0.001,0.019-0.002,0.037-0.003,0.056
		c-0.001,0.024-0.002,0.045-0.003,0.069c-0.001,0.017-0.001,0.032-0.002,0.049c-0.001,0.027-0.003,0.055-0.004,0.083
		c-0.001,0.012-0.001,0.024-0.002,0.036c-0.001,0.027-0.003,0.057-0.005,0.085c-0.001,0.012-0.001,0.022-0.002,0.034
		c-0.002,0.034-0.004,0.065-0.006,0.099c0,0.006-0.001,0.013-0.001,0.019c-0.002,0.031-0.004,0.062-0.006,0.093
		c-0.001,0.01-0.001,0.017-0.002,0.027c-0.002,0.034-0.004,0.068-0.007,0.101c0,0.005-0.001,0.012-0.001,0.017
		c-0.002,0.035-0.005,0.069-0.007,0.104c0,0.005-0.001,0.01-0.001,0.015c-0.002,0.035-0.005,0.07-0.007,0.104
		c0,0.004-0.001,0.01-0.001,0.014c-0.002,0.034-0.005,0.069-0.008,0.102c0,0.005-0.001,0.011-0.001,0.016
		c-0.003,0.033-0.005,0.069-0.008,0.103c0,0.005-0.001,0.011-0.001,0.016c-0.003,0.032-0.005,0.068-0.008,0.1
		c0,0.006-0.001,0.013-0.001,0.019c-0.003,0.036-0.006,0.071-0.009,0.107c0,0.004,0,0.007-0.001,0.011
		c-1.627,19.069-17.551,34.059-37.005,34.209v9.485c25.739-0.158,46.628-21.145,46.628-46.92
		C646.269,400.409,625.379,379.422,599.64,379.263"/>
	<path fill="#4FA7B5" d="M636.646,429.409c-1.627,19.068-17.551,34.053-37.005,34.204v0.005
		C619.095,463.468,635.018,448.478,636.646,429.409 M636.655,429.292c-0.003,0.036-0.006,0.071-0.009,0.107
		C636.649,429.363,636.653,429.327,636.655,429.292 M636.665,429.173c-0.003,0.033-0.005,0.066-0.008,0.1
		C636.659,429.241,636.662,429.205,636.665,429.173 M636.674,429.055c-0.003,0.035-0.005,0.068-0.008,0.103
		C636.669,429.124,636.672,429.088,636.674,429.055 M636.683,428.936c-0.002,0.035-0.005,0.068-0.008,0.102
		C636.678,429.005,636.68,428.969,636.683,428.936 M636.691,428.817c-0.003,0.036-0.005,0.069-0.007,0.104
		C636.686,428.887,636.689,428.852,636.691,428.817 M636.699,428.699c-0.002,0.035-0.005,0.069-0.007,0.104
		C636.695,428.768,636.697,428.733,636.699,428.699 M636.707,428.581c-0.002,0.033-0.004,0.068-0.007,0.101
		C636.703,428.649,636.705,428.614,636.707,428.581 M636.714,428.461c-0.002,0.031-0.004,0.062-0.006,0.093
		C636.711,428.523,636.713,428.492,636.714,428.461 M636.721,428.343c-0.002,0.032-0.004,0.067-0.006,0.099
		C636.718,428.408,636.719,428.377,636.721,428.343 M636.728,428.224c-0.001,0.027-0.003,0.058-0.005,0.085
		C636.725,428.281,636.727,428.251,636.728,428.224 M636.734,428.105c-0.001,0.027-0.003,0.055-0.004,0.083
		C636.731,428.16,636.733,428.132,636.734,428.105 M636.74,427.987c-0.001,0.022-0.002,0.047-0.003,0.069
		C636.738,428.032,636.739,428.01,636.74,427.987 M636.745,427.867c-0.001,0.021-0.002,0.043-0.003,0.064
		C636.743,427.909,636.745,427.888,636.745,427.867 M636.751,427.747c-0.001,0.021-0.002,0.045-0.003,0.066
		C636.749,427.791,636.75,427.77,636.751,427.747 M636.755,427.628c-0.001,0.02-0.001,0.039-0.002,0.059
		C636.754,427.667,636.754,427.648,636.755,427.628 M636.76,427.509c0,0.01-0.001,0.018-0.001,0.029
		C636.759,427.529,636.759,427.518,636.76,427.509 M636.764,427.388c0,0.014-0.001,0.03-0.001,0.043
		C636.763,427.416,636.763,427.403,636.764,427.388 M636.767,427.268c0,0.015-0.001,0.032-0.001,0.047
		C636.766,427.301,636.767,427.283,636.767,427.268 M636.77,427.148c0,0.018-0.001,0.034-0.001,0.051
		C636.769,427.182,636.77,427.164,636.77,427.148 M636.773,427.027c0,0.021-0.001,0.042-0.001,0.063
		C636.772,427.069,636.773,427.048,636.773,427.027 M636.776,426.907c0,0.023-0.001,0.045-0.001,0.067
		C636.775,426.953,636.775,426.928,636.776,426.907 M636.778,426.787c0,0.014,0,0.026-0.001,0.04
		C636.777,426.815,636.778,426.8,636.778,426.787 M636.78,426.666c0,0.015,0,0.031-0.001,0.046
		C636.779,426.697,636.779,426.681,636.78,426.666 M636.781,426.545c0,0.023,0,0.045-0.001,0.068
		C636.78,426.59,636.781,426.568,636.781,426.545 M636.783,426.183c0,0.116-0.001,0.232-0.002,0.347
		C636.782,426.414,636.783,426.299,636.783,426.183L636.783,426.183 M636.782,425.996c0,0.023,0,0.045,0,0.068
		C636.782,426.041,636.782,426.018,636.782,425.996 M636.781,425.885c0,0.02,0,0.039,0,0.059
		C636.782,425.924,636.782,425.906,636.781,425.885 M636.78,425.772c0,0.017,0,0.035,0,0.052
		C636.781,425.806,636.781,425.789,636.78,425.772 M636.779,425.651c0,0.018,0.001,0.035,0.001,0.053
		C636.779,425.687,636.779,425.669,636.779,425.651 M636.777,425.532c0,0.017,0.001,0.035,0.001,0.052
		C636.778,425.567,636.777,425.548,636.777,425.532 M636.775,425.406c0,0.02,0.001,0.04,0.001,0.06
		C636.775,425.445,636.775,425.426,636.775,425.406 M636.772,425.287c0,0.02,0.001,0.04,0.001,0.059
		C636.773,425.327,636.773,425.306,636.772,425.287 M636.769,425.165c0.001,0.021,0.001,0.041,0.002,0.062
		C636.77,425.206,636.77,425.186,636.769,425.165 M636.766,425.047c0,0.02,0.001,0.041,0.002,0.061
		C636.767,425.088,636.766,425.067,636.766,425.047 M636.762,424.927c0.001,0.021,0.001,0.042,0.002,0.063
		C636.763,424.969,636.763,424.947,636.762,424.927 M636.758,424.808c0.001,0.021,0.001,0.041,0.002,0.062
		C636.759,424.849,636.759,424.83,636.758,424.808 M636.753,424.685c0.001,0.023,0.002,0.044,0.003,0.067
		C636.755,424.73,636.754,424.707,636.753,424.685 M636.748,424.567c0.001,0.023,0.002,0.044,0.003,0.067
		C636.75,424.612,636.749,424.589,636.748,424.567 M636.743,424.447c0.001,0.023,0.002,0.046,0.003,0.069
		C636.745,424.493,636.744,424.469,636.743,424.447 M636.737,424.329c0.001,0.023,0.002,0.045,0.003,0.068
		C636.74,424.374,636.739,424.353,636.737,424.329 M636.731,424.208c0.001,0.024,0.002,0.048,0.004,0.072
		C636.734,424.256,636.733,424.231,636.731,424.208 M636.725,424.088c0.001,0.026,0.003,0.049,0.004,0.075
		C636.728,424.138,636.726,424.113,636.725,424.088 M636.718,423.966c0.002,0.027,0.003,0.053,0.005,0.08
		C636.721,424.019,636.72,423.993,636.718,423.966 M636.711,423.849c0.002,0.027,0.003,0.054,0.005,0.081
		C636.714,423.903,636.713,423.876,636.711,423.849 M636.703,423.729c0.002,0.028,0.004,0.054,0.005,0.082
		C636.707,423.784,636.705,423.757,636.703,423.729 M636.695,423.61c0.002,0.028,0.004,0.058,0.006,0.086
		C636.699,423.667,636.697,423.639,636.695,423.61 M636.687,423.492c0.002,0.029,0.004,0.058,0.006,0.087
		C636.691,423.551,636.689,423.521,636.687,423.492 M636.679,423.375c0.002,0.029,0.004,0.058,0.006,0.087
		C636.683,423.434,636.681,423.404,636.679,423.375 M636.67,423.255c0.002,0.03,0.005,0.06,0.007,0.091
		C636.674,423.315,636.672,423.286,636.67,423.255 M636.66,423.138c0.003,0.031,0.005,0.062,0.007,0.093
		C636.665,423.2,636.663,423.169,636.66,423.138 M636.651,423.019c0.003,0.033,0.005,0.064,0.008,0.096
		C636.656,423.083,636.654,423.051,636.651,423.019 M636.641,422.902c0.003,0.033,0.006,0.067,0.009,0.099
		C636.646,422.968,636.644,422.935,636.641,422.902 M636.63,422.781c0.003,0.035,0.006,0.069,0.009,0.104
		C636.636,422.85,636.633,422.817,636.63,422.781 M636.619,422.664c0.004,0.037,0.007,0.073,0.01,0.11
		C636.626,422.738,636.623,422.7,636.619,422.664 M599.64,388.749v15.246c0.707,1.347,1.108,2.881,1.108,4.508
		c0,1.627-0.401,3.161-1.108,4.508v50.542c2.62-2.177,4.891-4.883,6.977-7.428c2.249-2.744,4.435-5.506,6.38-8.478
		c2.013-3.074,3.81-6.299,5.274-9.672c2.798-6.444,4.433-13.627,3.242-20.644c-0.551-3.243-1.714-6.33-3.371-9.167
		c-1.523-2.605-3.325-5.051-5.222-7.393c-2.051-2.533-4.246-4.958-6.593-7.221c-1.787-1.724-3.681-3.387-5.754-4.77
		c18.928,0.611,34.307,15.263,36.046,33.882C634.853,403.732,618.994,388.898,599.64,388.749"/>
	<path fill="#9F0000" d="M636.646,429.398c0,0.004,0,0.007-0.001,0.011C636.646,429.405,636.646,429.402,636.646,429.398
		 M636.657,429.273c0,0.006-0.001,0.013-0.001,0.019C636.656,429.285,636.656,429.279,636.657,429.273 M636.666,429.157
		c0,0.006-0.001,0.009-0.001,0.016C636.665,429.168,636.666,429.162,636.666,429.157 M636.675,429.038
		c0,0.006-0.001,0.01-0.001,0.016C636.674,429.05,636.675,429.043,636.675,429.038 M636.684,428.922
		c0,0.005-0.001,0.009-0.001,0.014C636.683,428.932,636.684,428.926,636.684,428.922 M636.692,428.803
		c0,0.005-0.001,0.01-0.001,0.015C636.692,428.812,636.692,428.808,636.692,428.803 M636.701,428.682
		c0,0.006-0.001,0.01-0.001,0.017C636.7,428.694,636.7,428.687,636.701,428.682 M636.709,428.554c0,0.009-0.001,0.018-0.002,0.027
		C636.708,428.571,636.708,428.564,636.709,428.554 M636.716,428.442c0,0.006-0.001,0.013-0.001,0.019
		C636.715,428.455,636.715,428.448,636.716,428.442 M636.723,428.309c-0.001,0.011-0.001,0.023-0.002,0.034
		C636.722,428.331,636.723,428.321,636.723,428.309 M636.73,428.188c-0.001,0.012-0.001,0.024-0.002,0.036
		C636.729,428.212,636.729,428.2,636.73,428.188 M636.737,428.056c-0.001,0.016-0.002,0.033-0.002,0.049
		C636.735,428.088,636.736,428.073,636.737,428.056 M636.742,427.931c-0.001,0.019-0.002,0.037-0.003,0.056
		C636.741,427.968,636.742,427.949,636.742,427.931 M636.748,427.813c-0.001,0.017-0.001,0.036-0.002,0.053
		C636.746,427.848,636.747,427.832,636.748,427.813 M636.753,427.687c-0.001,0.02-0.002,0.04-0.002,0.06
		C636.751,427.727,636.752,427.707,636.753,427.687 M636.758,427.538c-0.001,0.03-0.002,0.06-0.003,0.09
		C636.756,427.598,636.758,427.568,636.758,427.538 M636.762,427.431c-0.001,0.026-0.002,0.052-0.003,0.078
		C636.76,427.483,636.761,427.457,636.762,427.431 M636.766,427.316c-0.001,0.024-0.001,0.049-0.002,0.072
		C636.764,427.363,636.765,427.34,636.766,427.316 M636.769,427.199c-0.001,0.024-0.001,0.046-0.002,0.07
		C636.768,427.245,636.768,427.223,636.769,427.199 M636.772,427.09c0,0.02-0.001,0.037-0.001,0.057
		C636.771,427.129,636.771,427.109,636.772,427.09 M636.774,426.974c0,0.018-0.001,0.035-0.001,0.053
		C636.774,427.009,636.774,426.992,636.774,426.974 M636.777,426.827c0,0.028-0.001,0.052-0.001,0.08
		C636.776,426.881,636.777,426.853,636.777,426.827 M636.779,426.712c0,0.025-0.001,0.05-0.001,0.075
		C636.778,426.762,636.779,426.737,636.779,426.712 M636.78,426.613c0,0.018,0,0.036,0,0.053
		C636.78,426.649,636.78,426.63,636.78,426.613 M636.781,426.53c0,0.005,0,0.01,0,0.015
		C636.781,426.54,636.781,426.535,636.781,426.53 M636.782,426.064c0,0.04,0,0.079,0,0.119l0,0
		C636.783,426.144,636.783,426.103,636.782,426.064 M636.782,425.944c0,0.016,0,0.035,0,0.051
		C636.782,425.98,636.782,425.96,636.782,425.944 M636.781,425.824c0,0.02,0,0.042,0,0.062
		C636.781,425.864,636.781,425.845,636.781,425.824 M636.78,425.704c0,0.023,0,0.044,0.001,0.067
		C636.78,425.749,636.78,425.727,636.78,425.704 M636.778,425.584c0,0.023,0.001,0.045,0.001,0.067
		C636.779,425.629,636.778,425.606,636.778,425.584 M636.776,425.466c0,0.023,0.001,0.043,0.001,0.066
		C636.777,425.509,636.776,425.488,636.776,425.466 M636.773,425.346c0,0.02,0.001,0.04,0.001,0.06
		C636.774,425.386,636.774,425.366,636.773,425.346 M636.771,425.227c0.001,0.02,0.001,0.039,0.001,0.06
		C636.772,425.267,636.771,425.247,636.771,425.227 M636.768,425.108c0,0.019,0.001,0.038,0.001,0.057
		C636.768,425.145,636.768,425.128,636.768,425.108 M636.764,424.989c0.001,0.02,0.001,0.038,0.002,0.058
		C636.765,425.028,636.765,425.009,636.764,424.989 M636.76,424.87c0.001,0.019,0.001,0.038,0.002,0.057
		C636.761,424.908,636.761,424.888,636.76,424.87 M636.756,424.752c0.001,0.019,0.001,0.038,0.002,0.056
		C636.757,424.79,636.756,424.771,636.756,424.752 M636.751,424.634c0.001,0.016,0.001,0.034,0.002,0.051
		C636.753,424.669,636.752,424.65,636.751,424.634 M636.746,424.516c0.001,0.017,0.001,0.034,0.002,0.051
		C636.748,424.55,636.747,424.533,636.746,424.516 M636.741,424.397c0.001,0.016,0.002,0.033,0.002,0.049
		C636.742,424.431,636.742,424.413,636.741,424.397 M636.735,424.28c0.001,0.016,0.002,0.033,0.002,0.049
		C636.737,424.313,636.736,424.296,636.735,424.28 M636.729,424.163c0.001,0.015,0.002,0.03,0.002,0.045
		C636.731,424.193,636.73,424.177,636.729,424.163 M636.723,424.046c0.001,0.014,0.002,0.028,0.002,0.042
		C636.724,424.074,636.723,424.059,636.723,424.046 M636.716,423.93c0.001,0.011,0.001,0.025,0.002,0.036
		C636.717,423.954,636.717,423.942,636.716,423.93 M636.709,423.812c0.001,0.012,0.001,0.025,0.002,0.037
		C636.71,423.837,636.709,423.824,636.709,423.812 M636.701,423.696c0.001,0.011,0.001,0.022,0.002,0.033
		C636.703,423.718,636.702,423.707,636.701,423.696 M636.693,423.58c0.001,0.011,0.001,0.02,0.002,0.031
		C636.695,423.599,636.694,423.591,636.693,423.58 M636.685,423.463c0.001,0.01,0.001,0.02,0.002,0.03
		C636.687,423.482,636.686,423.472,636.685,423.463 M636.677,423.346c0.001,0.01,0.001,0.019,0.002,0.029
		C636.678,423.366,636.677,423.356,636.677,423.346 M636.668,423.231c0.001,0.007,0.001,0.017,0.002,0.024
		C636.669,423.248,636.669,423.239,636.668,423.231 M636.659,423.115c0.001,0.009,0.001,0.014,0.002,0.023
		C636.66,423.131,636.659,423.122,636.659,423.115 M636.649,423.001c0,0.005,0.001,0.013,0.001,0.018
		C636.65,423.013,636.65,423.007,636.649,423.001 M636.639,422.886c0,0.005,0.001,0.011,0.001,0.016
		C636.64,422.897,636.64,422.891,636.639,422.886 M636.629,422.774c0,0.003,0,0.005,0.001,0.007
		C636.63,422.779,636.63,422.777,636.629,422.774 M636.619,422.66c0,0.001,0,0.002,0,0.003
		C636.619,422.663,636.619,422.662,636.619,422.66"/>
	<path fill="#3F8691" d="M600.573,388.778c2.073,1.383,3.967,3.046,5.754,4.77c2.347,2.263,4.542,4.688,6.593,7.221
		c1.898,2.343,3.699,4.788,5.222,7.393c1.658,2.837,2.821,5.924,3.371,9.167c1.191,7.017-0.443,14.201-3.242,20.644
		c-1.465,3.373-3.261,6.598-5.274,9.672c-1.945,2.972-4.131,5.733-6.38,8.478c-2.086,2.546-4.358,5.252-6.977,7.428v0.061
		c19.455-0.15,35.378-15.135,37.005-34.204c0-0.004,0-0.007,0.001-0.011c0.003-0.036,0.006-0.071,0.009-0.107
		c0-0.006,0.001-0.013,0.001-0.019c0.003-0.033,0.005-0.066,0.008-0.1c0-0.006,0.001-0.009,0.001-0.016
		c0.003-0.034,0.005-0.068,0.008-0.103c0-0.006,0.001-0.01,0.001-0.016c0.003-0.035,0.005-0.068,0.008-0.102
		c0-0.005,0.001-0.009,0.001-0.014c0.003-0.036,0.005-0.069,0.007-0.104c0-0.005,0.001-0.01,0.001-0.015
		c0.002-0.035,0.005-0.069,0.007-0.104c0-0.006,0.001-0.01,0.001-0.017c0.002-0.033,0.005-0.068,0.007-0.101
		c0-0.009,0.001-0.018,0.002-0.027c0.002-0.031,0.004-0.062,0.006-0.093c0-0.006,0.001-0.013,0.001-0.019
		c0.002-0.032,0.004-0.067,0.006-0.099c0.001-0.011,0.001-0.023,0.002-0.034c0.001-0.027,0.003-0.058,0.005-0.085
		c0.001-0.012,0.001-0.024,0.002-0.036c0.001-0.027,0.003-0.055,0.004-0.083c0.001-0.016,0.002-0.033,0.002-0.049
		c0.001-0.022,0.002-0.047,0.003-0.069c0.001-0.019,0.002-0.037,0.003-0.056c0.001-0.021,0.002-0.043,0.003-0.064
		c0.001-0.017,0.002-0.036,0.002-0.053c0.001-0.021,0.002-0.045,0.003-0.066c0.001-0.02,0.002-0.04,0.002-0.06
		c0.001-0.02,0.001-0.039,0.002-0.059c0.001-0.03,0.002-0.06,0.003-0.09c0-0.01,0.001-0.019,0.001-0.029
		c0.001-0.026,0.002-0.052,0.003-0.078c0-0.014,0.001-0.03,0.001-0.043c0.001-0.024,0.001-0.049,0.002-0.072
		c0-0.015,0.001-0.032,0.001-0.047c0.001-0.024,0.001-0.046,0.002-0.07c0-0.017,0.001-0.034,0.001-0.051
		c0-0.02,0.001-0.037,0.001-0.057c0-0.021,0.001-0.042,0.001-0.063c0-0.018,0.001-0.035,0.001-0.053
		c0-0.023,0.001-0.045,0.001-0.067c0-0.028,0.001-0.052,0.001-0.08c0-0.014,0-0.026,0.001-0.04c0-0.025,0.001-0.05,0.001-0.075
		c0-0.015,0-0.031,0.001-0.046c0-0.018,0-0.036,0-0.053c0-0.023,0.001-0.045,0.001-0.068c0-0.005,0-0.01,0-0.015
		c0.001-0.115,0.002-0.231,0.002-0.347c0-0.04,0-0.079,0-0.119c0-0.023,0-0.045,0-0.068c0-0.016,0-0.035,0-0.051
		c0-0.02,0-0.039,0-0.059c0-0.02,0-0.042,0-0.062c0-0.017,0-0.035,0-0.052c0-0.023,0-0.044-0.001-0.067c0-0.018,0-0.035-0.001-0.053
		c0-0.023,0-0.045-0.001-0.067c0-0.017,0-0.035-0.001-0.052c0-0.023-0.001-0.043-0.001-0.066c0-0.02-0.001-0.04-0.001-0.06
		c0-0.02-0.001-0.04-0.001-0.06c0-0.02-0.001-0.04-0.001-0.059c0-0.02-0.001-0.04-0.001-0.06c0-0.021-0.001-0.041-0.002-0.062
		c0-0.019-0.001-0.038-0.001-0.057c-0.001-0.02-0.001-0.041-0.002-0.061c-0.001-0.02-0.001-0.038-0.002-0.058
		c-0.001-0.021-0.001-0.042-0.002-0.063c-0.001-0.019-0.001-0.038-0.002-0.057c-0.001-0.021-0.001-0.041-0.002-0.062
		c-0.001-0.019-0.001-0.038-0.002-0.056c-0.001-0.023-0.002-0.044-0.003-0.067c-0.001-0.016-0.001-0.034-0.002-0.051
		c-0.001-0.023-0.002-0.044-0.003-0.067c-0.001-0.018-0.001-0.034-0.002-0.051c-0.001-0.023-0.002-0.046-0.003-0.069
		c-0.001-0.016-0.001-0.033-0.002-0.049c-0.001-0.023-0.002-0.045-0.003-0.068c-0.001-0.016-0.002-0.033-0.002-0.049
		c-0.001-0.024-0.002-0.048-0.004-0.072c-0.001-0.015-0.002-0.03-0.002-0.045c-0.001-0.026-0.003-0.049-0.004-0.075
		c-0.001-0.014-0.001-0.028-0.002-0.042c-0.001-0.027-0.003-0.053-0.005-0.08c-0.001-0.011-0.001-0.025-0.002-0.036
		c-0.001-0.027-0.003-0.054-0.005-0.081c-0.001-0.012-0.001-0.025-0.002-0.037c-0.002-0.028-0.004-0.054-0.005-0.082
		c-0.001-0.011-0.001-0.022-0.002-0.033c-0.002-0.028-0.004-0.058-0.006-0.086c-0.001-0.011-0.001-0.02-0.002-0.031
		c-0.002-0.029-0.004-0.058-0.006-0.087c-0.001-0.01-0.001-0.02-0.002-0.03c-0.002-0.029-0.004-0.058-0.006-0.087
		c-0.001-0.01-0.001-0.019-0.002-0.029c-0.002-0.03-0.005-0.06-0.007-0.091c-0.001-0.007-0.001-0.016-0.002-0.024
		c-0.002-0.032-0.005-0.062-0.007-0.093c-0.001-0.009-0.001-0.014-0.002-0.023c-0.003-0.033-0.005-0.064-0.008-0.096
		c0-0.005-0.001-0.013-0.001-0.018c-0.003-0.033-0.006-0.067-0.009-0.099c0-0.005-0.001-0.011-0.001-0.016
		c-0.003-0.035-0.006-0.069-0.009-0.104c0-0.002,0-0.005-0.001-0.007c-0.003-0.037-0.007-0.073-0.01-0.11c0-0.001,0-0.002,0-0.003
		C634.88,404.041,619.5,389.389,600.573,388.778"/>
	<path fill="#B3C5C7" d="M599.64,403.995v9.015c0.707-1.347,1.108-2.881,1.108-4.508
		C600.748,406.875,600.348,405.341,599.64,403.995"/>
	<path fill="#C70000" d="M599.64,585.041v12.825c26.107,0.147,47.531,20.061,50.07,45.534c0,0.003,0.001,0.007,0.001,0.01
		c0.005,0.048,0.01,0.098,0.014,0.146c0,0.003,0.001,0.008,0.001,0.011c0.005,0.047,0.009,0.093,0.013,0.14
		c0.001,0.008,0.001,0.013,0.002,0.021c0.004,0.045,0.008,0.09,0.012,0.135c0.001,0.008,0.001,0.015,0.002,0.023
		c0.004,0.045,0.008,0.086,0.012,0.131c0.001,0.01,0.002,0.02,0.003,0.03c0.004,0.042,0.007,0.084,0.011,0.126
		c0.001,0.011,0.002,0.021,0.003,0.033c0.003,0.042,0.007,0.08,0.01,0.122c0.001,0.013,0.002,0.026,0.003,0.039
		c0.003,0.04,0.006,0.079,0.009,0.119c0.001,0.013,0.002,0.026,0.003,0.039c0.003,0.039,0.006,0.078,0.009,0.117
		c0.001,0.015,0.002,0.031,0.003,0.046c0.003,0.037,0.005,0.074,0.008,0.111c0.001,0.015,0.002,0.034,0.003,0.048
		c0.003,0.037,0.005,0.072,0.008,0.109c0.001,0.016,0.002,0.034,0.003,0.051c0.002,0.035,0.005,0.072,0.007,0.107
		c0.001,0.016,0.002,0.036,0.004,0.053c0.002,0.034,0.005,0.07,0.007,0.104c0.001,0.02,0.002,0.04,0.004,0.059
		c0.002,0.034,0.004,0.066,0.006,0.099c0.001,0.021,0.002,0.039,0.004,0.06c0.002,0.032,0.004,0.066,0.005,0.098
		c0.001,0.023,0.002,0.042,0.004,0.065c0.002,0.03,0.003,0.064,0.005,0.094c0.001,0.021,0.002,0.044,0.004,0.066
		c0.002,0.032,0.003,0.062,0.005,0.094c0.001,0.021,0.002,0.047,0.003,0.068c0.002,0.032,0.003,0.059,0.004,0.091
		c0.001,0.023,0.002,0.045,0.003,0.068c0.001,0.03,0.003,0.061,0.004,0.091c0.001,0.025,0.002,0.047,0.003,0.072
		c0.001,0.029,0.003,0.058,0.004,0.087c0.001,0.025,0.002,0.05,0.003,0.075c0.001,0.029,0.002,0.057,0.003,0.086
		c0.001,0.025,0.002,0.051,0.003,0.075c0.001,0.029,0.002,0.056,0.003,0.085c0.001,0.025,0.002,0.05,0.002,0.075
		c0.001,0.029,0.002,0.057,0.003,0.086c0.001,0.025,0.002,0.052,0.002,0.077c0.001,0.027,0.002,0.057,0.002,0.084
		c0.001,0.026,0.001,0.051,0.002,0.078c0.001,0.029,0.001,0.054,0.002,0.083c0.001,0.027,0.001,0.054,0.002,0.081
		c0,0.026,0.001,0.055,0.002,0.08c0.001,0.028,0.001,0.056,0.002,0.085c0,0.026,0.001,0.05,0.001,0.075
		c0.001,0.032,0.001,0.062,0.002,0.093c0,0.022,0.001,0.046,0.001,0.068c0,0.032,0.001,0.06,0.001,0.092
		c0,0.022,0.001,0.048,0.001,0.07c0,0.028,0.001,0.061,0.001,0.089c0,0.024,0,0.05,0.001,0.074c0,0.03,0,0.06,0.001,0.09
		c0,0.024,0,0.047,0.001,0.071c0,0.032,0,0.063,0,0.095c0,0.022,0,0.045,0,0.068c0,0.053,0,0.108,0,0.161l0,0l0,0
		c0,0.082,0,0.165-0.001,0.247c0,0.026,0,0.054,0,0.08c0,0.015,0,0.033,0,0.049c0,0.037,0,0.077-0.001,0.114
		c0,0.022-0.001,0.046-0.001,0.068c0,0.031-0.001,0.065-0.001,0.095c0,0.022-0.001,0.044-0.001,0.066
		c0,0.032-0.001,0.065-0.001,0.097c0,0.026-0.001,0.053-0.001,0.078c0,0.027-0.001,0.057-0.001,0.084
		c-0.001,0.034-0.001,0.071-0.002,0.105c0,0.019-0.001,0.038-0.001,0.057c-0.001,0.039-0.002,0.074-0.003,0.113
		c0,0.015-0.001,0.034-0.001,0.049c-0.001,0.034-0.002,0.068-0.003,0.102c0,0.02-0.001,0.041-0.002,0.061
		c-0.001,0.031-0.002,0.059-0.003,0.09c-0.001,0.025-0.001,0.048-0.002,0.073c-0.001,0.027-0.002,0.051-0.003,0.078
		c-0.001,0.029-0.002,0.057-0.003,0.085c-0.001,0.024-0.002,0.047-0.003,0.07c-0.001,0.03-0.002,0.061-0.003,0.091
		c-0.001,0.024-0.002,0.043-0.003,0.067c-0.001,0.032-0.002,0.064-0.004,0.096c-0.001,0.024-0.002,0.045-0.003,0.069
		c-0.001,0.03-0.003,0.061-0.004,0.091c-0.001,0.032-0.003,0.063-0.004,0.095c-0.001,0.022-0.002,0.044-0.003,0.066
		c-0.002,0.034-0.003,0.07-0.005,0.104c-0.001,0.02-0.002,0.037-0.003,0.057c-0.002,0.035-0.004,0.074-0.006,0.109
		c-0.001,0.018-0.002,0.034-0.003,0.052c-0.002,0.035-0.004,0.074-0.006,0.11c-0.001,0.018-0.002,0.033-0.003,0.051
		c-0.002,0.039-0.005,0.078-0.007,0.117c-0.001,0.015-0.002,0.029-0.003,0.044c-0.002,0.039-0.005,0.078-0.007,0.116
		c-0.001,0.015-0.002,0.03-0.003,0.045c-0.003,0.04-0.005,0.077-0.008,0.118c-0.001,0.015-0.002,0.028-0.003,0.043
		c-0.003,0.04-0.005,0.081-0.008,0.121c-0.001,0.013-0.002,0.026-0.003,0.039c-0.003,0.044-0.006,0.085-0.009,0.129
		c-0.001,0.01-0.002,0.021-0.002,0.031c-0.003,0.044-0.006,0.086-0.01,0.129c-0.001,0.012-0.001,0.019-0.002,0.031
		c-0.003,0.044-0.007,0.09-0.01,0.134c-0.001,0.008-0.001,0.018-0.002,0.026c-0.004,0.045-0.007,0.092-0.011,0.137
		c0,0.007-0.001,0.016-0.002,0.022c-0.004,0.048-0.008,0.097-0.012,0.146c0,0.003-0.001,0.01-0.001,0.013
		c-0.004,0.048-0.008,0.098-0.013,0.146c0,0.003-0.001,0.01-0.001,0.014c-0.004,0.05-0.009,0.102-0.014,0.152
		c0,0.002,0,0.005-0.001,0.007c-0.005,0.05-0.009,0.099-0.014,0.149c0,0.003-0.001,0.008-0.001,0.011
		c-0.005,0.052-0.01,0.104-0.015,0.156c0,0.002,0,0.001,0,0.003c-0.005,0.052-0.01,0.105-0.016,0.157l0,0.002
		c-2.573,25.438-23.981,45.31-50.062,45.457v12.824c34.846-0.159,63.146-28.557,63.146-63.438
		C662.786,613.596,634.487,585.2,599.64,585.041"/>
	<path fill="#4FA7B5" d="M649.718,653.477c-0.005,0.053-0.01,0.104-0.016,0.157C649.708,653.582,649.713,653.529,649.718,653.477
		 M649.733,653.319c-0.005,0.051-0.01,0.104-0.015,0.156C649.723,653.423,649.728,653.37,649.733,653.319 M649.748,653.159
		c-0.005,0.05-0.009,0.099-0.014,0.149C649.739,653.258,649.744,653.209,649.748,653.159 M649.762,653
		c-0.005,0.052-0.009,0.101-0.014,0.152C649.753,653.102,649.758,653.05,649.762,653 M649.776,652.84
		c-0.004,0.05-0.008,0.096-0.013,0.146C649.768,652.938,649.772,652.889,649.776,652.84 M649.79,652.681
		c-0.004,0.05-0.008,0.096-0.012,0.146C649.782,652.779,649.786,652.73,649.79,652.681 M649.803,652.522
		c-0.004,0.047-0.007,0.091-0.011,0.137C649.795,652.614,649.799,652.567,649.803,652.522 M649.815,652.362
		c-0.003,0.043-0.007,0.09-0.01,0.134C649.808,652.452,649.812,652.406,649.815,652.362 M649.827,652.202
		c-0.003,0.043-0.006,0.086-0.01,0.129C649.821,652.288,649.824,652.245,649.827,652.202 M649.838,652.042
		c-0.003,0.042-0.006,0.087-0.009,0.129C649.832,652.127,649.835,652.086,649.838,652.042 M649.849,651.882
		c-0.003,0.04-0.005,0.081-0.008,0.121C649.844,651.963,649.846,651.922,649.849,651.882 M649.859,651.721
		c-0.002,0.039-0.005,0.079-0.008,0.118C649.854,651.799,649.857,651.762,649.859,651.721 M649.87,651.56
		c-0.002,0.039-0.005,0.078-0.007,0.116C649.865,651.638,649.867,651.599,649.87,651.56 M649.879,651.4
		c-0.002,0.039-0.005,0.078-0.007,0.117C649.874,651.478,649.877,651.438,649.879,651.4 M649.888,651.239
		c-0.002,0.035-0.004,0.074-0.006,0.11C649.884,651.313,649.886,651.274,649.888,651.239 M649.896,651.077
		c-0.002,0.035-0.004,0.074-0.006,0.109C649.892,651.151,649.894,651.113,649.896,651.077 M649.904,650.916
		c-0.002,0.034-0.003,0.07-0.005,0.104C649.901,650.986,649.902,650.95,649.904,650.916 M649.911,650.755
		c-0.001,0.032-0.003,0.063-0.004,0.095C649.909,650.819,649.91,650.787,649.911,650.755 M649.918,650.595
		c-0.001,0.023-0.002,0.045-0.003,0.069C649.916,650.641,649.917,650.619,649.918,650.595 M649.925,650.432
		c-0.001,0.022-0.002,0.045-0.003,0.067C649.923,650.475,649.924,650.456,649.925,650.432 M649.931,650.271
		c-0.001,0.024-0.002,0.047-0.003,0.07C649.929,650.317,649.93,650.294,649.931,650.271 M649.936,650.108
		c-0.001,0.025-0.002,0.052-0.003,0.078C649.934,650.158,649.935,650.135,649.936,650.108 M649.941,649.945
		c-0.001,0.031-0.002,0.059-0.003,0.09C649.939,650.004,649.94,649.975,649.941,649.945 M649.945,649.782
		c-0.001,0.034-0.002,0.068-0.003,0.102C649.943,649.85,649.944,649.816,649.945,649.782 M649.949,649.62
		c-0.001,0.039-0.002,0.074-0.003,0.113C649.947,649.694,649.948,649.659,649.949,649.62 M649.953,649.458
		c-0.001,0.036-0.001,0.07-0.002,0.105C649.951,649.529,649.952,649.491,649.953,649.458 M649.955,649.295
		c0,0.027-0.001,0.051-0.001,0.078C649.954,649.348,649.955,649.321,649.955,649.295 M649.958,649.132
		c0,0.022-0.001,0.044-0.001,0.066C649.957,649.176,649.957,649.154,649.958,649.132 M649.959,648.969
		c0,0.024-0.001,0.044-0.001,0.068C649.959,649.015,649.959,648.991,649.959,648.969 M649.961,648.806c0,0.017,0,0.032,0,0.049
		C649.96,648.84,649.961,648.821,649.961,648.806 M649.962,648.479c0,0.083,0,0.164-0.001,0.247
		C649.961,648.644,649.962,648.561,649.962,648.479L649.962,648.479 M649.961,648.25c0,0.023,0,0.044,0,0.068
		C649.961,648.295,649.961,648.272,649.961,648.25 M649.96,648.084c0,0.023,0,0.047,0.001,0.071
		C649.961,648.131,649.96,648.108,649.96,648.084 M649.959,647.92c0,0.025,0,0.049,0.001,0.074
		C649.959,647.97,649.959,647.944,649.959,647.92 M649.957,647.761c0,0.023,0.001,0.047,0.001,0.07
		C649.957,647.809,649.957,647.783,649.957,647.761 M649.954,647.601c0,0.022,0.001,0.047,0.001,0.068
		C649.955,647.647,649.955,647.623,649.954,647.601 M649.951,647.432c0,0.025,0.001,0.051,0.001,0.075
		C649.952,647.482,649.952,647.458,649.951,647.432 M649.948,647.267c0,0.027,0.001,0.054,0.002,0.08
		C649.949,647.322,649.948,647.293,649.948,647.267 M649.943,647.103c0.001,0.028,0.001,0.055,0.002,0.083
		C649.945,647.157,649.944,647.132,649.943,647.103 M649.939,646.942c0.001,0.028,0.002,0.056,0.002,0.084
		C649.94,646.999,649.94,646.969,649.939,646.942 M649.934,646.779c0.001,0.028,0.002,0.058,0.003,0.086
		C649.936,646.836,649.935,646.808,649.934,646.779 M649.928,646.619c0.001,0.028,0.002,0.057,0.003,0.085
		C649.93,646.676,649.929,646.648,649.928,646.619 M649.922,646.458c0.001,0.03,0.002,0.056,0.003,0.086
		C649.924,646.515,649.923,646.486,649.922,646.458 M649.915,646.296c0.001,0.028,0.003,0.058,0.004,0.087
		C649.918,646.354,649.917,646.325,649.915,646.296 M649.908,646.133c0.001,0.03,0.003,0.062,0.004,0.091
		C649.911,646.194,649.91,646.163,649.908,646.133 M649.901,645.973c0.002,0.031,0.003,0.06,0.004,0.091
		C649.904,646.032,649.902,646.005,649.901,645.973 M649.893,645.811c0.002,0.031,0.003,0.063,0.005,0.094
		C649.896,645.873,649.894,645.843,649.893,645.811 M649.884,645.651c0.002,0.031,0.003,0.063,0.005,0.094
		C649.887,645.715,649.886,645.681,649.884,645.651 M649.875,645.489c0.002,0.031,0.004,0.067,0.005,0.098
		C649.879,645.555,649.877,645.521,649.875,645.489 M649.865,645.329c0.002,0.033,0.004,0.066,0.006,0.099
		C649.869,645.395,649.867,645.362,649.865,645.329 M649.855,645.166c0.002,0.035,0.004,0.069,0.007,0.104
		C649.859,645.236,649.857,645.2,649.855,645.166 M649.844,645.006c0.002,0.036,0.005,0.071,0.007,0.107
		C649.849,645.078,649.847,645.041,649.844,645.006 M649.833,644.846c0.003,0.038,0.005,0.071,0.008,0.109
		C649.838,644.918,649.836,644.882,649.833,644.846 M649.822,644.686c0.003,0.038,0.005,0.073,0.008,0.111
		C649.827,644.76,649.824,644.723,649.822,644.686 M649.809,644.523c0.003,0.039,0.006,0.078,0.009,0.117
		C649.815,644.602,649.812,644.562,649.809,644.523 M649.797,644.366c0.003,0.039,0.006,0.08,0.009,0.119
		C649.803,644.445,649.8,644.406,649.797,644.366 M649.784,644.205c0.003,0.041,0.007,0.081,0.01,0.122
		C649.79,644.285,649.787,644.247,649.784,644.205 M649.77,644.046c0.004,0.041,0.007,0.085,0.011,0.126
		C649.777,644.13,649.774,644.088,649.77,644.046 M649.756,643.885c0.004,0.044,0.008,0.087,0.012,0.131
		C649.764,643.971,649.76,643.93,649.756,643.885 M649.742,643.728c0.004,0.044,0.008,0.091,0.012,0.135
		C649.75,643.817,649.746,643.773,649.742,643.728 M649.726,643.566c0.004,0.046,0.009,0.094,0.013,0.14
		C649.735,643.659,649.731,643.613,649.726,643.566 M649.711,643.409c0.005,0.049,0.01,0.097,0.014,0.146
		C649.721,643.507,649.716,643.458,649.711,643.409 M599.64,597.865v20.421c1.021,1.867,1.602,4.01,1.602,6.288
		c0,2.278-0.581,4.421-1.602,6.288v68.232c26.081-0.147,47.489-20.019,50.062-45.457c-2.574,25.434-23.981,45.3-50.059,45.45
		c3.585-2.957,6.687-6.653,9.534-10.128c3.04-3.71,5.996-7.444,8.627-11.461c2.722-4.157,5.15-8.517,7.131-13.078
		c3.783-8.712,5.994-18.424,4.383-27.911c-0.745-4.385-2.317-8.558-4.559-12.394c-2.059-3.522-4.495-6.829-7.06-9.996
		c-2.774-3.426-5.742-6.704-8.914-9.764c-2.417-2.331-4.978-4.58-7.78-6.448c25.484,0.822,46.212,20.468,48.705,45.493
		C647.171,617.926,625.747,598.012,599.64,597.865"/>
	<path fill="#9F0000" d="M649.702,653.634l0,0.002L649.702,653.634 M649.718,653.474c0,0.002,0,0.001,0,0.003
		C649.718,653.475,649.718,653.476,649.718,653.474 M649.734,653.308c0,0.003-0.001,0.008-0.001,0.011
		C649.734,653.316,649.734,653.311,649.734,653.308 M649.749,653.152c0,0.003,0,0.003-0.001,0.007
		C649.748,653.157,649.749,653.154,649.749,653.152 M649.764,652.986c0,0.005-0.001,0.009-0.001,0.014
		C649.763,652.997,649.763,652.99,649.764,652.986 M649.777,652.827c0,0.005-0.001,0.008-0.001,0.013
		C649.777,652.837,649.777,652.83,649.777,652.827 M649.792,652.659c0,0.007-0.001,0.016-0.002,0.022
		C649.79,652.675,649.791,652.666,649.792,652.659 M649.805,652.496c-0.001,0.01-0.001,0.016-0.002,0.026
		C649.803,652.514,649.804,652.504,649.805,652.496 M649.817,652.331c-0.001,0.01-0.001,0.021-0.002,0.031
		C649.816,652.351,649.816,652.343,649.817,652.331 M649.829,652.171c-0.001,0.01-0.002,0.021-0.002,0.031
		C649.828,652.192,649.828,652.181,649.829,652.171 M649.841,652.003c-0.001,0.013-0.002,0.026-0.003,0.039
		C649.839,652.029,649.84,652.016,649.841,652.003 M649.852,651.839c-0.001,0.013-0.002,0.029-0.003,0.043
		C649.85,651.867,649.851,651.854,649.852,651.839 M649.862,651.676c-0.001,0.015-0.002,0.03-0.003,0.045
		C649.86,651.706,649.861,651.691,649.862,651.676 M649.872,651.516c-0.001,0.013-0.002,0.031-0.003,0.044
		C649.87,651.545,649.871,651.531,649.872,651.516 M649.882,651.348c-0.001,0.018-0.002,0.033-0.003,0.051
		C649.88,651.381,649.881,651.367,649.882,651.348 M649.891,651.186c-0.001,0.019-0.002,0.034-0.003,0.052
		C649.889,651.22,649.89,651.205,649.891,651.186 M649.899,651.02c-0.001,0.02-0.002,0.037-0.003,0.057
		C649.897,651.057,649.898,651.04,649.899,651.02 M649.907,650.851c-0.001,0.022-0.002,0.044-0.003,0.066
		C649.905,650.895,649.906,650.872,649.907,650.851 M649.915,650.664c-0.001,0.03-0.003,0.061-0.004,0.091
		C649.913,650.725,649.914,650.695,649.915,650.664 M649.922,650.499c-0.001,0.031-0.002,0.066-0.004,0.096
		C649.92,650.563,649.921,650.531,649.922,650.499 M649.928,650.341c-0.001,0.031-0.002,0.061-0.003,0.091
		C649.926,650.402,649.927,650.371,649.928,650.341 M649.933,650.185c-0.001,0.027-0.002,0.058-0.003,0.085
		C649.932,650.242,649.932,650.214,649.933,650.185 M649.938,650.035c-0.001,0.024-0.001,0.049-0.002,0.073
		C649.937,650.082,649.938,650.06,649.938,650.035 M649.943,649.884c0,0.02-0.001,0.04-0.002,0.061
		C649.942,649.925,649.942,649.904,649.943,649.884 M649.946,649.733c0,0.015-0.001,0.034-0.001,0.049
		C649.946,649.767,649.946,649.748,649.946,649.733 M649.95,649.563c0,0.019-0.001,0.038-0.001,0.057
		C649.949,649.601,649.95,649.581,649.95,649.563 M649.954,649.373c-0.001,0.029-0.001,0.055-0.001,0.084
		C649.953,649.43,649.953,649.4,649.954,649.373 M649.957,649.198c0,0.032-0.001,0.065-0.001,0.097
		C649.956,649.263,649.956,649.23,649.957,649.198 M649.959,649.037c0,0.032-0.001,0.063-0.001,0.095
		C649.958,649.102,649.958,649.068,649.959,649.037 M649.96,648.855c0,0.039,0,0.075-0.001,0.114
		C649.96,648.932,649.96,648.892,649.96,648.855 M649.961,648.726c0,0.027,0,0.052,0,0.08
		C649.961,648.781,649.961,648.752,649.961,648.726 M649.961,648.318c0,0.055,0,0.107,0,0.161l0,0
		C649.962,648.425,649.962,648.371,649.961,648.318 M649.961,648.155c0,0.031,0,0.064,0,0.095
		C649.961,648.218,649.961,648.187,649.961,648.155 M649.959,647.994c0,0.031,0,0.06,0.001,0.09
		C649.96,648.054,649.96,648.024,649.959,647.994 M649.958,647.831c0,0.031,0.001,0.058,0.001,0.089
		C649.958,647.892,649.958,647.859,649.958,647.831 M649.955,647.669c0,0.032,0.001,0.06,0.001,0.092
		C649.956,647.73,649.956,647.701,649.955,647.669 M649.953,647.508c0.001,0.031,0.001,0.063,0.002,0.093
		C649.954,647.569,649.953,647.539,649.953,647.508 M649.949,647.348c0.001,0.029,0.001,0.056,0.002,0.085
		C649.95,647.404,649.95,647.376,649.949,647.348 M649.946,647.186c0.001,0.027,0.001,0.054,0.002,0.081
		C649.947,647.241,649.946,647.213,649.946,647.186 M649.941,647.026c0.001,0.025,0.001,0.052,0.002,0.078
		C649.943,647.077,649.942,647.052,649.941,647.026 M649.936,646.865c0.001,0.025,0.002,0.051,0.002,0.077
		C649.938,646.917,649.937,646.89,649.936,646.865 M649.931,646.704c0.001,0.025,0.002,0.05,0.002,0.075
		C649.933,646.754,649.932,646.729,649.931,646.704 M649.925,646.544c0.001,0.025,0.002,0.05,0.003,0.075
		C649.927,646.594,649.926,646.569,649.925,646.544 M649.919,646.383c0.001,0.025,0.002,0.05,0.003,0.075
		C649.921,646.433,649.92,646.408,649.919,646.383 M649.912,646.224c0.001,0.024,0.002,0.048,0.003,0.072
		C649.914,646.272,649.913,646.249,649.912,646.224 M649.905,646.064c0.001,0.022,0.002,0.047,0.003,0.068
		C649.907,646.11,649.906,646.087,649.905,646.064 M649.897,645.905c0.001,0.022,0.002,0.046,0.003,0.068
		C649.9,645.951,649.898,645.926,649.897,645.905 M649.889,645.745c0.001,0.022,0.002,0.044,0.004,0.066
		C649.891,645.789,649.89,645.767,649.889,645.745 M649.88,645.586c0.001,0.022,0.002,0.043,0.004,0.065
		C649.883,645.628,649.882,645.61,649.88,645.586 M649.871,645.428c0.001,0.02,0.002,0.04,0.004,0.06
		C649.874,645.467,649.873,645.45,649.871,645.428 M649.862,645.27c0.001,0.02,0.002,0.039,0.004,0.059
		C649.864,645.309,649.863,645.289,649.862,645.27 M649.851,645.113c0.001,0.018,0.002,0.034,0.004,0.053
		C649.854,645.149,649.853,645.129,649.851,645.113 M649.841,644.955c0.001,0.017,0.002,0.034,0.003,0.051
		C649.843,644.989,649.842,644.971,649.841,644.955 M649.83,644.797c0.001,0.017,0.002,0.032,0.003,0.048
		C649.832,644.831,649.831,644.812,649.83,644.797 M649.818,644.64c0.001,0.015,0.002,0.03,0.003,0.046
		C649.821,644.671,649.819,644.655,649.818,644.64 M649.806,644.485c0.001,0.013,0.002,0.025,0.003,0.039
		C649.808,644.51,649.807,644.498,649.806,644.485 M649.794,644.327c0.001,0.012,0.002,0.027,0.003,0.039
		C649.796,644.353,649.795,644.34,649.794,644.327 M649.781,644.172c0.001,0.01,0.002,0.023,0.003,0.033
		C649.783,644.193,649.782,644.183,649.781,644.172 M649.768,644.016c0.001,0.01,0.002,0.02,0.003,0.03
		C649.769,644.036,649.768,644.026,649.768,644.016 M649.754,643.862c0.001,0.007,0.001,0.016,0.002,0.023
		C649.755,643.877,649.755,643.87,649.754,643.862 M649.74,643.706c0.001,0.007,0.001,0.015,0.002,0.021
		C649.741,643.719,649.74,643.714,649.74,643.706 M649.725,643.555c0,0.005,0.001,0.006,0.001,0.011
		C649.726,643.563,649.725,643.558,649.725,643.555 M649.71,643.399c0,0.003,0.001,0.007,0.001,0.01
		C649.711,643.406,649.71,643.403,649.71,643.399"/>
	<path fill="#3F8691" d="M601.005,597.906c2.802,1.869,5.363,4.117,7.78,6.448c3.173,3.06,6.14,6.338,8.914,9.764
		c2.565,3.167,5.001,6.474,7.06,9.996c2.242,3.835,3.814,8.009,4.559,12.394c1.611,9.487-0.6,19.2-4.383,27.911
		c-1.98,4.56-4.409,8.92-7.131,13.078c-2.63,4.017-5.587,7.752-8.627,11.461c-2.847,3.474-5.949,7.17-9.534,10.128
		c26.078-0.15,47.485-20.016,50.059-45.45l0-0.002c0.005-0.053,0.01-0.104,0.016-0.157c0-0.002,0-0.001,0-0.003
		c0.005-0.051,0.01-0.104,0.015-0.156c0-0.003,0.001-0.008,0.001-0.011c0.005-0.05,0.009-0.099,0.014-0.149
		c0-0.003,0-0.003,0.001-0.007c0.005-0.052,0.009-0.101,0.014-0.152c0-0.005,0.001-0.009,0.001-0.014
		c0.004-0.05,0.008-0.096,0.013-0.146c0-0.005,0.001-0.008,0.001-0.013c0.004-0.05,0.008-0.096,0.012-0.146
		c0-0.007,0.001-0.016,0.002-0.022c0.004-0.047,0.007-0.091,0.011-0.137c0.001-0.01,0.001-0.016,0.002-0.026
		c0.003-0.043,0.007-0.09,0.01-0.134c0.001-0.01,0.002-0.021,0.002-0.031c0.003-0.043,0.006-0.086,0.01-0.129
		c0.001-0.01,0.001-0.021,0.002-0.031c0.003-0.042,0.006-0.087,0.009-0.129c0.001-0.013,0.002-0.026,0.003-0.039
		c0.003-0.04,0.005-0.081,0.008-0.121c0.001-0.014,0.002-0.03,0.003-0.043c0.003-0.039,0.005-0.079,0.008-0.118
		c0.001-0.015,0.002-0.03,0.003-0.045c0.002-0.038,0.005-0.078,0.007-0.116c0.001-0.013,0.002-0.031,0.003-0.044
		c0.002-0.038,0.005-0.078,0.007-0.117c0.001-0.019,0.002-0.033,0.003-0.051c0.002-0.035,0.004-0.074,0.006-0.11
		c0.001-0.019,0.002-0.034,0.003-0.052c0.002-0.035,0.004-0.074,0.006-0.109c0.001-0.02,0.002-0.037,0.003-0.057
		c0.002-0.034,0.004-0.07,0.005-0.104c0.001-0.022,0.002-0.044,0.003-0.066c0.001-0.032,0.003-0.063,0.004-0.095
		c0.001-0.03,0.003-0.061,0.004-0.091c0.001-0.024,0.002-0.046,0.003-0.069c0.001-0.031,0.003-0.066,0.004-0.096
		c0.001-0.022,0.002-0.045,0.003-0.067c0.001-0.03,0.002-0.061,0.003-0.091c0.001-0.024,0.002-0.047,0.003-0.07
		c0.001-0.027,0.002-0.058,0.003-0.085c0.001-0.025,0.002-0.052,0.003-0.078c0.001-0.024,0.001-0.049,0.002-0.073
		c0.001-0.031,0.002-0.059,0.003-0.09c0.001-0.02,0.001-0.04,0.002-0.061c0.001-0.034,0.002-0.068,0.003-0.102
		c0-0.015,0.001-0.034,0.001-0.049c0.001-0.039,0.002-0.074,0.003-0.113c0-0.019,0.001-0.038,0.001-0.057
		c0.001-0.036,0.001-0.07,0.002-0.105c0-0.029,0.001-0.055,0.001-0.084c0-0.027,0.001-0.051,0.001-0.078
		c0-0.032,0.001-0.065,0.001-0.097c0-0.022,0.001-0.044,0.001-0.066c0-0.032,0.001-0.063,0.001-0.095c0-0.024,0-0.044,0.001-0.068
		c0-0.039,0-0.075,0.001-0.114c0-0.017,0-0.032,0-0.049c0-0.027,0-0.052,0-0.08c0-0.083,0.001-0.164,0.001-0.247
		c0-0.055,0-0.107,0-0.161c0-0.023,0-0.044,0-0.068c0-0.031,0-0.064,0-0.095c0-0.023,0-0.047-0.001-0.071c0-0.031,0-0.06-0.001-0.09
		c0-0.025,0-0.049-0.001-0.074c0-0.031-0.001-0.058-0.001-0.089c0-0.023-0.001-0.047-0.001-0.07c0-0.032-0.001-0.06-0.001-0.092
		c0-0.022-0.001-0.047-0.001-0.068c0-0.031-0.001-0.063-0.002-0.093c0-0.025-0.001-0.05-0.001-0.075
		c-0.001-0.029-0.001-0.056-0.002-0.085c-0.001-0.027-0.001-0.054-0.002-0.08c-0.001-0.027-0.001-0.054-0.002-0.081
		c-0.001-0.028-0.001-0.055-0.002-0.083c-0.001-0.026-0.001-0.052-0.002-0.078c-0.001-0.028-0.002-0.056-0.002-0.084
		c-0.001-0.026-0.002-0.051-0.002-0.077c-0.001-0.028-0.002-0.058-0.003-0.086c-0.001-0.025-0.002-0.05-0.002-0.075
		c-0.001-0.028-0.002-0.057-0.003-0.085c-0.001-0.025-0.002-0.05-0.003-0.075c-0.001-0.03-0.002-0.056-0.003-0.086
		c-0.001-0.025-0.002-0.05-0.003-0.075c-0.001-0.028-0.002-0.058-0.004-0.087c-0.001-0.024-0.002-0.048-0.003-0.072
		c-0.001-0.03-0.003-0.062-0.004-0.091c-0.001-0.022-0.002-0.047-0.003-0.068c-0.001-0.031-0.003-0.06-0.004-0.091
		c-0.001-0.022-0.002-0.046-0.003-0.068c-0.001-0.031-0.003-0.063-0.005-0.094c-0.001-0.022-0.002-0.044-0.004-0.066
		c-0.002-0.031-0.003-0.063-0.005-0.094c-0.001-0.022-0.002-0.043-0.004-0.065c-0.002-0.031-0.004-0.067-0.005-0.098
		c-0.001-0.02-0.002-0.04-0.004-0.06c-0.002-0.033-0.004-0.066-0.006-0.099c-0.001-0.02-0.002-0.039-0.004-0.059
		c-0.002-0.035-0.004-0.069-0.007-0.104c-0.001-0.019-0.002-0.035-0.004-0.053c-0.002-0.036-0.005-0.071-0.007-0.107
		c-0.001-0.017-0.002-0.034-0.003-0.051c-0.003-0.038-0.005-0.071-0.008-0.109c-0.001-0.017-0.002-0.032-0.003-0.048
		c-0.003-0.038-0.005-0.073-0.008-0.111c-0.001-0.015-0.002-0.031-0.003-0.046c-0.003-0.039-0.006-0.078-0.009-0.117
		c-0.001-0.013-0.002-0.025-0.003-0.039c-0.003-0.039-0.006-0.08-0.009-0.119c-0.001-0.012-0.002-0.027-0.003-0.039
		c-0.003-0.041-0.007-0.081-0.01-0.122c-0.001-0.01-0.002-0.023-0.003-0.033c-0.004-0.041-0.007-0.085-0.011-0.126
		c-0.001-0.01-0.002-0.02-0.003-0.03c-0.004-0.044-0.008-0.087-0.012-0.131c-0.001-0.007-0.001-0.016-0.002-0.023
		c-0.004-0.044-0.008-0.091-0.012-0.135c-0.001-0.007-0.001-0.015-0.002-0.021c-0.004-0.046-0.009-0.094-0.013-0.14
		c0-0.005-0.001-0.006-0.001-0.011c-0.005-0.049-0.009-0.097-0.014-0.146c0-0.003-0.001-0.007-0.001-0.01
		C647.216,618.374,626.489,598.728,601.005,597.906"/>
	<path fill="#CCCCCC" d="M781.07,1150c0.008,0,0.017,0,0.026,0l0,0C781.088,1150,781.079,1150,781.07,1150 M794.961,1139.47
		c-2.02,7.108-7.929,10.52-13.841,10.53C787.032,1149.992,792.94,1146.579,794.961,1139.47 M766.719,1137.804
		c0.001,0.006,0.001,0.01,0.002,0.015C766.72,1137.814,766.719,1137.81,766.719,1137.804 M766.653,1137.338
		c0.013,0.103,0.027,0.206,0.042,0.308C766.68,1137.543,766.666,1137.441,766.653,1137.338 M707.921,804.292L707.921,804.292
		l138.527,124.331c3.106,2.787,4.809,6.725,4.811,10.777c-0.002-4.051-1.705-7.989-4.811-10.777L707.921,804.292"/>
	<path fill="#B3C5C7" d="M599.64,618.286v12.576c1.021-1.867,1.602-4.01,1.602-6.288
		C601.242,622.296,600.661,620.153,599.64,618.286"/>
	<path fill="#004762" d="M707.921,804.292L707.921,804.292l-0.029,0.242l0,0v0l22.996,20.64c-0.363,3.602-0.755,7.202-1.218,10.793
		c-0.631,4.91-1.347,9.808-2.133,14.692c6.126,5.918,12.611,11.465,19.072,17.009c15.868,13.617,32.337,27.07,45.65,43.302
		c5.522,6.733,10.661,14.144,13.495,22.448c2.963,8.68,4.131,17.903,4.456,27.037c0.742,20.876-2.653,41.816-6.771,62.212
		c-3.959,19.611-9.036,38.963-13.385,58.486c-0.44,1.976-0.87,3.955-1.283,5.937c-0.217,1.038-0.429,2.077-0.635,3.118l-0.079,0.319
		l-0.033-0.617c-0.024-7.06-0.163-14.118-0.424-21.173c-0.514-13.858-1.505-27.696-2.934-41.49
		c-0.733-7.074-1.863-14.125-2.508-21.203c-0.542-5.951-0.768-11.935-1.247-17.892c-0.837-10.423-2.09-20.948-5.588-30.858
		c-1.705-4.828-3.944-9.463-6.718-13.77c-2.798-4.345-6.167-8.29-9.613-12.13c-7.245-8.073-15.18-15.513-23.455-22.519
		c-5.497-4.654-11.146-9.125-16.915-13.439c-2.082,9.084-4.279,18.144-6.507,27.186c-0.643,2.609-1.29,5.217-1.938,7.825
		l31.669,33.759c2.088,2.226,3.421,5.055,3.806,8.084l21,165.049l0,0c0.013,0.103,0.027,0.206,0.042,0.308
		c0.008,0.053,0.016,0.106,0.024,0.159c0.001,0.006,0.001,0.01,0.002,0.015c1.247,7.976,7.795,12.169,14.349,12.181
		c0.008,0,0.017,0,0.026,0c0.008,0,0.016,0,0.023,0c5.912-0.009,11.821-3.422,13.841-10.53l0,0l55.745-196.103
		c0.372-1.31,0.553-2.645,0.553-3.967c-0.002-4.051-1.705-7.989-4.811-10.777L707.921,804.292"/>
	<path fill="#A3A3A3" d="M707.622,804.292l-1.696,13.81c-0.278,3.094-0.563,6.16-0.857,9.208c0.007,0.008,0.015,0.016,0.023,0.024
		l2.8-22.799L707.622,804.292"/>
	<path fill="#9F0000" d="M705.925,818.102l-1.1,8.955c0.081,0.084,0.162,0.168,0.243,0.252
		C705.362,824.262,705.647,821.196,705.925,818.102"/>
	<path fill="#A3A3A3" d="M697.026,892.996c-0.461,3.047-0.932,6.064-1.412,9.049l-1.433,11.67l15.933,16.984l0.062-0.253
		l-15.696-16.731L697.026,892.996"/>
	<path fill="#9F0000" d="M698.191,881.064l-2.569,20.911c0-0.003,0.001-0.004,0.001-0.006l-0.009,0.076
		c0.479-2.985,0.95-6.002,1.412-9.049l1.443-11.747C698.376,881.187,698.283,881.126,698.191,881.064"/>
	<path fill="#00394E" d="M698.469,881.249l-1.443,11.747l-2.545,20.719l15.696,16.731l0,0c0.647-2.608,1.295-5.216,1.938-7.825
		c2.228-9.042,4.425-18.102,6.507-27.186C712.044,890.516,705.31,885.8,698.469,881.249 M707.891,804.534l-2.8,22.799
		c6.903,7.172,13.58,14.566,20.653,21.572c0.594,0.588,1.192,1.173,1.793,1.753c0.786-4.884,1.502-9.782,2.133-14.692
		c0.462-3.591,0.854-7.191,1.218-10.793L707.891,804.534"/>
	<path fill="#C82929" d="M700.973,823.128l-6.793,55.298c1.341,0.873,2.678,1.753,4.011,2.638l6.634-54.007
		c-0.695-0.721-1.393-1.44-2.093-2.156C702.149,824.308,701.56,823.719,700.973,823.128"/>
	<path fill="#296277" d="M727.537,850.659c-2.42,15.027-5.513,29.934-8.915,44.776c5.769,4.314,11.418,8.785,16.915,13.439
		c8.274,7.006,16.21,14.446,23.455,22.519c3.446,3.84,6.814,7.786,9.613,12.13c2.774,4.307,5.014,8.942,6.718,13.77
		c3.499,9.91,4.751,20.435,5.588,30.858c0.479,5.957,0.705,11.941,1.247,17.892c0.645,7.078,1.775,14.129,2.508,21.203
		c1.429,13.794,2.42,27.632,2.934,41.49c0.261,7.055,0.401,14.113,0.424,21.173l0.033,0.617l0.079-0.319
		c0.206-1.04,0.418-2.079,0.635-3.118c0.412-1.982,0.842-3.961,1.283-5.937c4.348-19.523,9.425-38.875,13.385-58.486
		c4.118-20.396,7.513-41.337,6.771-62.212c-0.325-9.134-1.492-18.357-4.456-27.037c-2.834-8.304-7.972-15.715-13.495-22.448
		c-13.313-16.232-29.782-29.686-45.65-43.302C740.148,862.124,733.663,856.577,727.537,850.659"/>
	<path fill="#ABABAB" d="M705.068,827.31c-0.032,0.328-0.063,0.655-0.095,0.983l0.118-0.959
		C705.083,827.326,705.076,827.318,705.068,827.31"/>
	<path fill="#A82929" d="M704.825,827.058l-6.634,54.007c0.092,0.061,0.185,0.123,0.277,0.185l6.505-52.956
		c0.032-0.328,0.063-0.654,0.095-0.983C704.987,827.226,704.906,827.141,704.825,827.058"/>
	<path fill="#295667" d="M705.091,827.334l-0.118,0.959l-6.505,52.956c6.842,4.551,13.575,9.267,20.153,14.186
		c3.401-14.841,6.495-29.749,8.915-44.776c-0.601-0.581-1.199-1.165-1.793-1.753C718.671,841.9,711.994,834.506,705.091,827.334"/>
	<path fill="#C82929" d="M599.64,50.021v91.717c5.087-18.314,10.728-36.477,16.957-54.442c0.604-1.741,1.231-3.478,1.847-5.218
		c-2.246-8.131-4.354-15.629-6.283-22.403c-0.545-1.913-1.41-3.54-2.501-4.884c-0.001-0.001-0.001-0.001-0.002-0.002
		c-0.012-0.015-0.024-0.029-0.036-0.043c-0.01-0.013-0.021-0.025-0.031-0.038c-0.002-0.002-0.004-0.004-0.005-0.006
		c-2.11-2.547-5.039-4.052-8.121-4.523c-0.605-0.092-1.214-0.143-1.825-0.155"/>
</g>
</svg>
