<?xml version="1.0" encoding="utf-8"?>
<!--Designed by Vexels.com - 2018 All Rights Reserved - https://vexels.com/terms-and-conditions/-->
<svg version="1.1" id="Layer_1" xmlns="http://www.w3.org/2000/svg" xmlns:xlink="http://www.w3.org/1999/xlink" x="0px" y="0px"
	 viewBox="0 0 1200 1200" enable-background="new 0 0 1200 1200" xml:space="preserve">
<g>
	<path fill="#F90000" d="M438.832,753.64c-4.607,2.07-53.403,99.427-72.233,134.475c-5.521,10.276-4.413,22.834,2.807,31.996
		l56.114,51.672c11.992,15.217,35.185,14.819,46.648-0.8l0.144-0.198c6.437-8.925,5.313-21.143-1.893-29.46l-0.295-0.344
		c-21.623-25.297-3.21-64.386,30.069-64.388l51.245-0.004L438.832,753.64"/>
	<path fill="#FA3333" d="M449.591,776.493c-6.096,7.31-11.815,14.941-17.208,22.771c-8.68,12.602-16.586,25.772-23.365,39.496
		c-6.622,13.405-12.295,27.453-15.557,42.078c-2.719,12.193-3.832,25.201-0.466,37.383c1.41,5.101,4.263,9.655,7.567,13.742
		c3.751,4.64,8.178,8.796,13.095,12.179c4.828,3.322,17.458,13.101,25.103,13.101c2.416,0,4.334-0.976,5.35-3.443
		c2.694-6.536-5.975-23.559-8.403-29.903c-3.153-8.239-7.874-15.9-9.939-24.542c-0.954-3.992-1.154-8.142-1.059-12.235
		c0.079-3.403,0.47-6.813,1.403-10.094c1.856-6.529,5.891-12.007,10.448-16.924c5.794-6.252,12.504-11.67,19.16-16.971
		c6.649-5.295,13.441-10.407,20.067-15.731c1.204-0.968,2.4-1.945,3.586-2.932c-2.755-3.737-5.487-7.597-8.176-11.568
		c-2.965-4.016-7.81-10.658-9.645-13.639C458.439,794.204,450.968,779.258,449.591,776.493"/>
	<path fill="#F90000" d="M761.168,753.64c4.607,2.07,53.402,99.427,72.232,134.475c5.521,10.276,4.413,22.834-2.807,31.996
		l-56.114,51.672c-11.992,15.217-35.185,14.819-46.648-0.8l-0.143-0.198c-6.437-8.925-5.313-21.143,1.893-29.46l0.295-0.344
		c21.624-25.297,3.211-64.386-30.069-64.388l-51.244-0.004L761.168,753.64"/>
	<path fill="#F90000" d="M695.606,226.316c-29.235,17.67-62.165,26.532-95.095,26.532c-32.93,0-65.86-8.862-95.096-26.532
		c30.279-66.315,60.345-123.688,78.336-165.292c6.345-14.698,27.174-14.698,33.519,0
		C635.261,102.628,665.327,160.001,695.606,226.316"/>
	<path fill="#FA3333" d="M593.457,75.034c-2.422,0-4.753,1.487-5.83,3.832l-0.022,0.047c-11.264,24.508-24.279,48.188-34.844,73.021
		c-4.619,10.857-8.521,21.961-12.318,33.125c-3.405,10.011-6.796,20.58-6.777,31.264c0.008,4.772,0.752,9.914,3.449,13.963
		c2.084,3.128,5.238,5.213,8.818,5.213c0.889,0,1.805-0.129,2.737-0.402c4.646-1.363,8.103-5.302,10.192-9.508
		c2.903-5.845,5.215-11.97,7.284-18.153c2.116-6.322,3.974-12.727,5.905-19.108c1.985-6.556,4.196-13.03,6.332-19.536
		c4.376-13.324,8.366-26.771,12.118-40.284c1.882-6.778,3.706-13.573,5.495-20.377c1.758-6.687,3.402-13.394,5.597-19.955
		c0.255-0.761,0.515-1.521,0.778-2.28c0.722-2.075,0.355-4.386-1.019-6.1c-1.524-1.9-3.418-3.316-5.495-4.248
		C595.076,75.198,594.261,75.034,593.457,75.034"/>
	<path fill="#00597B" d="M794.182,597.621c-2.329,125.669-51.644,208.449-99.914,259.638
		c-11.619,12.315-27.736,19.329-44.683,19.329h-98.147c-16.92,0-33.064-7.014-44.683-19.329
		c-48.27-51.189-97.585-133.969-99.914-259.638c-2.169-117.343,40.721-240.389,86.662-344.801
		c3.963-8.968,7.925-17.83,11.914-26.505c29.235,17.67,62.165,26.532,95.096,26.532c32.93,0,65.86-8.862,95.095-26.532
		c3.989,8.674,7.951,17.536,11.913,26.505C753.461,357.233,796.35,480.279,794.182,597.621"/>
	<polyline fill="#F90000" points="657.849,899.633 551.428,899.633 551.428,876.596 657.849,876.596 657.849,899.633 	"/>
	<path fill="#FF4200" d="M657.849,899.633c-38.213,0-53.21,0-53.21,0s-14.997,0-53.21,0c-38.213,0-88.826,146.445-66.016,164.264
		c14.116,11.028,60.045-39.08,60.045-39.08C538.659,1082.036,604.638,1150,604.638,1150s65.979-67.964,59.182-125.183
		c0,0,45.929,50.108,60.045,39.08C746.675,1046.078,696.062,899.633,657.849,899.633"/>
	<path fill="#FB6808" d="M640.695,899.633c-25.894,0-36.056,0-36.056,0s-10.162,0-36.056,0c-25.894,0-60.19,99.233-44.734,111.307
		c9.565,7.473,40.687-26.481,40.687-26.481c-4.606,38.772,40.102,84.825,40.102,84.825s44.708-46.053,40.102-84.825
		c0,0,31.122,33.954,40.687,26.481C700.884,998.866,666.588,899.633,640.695,899.633"/>
	<path fill="#FDDA20" d="M627.663,899.633c-16.535,0-23.024,0-23.024,0s-6.489,0-23.024,0c-16.535,0-38.435,63.367-28.566,71.077
		c6.108,4.772,25.982-16.91,25.982-16.91c-2.941,24.759,25.608,54.167,25.608,54.167s28.549-29.408,25.608-54.167
		c0,0,19.874,21.682,25.982,16.91C666.098,963,644.198,899.633,627.663,899.633"/>
	<path fill="#6BA220" d="M707.52,252.821c-65.699,40.132-148.318,40.132-214.018,0l11.245-26.906l0.669,0.401
		c29.235,17.67,62.165,26.532,95.096,26.532c32.93,0,65.86-8.862,95.095-26.532l0.669-0.401L707.52,252.821"/>
	<path fill="#6BA220" d="M768.738,737.364c-103.801,63.378-232.657,63.377-336.456-0.003c0,0-4.2-7.865-9.469-26.306
		c-4.688-16.407-6.312-27.731-6.312-27.731c109.797,74.374,261.769,66.775,366.69,5.962c0,0-3.738,16.703-5.381,22.259
		C774.797,721.732,768.738,737.364,768.738,737.364"/>
	<path fill="#6BA220" d="M727.63,816.106c-75.793,30.216-170.046,29.565-254.004,0.066c0,0-9.353-12.487-12.075-16.911
		c-3.435-5.581-12.179-23.21-12.179-23.21c82.296,55.745,222.218,48.323,300.86,2.742c0,0-7.062,14.483-12.366,22.272
		C735.13,805.079,727.63,816.106,727.63,816.106"/>
	<path fill="#F90000" d="M600.512,630.764c-73.022,0-132.432-59.409-132.432-132.432c0-73.022,59.409-132.431,132.432-132.431
		c73.024,0,132.433,59.409,132.433,132.431C732.945,571.356,673.535,630.764,600.512,630.764"/>
	<path fill="#63D1E2" d="M706.172,498.333c0,58.355-47.306,105.66-105.66,105.66c-58.354,0-105.66-47.305-105.66-105.66
		c0-58.354,47.306-105.66,105.66-105.66C658.866,392.673,706.172,439.978,706.172,498.333"/>
	<path fill="#4FA7B5" d="M603.973,392.76c5.85,3.902,11.196,8.595,16.241,13.461c6.623,6.389,12.818,13.232,18.609,20.382
		c5.355,6.613,10.44,13.514,14.738,20.867c4.679,8.006,7.962,16.719,9.516,25.872c3.363,19.805-1.252,40.08-9.15,58.267
		c-4.134,9.519-9.204,18.62-14.886,27.298c-5.491,8.387-11.662,16.182-18.008,23.927c-5.943,7.253-12.421,14.968-19.904,21.141
		c41.645-0.24,77.581-24.562,94.579-59.75c-0.031-5.324-0.092-10.647-0.183-15.97c-0.472-27.559-1.625-55.235-3.583-82.904
		C674.193,414.805,641.561,393.973,603.973,392.76"/>
	<path fill="#E0F6F9" d="M534.872,482.925c-6.163,0-11.16,4.997-11.16,11.16c0,6.163,4.997,11.16,11.16,11.16
		c6.164,0,11.16-4.997,11.16-11.16C546.032,487.922,541.036,482.925,534.872,482.925"/>
	<path fill="#E0F6F9" d="M572.78,421.037c-15.129,0-27.393,12.264-27.393,27.393c0,15.129,12.265,27.393,27.393,27.393
		c15.129,0,27.393-12.264,27.393-27.393C600.173,433.301,587.909,421.037,572.78,421.037"/>
	<path fill="#CCCCCC" d="M772.979,973.543c-4.372,4.748-9.937,7.693-15.784,8.848C763.044,981.236,768.606,978.292,772.979,973.543
		 M773.053,973.463c-0.023,0.025-0.046,0.051-0.069,0.075C773.007,973.513,773.03,973.487,773.053,973.463 M657.721,876.59
		l-0.001,0.006h0.129v23.038l0,0c31.608,0,71.7,100.194,71.707,144.915c-0.007-44.721-40.099-144.915-71.707-144.915v-23.038
		l39.001-0.003L657.721,876.59 M815.853,854.607c6.88,13.282,13.064,25.163,17.547,33.508c5.521,10.276,4.413,22.834-2.807,31.996
		l-56.114,51.672l56.115-51.672c7.22-9.162,8.328-21.72,2.807-31.995C828.917,879.769,822.732,867.887,815.853,854.607
		 M794.142,599.579c0,0.008,0,0.006,0,0.014C794.142,599.588,794.142,599.583,794.142,599.579 M794.151,599.178
		c0,0.015-0.001,0.03-0.001,0.046C794.15,599.209,794.151,599.192,794.151,599.178 M794.159,598.781
		c-0.001,0.031-0.001,0.043-0.002,0.074C794.158,598.831,794.159,598.806,794.159,598.781 M794.167,598.39
		c-0.001,0.038-0.001,0.059-0.002,0.097C794.166,598.455,794.167,598.423,794.167,598.39 M794.175,598.006
		c0,0.023-0.001,0.061-0.002,0.084C794.174,598.063,794.174,598.032,794.175,598.006"/>
	<path fill="#C70000" d="M761.905,754.328c-3.077,7.12-6.313,13.987-9.681,20.601c6.59,7.783,12.743,15.945,18.522,24.335
		c8.68,12.602,16.586,25.772,23.365,39.496c6.622,13.405,12.295,27.453,15.557,42.078c2.72,12.193,3.832,25.201,0.466,37.383
		c-1.409,5.101-4.263,9.655-7.567,13.742c-3.75,4.64-8.178,8.796-13.095,12.179c-4.828,3.322-17.458,13.101-25.102,13.101
		c-2.416,0-4.334-0.976-5.351-3.443c-2.694-6.536,5.975-23.559,8.403-29.903c3.153-8.239,7.874-15.9,9.939-24.542
		c0.954-3.992,1.153-8.142,1.059-12.235c-0.079-3.403-0.47-6.813-1.403-10.094c-1.856-6.529-5.891-12.007-10.448-16.924
		c-5.794-6.252-12.504-11.67-19.16-16.971c-6.649-5.295-13.441-10.407-20.067-15.731c-1.646-1.323-3.278-2.664-4.89-4.026
		c-9.192,12.568-18.711,23.837-28.186,33.885c-9.71,10.292-22.561,16.881-36.413,18.769c-0.045,0.186-0.09,0.375-0.134,0.561
		l39.128,0.003l2.958,0c33.279,0.003,51.693,39.092,30.069,64.389l-0.295,0.343c-7.207,8.316-8.33,20.535-1.893,29.46l0.143,0.198
		c5.843,7.961,14.733,11.968,23.634,11.968c1.92,0,3.839-0.186,5.73-0.56c5.848-1.155,11.412-4.1,15.784-8.848
		c0.002-0.002,0.003-0.003,0.004-0.005c0.023-0.025,0.047-0.051,0.069-0.075c0.491-0.537,0.966-1.097,1.426-1.68l0,0l56.114-51.672
		c7.221-9.162,8.328-21.72,2.807-31.996c-4.483-8.345-10.667-20.226-17.547-33.508C794.946,814.246,767.603,760.926,761.905,754.328
		"/>
	<path fill="#B30000" d="M752.224,774.929c-0.66,1.296-1.328,2.589-1.998,3.866c0.004-0.002,0.004-0.002,0.004-0.002
		s-7.062,14.483-12.366,22.272c-1.483,2.178-4.369,6.42-6.699,9.845c-2.863,4.291-5.77,8.444-8.711,12.465
		c1.613,1.361,3.244,2.703,4.89,4.026c6.625,5.324,13.418,10.436,20.067,15.731c6.656,5.301,13.365,10.719,19.16,16.971
		c4.557,4.917,8.592,10.396,10.448,16.924c0.932,3.28,1.324,6.691,1.403,10.094c0.095,4.093-0.105,8.243-1.059,12.235
		c-2.066,8.642-6.787,16.303-9.939,24.542c-2.428,6.344-11.097,23.367-8.403,29.903c1.017,2.466,2.934,3.443,5.351,3.443
		c7.645,0,20.275-9.779,25.102-13.101c4.917-3.384,9.344-7.539,13.095-12.179c3.304-4.088,6.157-8.642,7.567-13.742
		c3.367-12.182,2.254-25.19-0.466-37.383c-3.262-14.625-8.935-28.674-15.557-42.078c-6.779-13.724-14.685-26.893-23.365-39.496
		C764.967,790.874,758.814,782.712,752.224,774.929"/>
	<path fill="#C70000" d="M600.521,50.019c-0.744,0-1.488,0.044-2.228,0.132c7.657,17.578,12.216,36.939,18.773,54.447
		c16.953,45.266,32.091,91.134,43.8,138.048c11.978-4.168,23.627-9.613,34.74-16.33c-30.279-66.315-60.345-123.688-78.336-165.292
		l0,0C614.1,53.678,607.311,50.019,600.521,50.019"/>
	<path fill="#004762" d="M731.165,810.909c-1.965,2.889-3.535,5.197-3.535,5.197c-19.064,7.6-39.303,13.248-60.245,16.975
		c-2.947,14.363-6.125,28.686-9.529,42.948c13.852-1.888,26.702-8.477,36.413-18.769c9.475-10.048,18.993-21.317,28.186-33.885
		C725.395,819.353,728.302,815.2,731.165,810.909 M768.716,737.377c-28.694,17.517-59.309,30.191-90.774,38.022
		c-1.731,10.739-3.589,21.461-5.573,32.157c29.022-6.23,55.839-16,77.861-28.764c0.665-1.274,1.334-2.568,1.994-3.863
		c3.368-6.614,6.604-13.481,9.681-20.601c-0.003-0.003-0.006-0.007-0.009-0.01C764.27,748.826,766.545,743.177,768.716,737.377
		 M707.52,252.821c-12.74,7.782-26.11,14.053-39.875,18.817c9.146,41.861,15.735,84.441,20.228,127.244
		c27.618,24.288,45.072,59.869,45.072,99.451c0,35.95-14.399,68.601-37.733,92.487c-1.243,45.686-4.707,91.318-10.402,136.664
		c35.218-8.034,68.68-20.983,98.381-38.198l0,0l-0.036,0.02c6.282-27.114,10.248-56.931,10.987-89.713c0-0.008,0-0.006,0-0.014
		c0.003-0.118,0.005-0.237,0.008-0.355c0-0.015,0.001-0.03,0.001-0.046c0.002-0.108,0.005-0.215,0.007-0.323
		c0.001-0.031,0.001-0.043,0.002-0.074c0.002-0.098,0.004-0.196,0.006-0.294c0.001-0.038,0.001-0.059,0.002-0.097
		c0.002-0.1,0.004-0.2,0.006-0.3c0-0.023,0.001-0.061,0.002-0.084c0.002-0.129,0.005-0.255,0.007-0.384
		c0.053-2.865,0.079-5.733,0.079-8.604C794.254,474.282,752.34,354.684,707.52,252.821L707.52,252.821"/>
	<path fill="#C70000" d="M657.849,876.596h-0.129c-1.84,7.695-3.748,15.376-5.721,23.038c1.887,0,3.835,0,5.851,0V876.596"/>
	<path fill="#CC3500" d="M657.849,899.633L657.849,899.633c-2.015,0-3.963,0-5.851,0c-0.381,1.479-0.761,2.945-1.147,4.423
		c23.647,19.388,48.069,96.344,34.577,106.884c-0.949,0.741-2.107,1.074-3.429,1.074c-12.002,0-37.259-27.556-37.259-27.556
		c4.606,38.772-40.102,84.825-40.102,84.825s-2.298-2.367-5.799-6.481c-2.664,6.705-5.378,13.382-8.15,20.044
		c-4.55,10.938-9.083,21.886-13.614,32.836c14.122,20.45,27.562,34.316,27.562,34.316s59.693-61.489,59.673-116.734
		c-0.001-2.836-0.159-5.655-0.491-8.449l0,0l0,0c0,0,37.274,40.666,54.985,40.666c1.95,0,3.66-0.492,5.06-1.586
		c3.943-3.08,5.692-10.003,5.69-19.349C729.548,999.827,689.457,899.633,657.849,899.633"/>
	<path fill="#C95306" d="M650.851,904.056c-1.396,5.345-2.827,10.694-4.287,16.022c9.589,19.243,15.834,45.812,9.664,50.632
		c-0.606,0.473-1.346,0.686-2.189,0.686c-4.927,0-13.354-7.274-18.743-12.468c-10.744,35.093-22.906,69.764-36.457,103.875
		c3.501,4.114,5.799,6.481,5.799,6.481s44.708-46.053,40.102-84.825c0,0,25.257,27.556,37.259,27.556
		c1.321,0,2.48-0.333,3.429-1.074C698.92,1000.4,674.499,923.444,650.851,904.056"/>
	<path fill="#CAAE1A" d="M646.564,920.078c-3.565,13.009-7.32,25.953-11.268,38.851c5.389,5.194,13.815,12.468,18.743,12.468
		c0.844,0,1.584-0.213,2.189-0.686C662.398,965.891,656.153,939.321,646.564,920.078"/>
	<path fill="#56821A" d="M696.276,225.915l-0.669,0.401l0,0c-11.113,6.717-22.763,12.162-34.74,16.33
		c0.334,1.337,0.666,2.678,0.994,4.017c2.032,8.291,3.96,16.622,5.785,24.974c13.765-4.764,27.136-11.035,39.875-18.817l0,0
		L696.276,225.915"/>
	<path fill="#56821A" d="M783.191,689.285c-29.701,17.215-63.163,30.164-98.381,38.198c-2.011,16.012-4.299,31.984-6.867,47.916
		c31.464-7.831,62.079-20.505,90.774-38.022c0,0,0,0,0,0l0.022-0.013c0,0,6.058-15.632,9.071-25.819
		C779.453,705.988,783.191,689.285,783.191,689.285"/>
	<path fill="#56821A" d="M750.23,778.792L750.23,778.792c-22.022,12.764-48.839,22.534-77.861,28.764
		c-0.131,0.707-0.263,1.413-0.395,2.12c-1.463,7.817-2.992,15.613-4.59,23.404c20.942-3.727,41.181-9.375,60.245-16.975
		c0,0,1.57-2.308,3.535-5.197c2.33-3.425,5.216-7.667,6.699-9.845C743.168,793.275,750.23,778.792,750.23,778.792"/>
	<path fill="#C70000" d="M687.872,398.881c1.624,15.468,2.973,30.958,4.07,46.459c8.183,14.089,13.205,30.251,14.089,47.497v0.001
		c0.003,0.049,0.006,0.107,0.008,0.156c0,0.007,0,0.008,0.001,0.015c0.002,0.049,0.005,0.1,0.007,0.149c0,0.007,0,0.01,0.001,0.017
		c0.002,0.049,0.005,0.096,0.007,0.145c0,0.007,0.001,0.017,0.001,0.024c0.002,0.049,0.004,0.089,0.006,0.138
		c0,0.01,0.001,0.021,0.001,0.031c0.002,0.042,0.004,0.089,0.006,0.131c0,0.014,0.001,0.024,0.002,0.038
		c0.002,0.042,0.004,0.084,0.005,0.127c0,0.014,0.001,0.027,0.002,0.041c0.002,0.042,0.003,0.08,0.005,0.122
		c0.001,0.014,0.001,0.034,0.002,0.048c0.002,0.039,0.003,0.079,0.005,0.118c0,0.014,0.001,0.036,0.002,0.049
		c0.002,0.039,0.003,0.077,0.004,0.115c0.001,0.017,0.001,0.038,0.002,0.055c0.002,0.039,0.003,0.073,0.004,0.112
		c0,0.017,0.001,0.038,0.002,0.055c0.001,0.039,0.003,0.072,0.004,0.111c0,0.017,0.001,0.04,0.002,0.058
		c0.001,0.035,0.002,0.073,0.004,0.109c0,0.017,0.001,0.043,0.002,0.06c0.001,0.035,0.002,0.069,0.003,0.105
		c0.001,0.021,0.002,0.045,0.002,0.066c0.001,0.035,0.002,0.066,0.003,0.102c0.001,0.021,0.002,0.045,0.002,0.066
		c0.001,0.032,0.002,0.068,0.003,0.1c0,0.021,0.001,0.05,0.002,0.071c0.001,0.032,0.002,0.066,0.003,0.098
		c0.001,0.021,0.001,0.046,0.002,0.067c0.001,0.032,0.002,0.069,0.003,0.101c0,0.024,0.001,0.047,0.002,0.071
		c0.001,0.032,0.002,0.064,0.002,0.096c0.001,0.024,0.001,0.048,0.002,0.072c0.001,0.032,0.001,0.065,0.002,0.097
		c0.001,0.024,0.001,0.047,0.002,0.071c0.001,0.032,0.001,0.065,0.002,0.097c0,0.024,0.001,0.048,0.001,0.072
		c0.001,0.032,0.001,0.062,0.002,0.094c0,0.028,0.001,0.053,0.001,0.081c0,0.028,0.001,0.059,0.001,0.087
		c0,0.028,0.001,0.054,0.001,0.082c0,0.028,0.001,0.057,0.001,0.086c0,0.028,0.001,0.056,0.001,0.084
		c0,0.028,0.001,0.058,0.001,0.086c0,0.024,0.001,0.055,0.001,0.079c0,0.028,0.001,0.06,0.001,0.089
		c0,0.028,0.001,0.056,0.001,0.084c0,0.028,0.001,0.057,0.001,0.085c0,0.028,0.001,0.052,0.001,0.08c0,0.028,0.001,0.06,0.001,0.088
		c0,0.028,0,0.056,0.001,0.084c0,0.028,0,0.056,0.001,0.084c0,0.031,0,0.058,0.001,0.09c0,0.028,0,0.05,0,0.078
		c0,0.035,0,0.065,0,0.099c0,0.021,0,0.048,0,0.07c0,0.031,0,0.064,0,0.095c0,0.025,0,0.049,0,0.074c0,0.035,0,0.069,0,0.103
		c0,0.021,0,0.044,0,0.065c0,0.056,0,0.113,0,0.169l0,0l0,0c0,0.1,0,0.195,0,0.295c0,0.014,0,0.032,0,0.046c0,0.028,0,0.059,0,0.088
		c0,0.028,0,0.055,0,0.083c0,0.025,0,0.049,0,0.074c0,0.032,0,0.064,0,0.096c0,0.043-0.001,0.086-0.001,0.129
		c0,0.014,0,0.026,0,0.04c0,0.046-0.001,0.095-0.001,0.141c0,0.011,0,0.018,0,0.029c0,0.035-0.001,0.078-0.001,0.114
		c0,0.018,0,0.04,0,0.057c0,0.036-0.001,0.072-0.001,0.108c0,0.021,0,0.041-0.001,0.062c0,0.043-0.001,0.085-0.002,0.128
		c0,0.014,0,0.027-0.001,0.042c0,0.032-0.001,0.069-0.001,0.101c0,0.021-0.001,0.05-0.001,0.071c0,0.032-0.001,0.063-0.002,0.094
		c0,0.025-0.001,0.05-0.001,0.075c-0.001,0.039-0.001,0.078-0.002,0.117c0,0.018,0,0.035-0.001,0.053
		c-0.001,0.039-0.002,0.068-0.002,0.107c0,0.021-0.001,0.043-0.001,0.064c-0.001,0.035-0.002,0.075-0.002,0.111
		c0,0.018-0.001,0.04-0.001,0.058c-0.001,0.043-0.002,0.078-0.003,0.121c0,0.014-0.001,0.034-0.001,0.049
		c-0.001,0.043-0.002,0.08-0.003,0.123c0,0.014-0.001,0.033-0.001,0.047c-0.001,0.035-0.002,0.072-0.003,0.107
		c-0.001,0.021-0.001,0.043-0.002,0.064c-0.001,0.039-0.002,0.069-0.003,0.108c0,0.018-0.001,0.042-0.002,0.06
		c-0.001,0.039-0.002,0.075-0.003,0.113c0,0.018-0.001,0.039-0.002,0.056c-0.001,0.039-0.002,0.078-0.004,0.117
		c-0.001,0.018-0.001,0.034-0.002,0.052c-0.002,0.049-0.003,0.093-0.005,0.143c0,0.007-0.001,0.017-0.001,0.024
		c-0.002,0.046-0.003,0.088-0.005,0.134c0,0.011-0.001,0.026-0.001,0.036c-0.001,0.039-0.003,0.08-0.004,0.119
		c-0.001,0.014-0.001,0.037-0.002,0.051c-0.001,0.039-0.003,0.074-0.004,0.112c-0.001,0.018-0.001,0.039-0.002,0.057
		c-0.001,0.039-0.003,0.077-0.004,0.116c-0.001,0.018-0.002,0.035-0.002,0.053c-0.001,0.039-0.003,0.079-0.005,0.117
		c0,0.014-0.001,0.037-0.002,0.051c-0.002,0.042-0.004,0.089-0.005,0.131c0,0.011-0.001,0.026-0.001,0.036
		c-0.002,0.046-0.004,0.092-0.006,0.137c0,0.011-0.001,0.02-0.001,0.031c-0.002,0.046-0.004,0.098-0.007,0.144
		c0,0.007-0.001,0.017-0.001,0.024c-0.002,0.049-0.005,0.1-0.007,0.149c0,0.007,0,0.012-0.001,0.019
		c-0.002,0.049-0.005,0.098-0.007,0.148c0,0.007-0.001,0.014-0.001,0.021c-0.003,0.053-0.005,0.099-0.008,0.151
		c0,0.004-0.001,0.013-0.001,0.016c-0.003,0.056-0.005,0.107-0.008,0.163l0,0.004c-0.749,14.388-4.377,28.012-10.318,40.312
		c0.09,15.534-0.076,31.061-0.498,46.589c23.334-23.886,37.733-56.537,37.733-92.487C732.945,458.751,715.49,423.17,687.872,398.881
		"/>
	<path fill="#4FA7B5" d="M706.027,503.919c-0.75,14.385-4.378,28.011-10.318,40.308v0.004
		C701.65,531.932,705.278,518.307,706.027,503.919 M706.035,503.752c-0.003,0.056-0.005,0.107-0.008,0.163
		C706.03,503.859,706.033,503.809,706.035,503.752 M706.044,503.585c-0.003,0.053-0.005,0.099-0.008,0.151
		C706.039,503.683,706.041,503.638,706.044,503.585 M706.052,503.416c-0.002,0.049-0.005,0.098-0.007,0.148
		C706.047,503.514,706.05,503.465,706.052,503.416 M706.06,503.248c-0.002,0.049-0.005,0.1-0.007,0.149
		C706.055,503.348,706.058,503.297,706.06,503.248 M706.067,503.08c-0.002,0.049-0.004,0.094-0.007,0.144
		C706.063,503.178,706.065,503.126,706.067,503.08 M706.075,502.912c-0.002,0.046-0.004,0.092-0.006,0.137
		C706.071,503.003,706.073,502.958,706.075,502.912 M706.082,502.745c-0.002,0.046-0.003,0.085-0.005,0.131
		C706.078,502.833,706.08,502.787,706.082,502.745 M706.088,502.576c-0.002,0.042-0.003,0.075-0.005,0.117
		C706.085,502.655,706.087,502.615,706.088,502.576 M706.095,502.407c-0.001,0.039-0.003,0.077-0.004,0.116
		C706.092,502.484,706.094,502.446,706.095,502.407 M706.101,502.238c-0.001,0.039-0.003,0.074-0.004,0.112
		C706.099,502.312,706.1,502.277,706.101,502.238 M706.107,502.068c-0.001,0.042-0.003,0.077-0.004,0.119
		C706.104,502.148,706.106,502.107,706.107,502.068 M706.113,501.897c-0.001,0.046-0.003,0.088-0.005,0.134
		C706.11,501.986,706.111,501.943,706.113,501.897 M706.118,501.73c-0.002,0.049-0.003,0.094-0.005,0.143
		C706.116,501.824,706.117,501.78,706.118,501.73 M706.124,501.562c-0.001,0.039-0.002,0.078-0.004,0.117
		C706.121,501.64,706.123,501.601,706.124,501.562 M706.129,501.392c-0.001,0.039-0.002,0.075-0.003,0.113
		C706.127,501.466,706.128,501.431,706.129,501.392 M706.133,501.224c-0.001,0.039-0.002,0.069-0.003,0.108
		C706.131,501.293,706.132,501.263,706.133,501.224 M706.138,501.053c-0.001,0.035-0.002,0.072-0.003,0.107
		C706.136,501.124,706.137,501.088,706.138,501.053 M706.142,500.883c-0.001,0.042-0.002,0.08-0.003,0.123
		C706.14,500.963,706.141,500.926,706.142,500.883 M706.146,500.714c-0.001,0.042-0.002,0.079-0.003,0.121
		C706.144,500.792,706.145,500.756,706.146,500.714 M706.149,500.545c-0.001,0.039-0.001,0.072-0.002,0.111
		C706.148,500.62,706.149,500.581,706.149,500.545 M706.153,500.374c-0.001,0.035-0.002,0.072-0.002,0.107
		C706.151,500.442,706.152,500.413,706.153,500.374 M706.156,500.205c-0.001,0.039-0.001,0.078-0.002,0.117
		C706.154,500.283,706.155,500.244,706.156,500.205 M706.159,500.036c0,0.032-0.001,0.063-0.002,0.094
		C706.158,500.099,706.158,500.068,706.159,500.036 M706.161,499.864c0,0.035-0.001,0.065-0.001,0.101
		C706.16,499.933,706.161,499.896,706.161,499.864 M706.163,499.695c0,0.042-0.001,0.085-0.002,0.128
		C706.162,499.78,706.163,499.738,706.163,499.695 M706.166,499.525c0,0.035-0.001,0.072-0.001,0.108
		C706.165,499.598,706.165,499.561,706.166,499.525 M706.167,499.354c0,0.039-0.001,0.075-0.001,0.114
		C706.166,499.432,706.167,499.39,706.167,499.354 M706.169,499.184c0,0.046-0.001,0.095-0.001,0.141
		C706.168,499.279,706.168,499.23,706.169,499.184 M706.17,499.015c0,0.043-0.001,0.086-0.001,0.129
		C706.169,499.101,706.17,499.057,706.17,499.015 M706.171,498.844c0,0.025,0,0.049,0,0.074
		C706.171,498.894,706.171,498.869,706.171,498.844 M706.172,498.674c0,0.028,0,0.059,0,0.088
		C706.171,498.733,706.171,498.702,706.172,498.674 M706.172,498.333c0,0.099,0,0.195,0,0.295
		C706.172,498.528,706.172,498.432,706.172,498.333L706.172,498.333 M706.172,498.098c0,0.021,0,0.044,0,0.065
		C706.172,498.142,706.172,498.12,706.172,498.098 M706.171,497.92c0,0.024,0,0.05,0,0.074
		C706.171,497.97,706.171,497.945,706.171,497.92 M706.17,497.755c0,0.024,0,0.045,0,0.07
		C706.171,497.804,706.171,497.777,706.17,497.755 M706.169,497.577c0,0.024,0,0.054,0,0.078
		C706.17,497.627,706.17,497.606,706.169,497.577 M706.168,497.404c0,0.028,0,0.057,0.001,0.084
		C706.169,497.459,706.168,497.432,706.168,497.404 M706.166,497.231c0,0.028,0.001,0.061,0.001,0.088
		C706.167,497.291,706.167,497.259,706.166,497.231 M706.165,497.066c0,0.028,0.001,0.057,0.001,0.085
		C706.165,497.122,706.165,497.094,706.165,497.066 M706.162,496.893c0,0.031,0.001,0.057,0.001,0.089
		C706.163,496.953,706.163,496.921,706.162,496.893 M706.16,496.728c0,0.031,0.001,0.055,0.001,0.086
		C706.161,496.785,706.16,496.756,706.16,496.728 M706.157,496.558c0,0.028,0.001,0.058,0.001,0.086
		C706.158,496.615,706.158,496.586,706.157,496.558 M706.155,496.389c0,0.028,0.001,0.059,0.001,0.087
		C706.156,496.448,706.155,496.417,706.155,496.389 M706.151,496.214c0.001,0.031,0.001,0.063,0.002,0.094
		C706.152,496.276,706.152,496.246,706.151,496.214 M706.148,496.045c0.001,0.031,0.001,0.066,0.002,0.097
		C706.149,496.11,706.148,496.077,706.148,496.045 M706.144,495.877c0.001,0.031,0.001,0.066,0.002,0.097
		C706.146,495.942,706.145,495.909,706.144,495.877 M706.14,495.709c0.001,0.031,0.002,0.064,0.002,0.096
		C706.142,495.773,706.141,495.741,706.14,495.709 M706.136,495.537c0.001,0.035,0.002,0.066,0.003,0.101
		C706.138,495.606,706.137,495.569,706.136,495.537 M706.131,495.373c0.001,0.035,0.002,0.063,0.003,0.098
		C706.133,495.438,706.132,495.405,706.131,495.373 M706.127,495.202c0.001,0.035,0.002,0.065,0.003,0.1
		C706.128,495.27,706.128,495.233,706.127,495.202 M706.122,495.034c0.001,0.035,0.002,0.067,0.003,0.102
		C706.124,495.1,706.123,495.069,706.122,495.034 M706.116,494.863c0.001,0.038,0.002,0.067,0.003,0.105
		C706.118,494.933,706.117,494.899,706.116,494.863 M706.111,494.694c0.001,0.038,0.002,0.071,0.004,0.109
		C706.113,494.768,706.112,494.729,706.111,494.694 M706.105,494.525c0.001,0.038,0.003,0.073,0.004,0.111
		C706.107,494.598,706.106,494.564,706.105,494.525 M706.099,494.358c0.001,0.038,0.003,0.074,0.004,0.112
		C706.101,494.431,706.1,494.397,706.099,494.358 M706.092,494.188c0.002,0.042,0.003,0.074,0.004,0.115
		C706.095,494.265,706.094,494.227,706.092,494.188 M706.086,494.021c0.002,0.041,0.003,0.076,0.005,0.118
		C706.089,494.1,706.087,494.06,706.086,494.021 M706.079,493.851c0.002,0.041,0.003,0.081,0.005,0.122
		C706.082,493.93,706.08,493.893,706.079,493.851 M706.072,493.683c0.002,0.041,0.004,0.085,0.005,0.127
		C706.075,493.767,706.073,493.725,706.072,493.683 M706.064,493.513c0.002,0.045,0.004,0.086,0.006,0.131
		C706.068,493.602,706.066,493.555,706.064,493.513 M706.056,493.344c0.002,0.045,0.004,0.093,0.006,0.138
		C706.06,493.433,706.059,493.393,706.056,493.344 M706.048,493.175c0.002,0.048,0.005,0.097,0.007,0.145
		C706.053,493.271,706.051,493.224,706.048,493.175 M706.04,493.008c0.002,0.048,0.005,0.101,0.007,0.149
		C706.045,493.109,706.043,493.058,706.04,493.008 M706.032,492.838c0.003,0.052,0.005,0.104,0.008,0.156
		C706.037,492.945,706.034,492.887,706.032,492.838 M691.942,445.34l0.001,0.014c8.185,14.086,13.205,30.236,14.089,47.484
		C705.147,475.591,700.125,459.429,691.942,445.34"/>
	<path fill="#9F0000" d="M706.027,503.915l0,0.004L706.027,503.915 M706.036,503.736c0,0.004-0.001,0.013-0.001,0.016
		C706.036,503.749,706.036,503.74,706.036,503.736 M706.045,503.563c0,0.007-0.001,0.014-0.001,0.021
		C706.044,503.578,706.044,503.57,706.045,503.563 M706.053,503.397c0,0.004-0.001,0.015-0.001,0.019
		C706.052,503.409,706.052,503.404,706.053,503.397 M706.061,503.224c0,0.011,0,0.014-0.001,0.024
		C706.06,503.241,706.06,503.231,706.061,503.224 M706.069,503.049c0,0.011-0.001,0.02-0.001,0.031
		C706.068,503.07,706.068,503.06,706.069,503.049 M706.076,502.875c-0.001,0.014-0.001,0.022-0.001,0.036
		C706.075,502.901,706.076,502.886,706.076,502.875 M706.084,502.693c-0.001,0.018-0.001,0.034-0.002,0.051
		C706.082,502.73,706.083,502.707,706.084,502.693 M706.091,502.523c-0.001,0.018-0.002,0.035-0.002,0.053
		C706.089,502.558,706.09,502.541,706.091,502.523 M706.097,502.351c-0.001,0.018-0.001,0.039-0.002,0.057
		C706.096,502.39,706.096,502.368,706.097,502.351 M706.103,502.187c-0.001,0.018-0.001,0.034-0.002,0.051
		C706.102,502.224,706.102,502.201,706.103,502.187 M706.109,502.031c0,0.011-0.001,0.026-0.001,0.036
		C706.108,502.057,706.108,502.042,706.109,502.031 M706.114,501.873c0,0.007-0.001,0.017-0.001,0.024
		C706.113,501.89,706.114,501.88,706.114,501.873 M706.12,501.679c-0.001,0.018-0.001,0.034-0.002,0.052
		C706.119,501.713,706.119,501.696,706.12,501.679 M706.125,501.505c0,0.018-0.001,0.039-0.002,0.056
		C706.124,501.544,706.125,501.523,706.125,501.505 M706.13,501.332c0,0.018-0.001,0.042-0.002,0.06
		C706.129,501.374,706.13,501.35,706.13,501.332 M706.135,501.16c-0.001,0.021-0.001,0.043-0.002,0.064
		C706.134,501.203,706.134,501.181,706.135,501.16 M706.139,501.006c0,0.014-0.001,0.033-0.001,0.047
		C706.138,501.038,706.139,501.02,706.139,501.006 M706.143,500.835c0,0.014-0.001,0.034-0.001,0.049
		C706.142,500.869,706.143,500.849,706.143,500.835 M706.147,500.656c0,0.018-0.001,0.04-0.001,0.058
		C706.146,500.696,706.147,500.674,706.147,500.656 M706.151,500.481c0,0.021-0.001,0.043-0.001,0.064
		C706.15,500.524,706.15,500.502,706.151,500.481 M706.154,500.322c0,0.014-0.001,0.038-0.001,0.053
		C706.153,500.357,706.153,500.339,706.154,500.322 M706.157,500.13c0,0.025-0.001,0.05-0.001,0.075
		C706.156,500.18,706.157,500.155,706.157,500.13 M706.16,499.965c0,0.025-0.001,0.046-0.001,0.071
		C706.159,500.015,706.159,499.986,706.16,499.965 M706.162,499.823c0,0.014,0,0.027-0.001,0.042
		C706.161,499.85,706.162,499.837,706.162,499.823 M706.164,499.633c0,0.021,0,0.041-0.001,0.062
		C706.164,499.674,706.164,499.654,706.164,499.633 M706.166,499.468c0,0.021,0,0.036,0,0.057
		C706.166,499.507,706.166,499.486,706.166,499.468 M706.168,499.325c0,0.011,0,0.018,0,0.029
		C706.167,499.344,706.167,499.336,706.168,499.325 M706.169,499.144c0,0.014,0,0.026,0,0.04
		C706.169,499.17,706.169,499.158,706.169,499.144 M706.17,498.919c0,0.032,0,0.064,0,0.096
		C706.17,498.983,706.17,498.95,706.17,498.919 M706.171,498.761c0,0.028,0,0.055,0,0.083
		C706.171,498.816,706.171,498.79,706.171,498.761 M706.172,498.627c0,0.014,0,0.032,0,0.046
		C706.172,498.659,706.172,498.641,706.172,498.627 M706.172,498.164c0,0.057,0,0.112,0,0.169l0,0
		C706.172,498.277,706.172,498.219,706.172,498.164 M706.172,497.995c0,0.036,0,0.068,0,0.103
		C706.172,498.063,706.172,498.03,706.172,497.995 M706.171,497.825c0,0.032,0,0.063,0,0.095
		C706.171,497.889,706.171,497.856,706.171,497.825 M706.17,497.656c0,0.032,0,0.067,0,0.099
		C706.17,497.72,706.17,497.691,706.17,497.656 M706.169,497.488c0,0.028,0,0.061,0.001,0.09
		C706.169,497.546,706.169,497.519,706.169,497.488 M706.167,497.319c0,0.028,0,0.056,0.001,0.084
		C706.168,497.376,706.168,497.347,706.167,497.319 M706.166,497.151c0,0.028,0.001,0.052,0.001,0.08
		C706.166,497.203,706.166,497.179,706.166,497.151 M706.164,496.981c0,0.028,0.001,0.056,0.001,0.084
		C706.164,497.038,706.164,497.009,706.164,496.981 M706.161,496.814c0,0.025,0.001,0.054,0.001,0.079
		C706.162,496.868,706.162,496.838,706.161,496.814 M706.159,496.644c0,0.028,0.001,0.056,0.001,0.084
		C706.16,496.7,706.159,496.671,706.159,496.644 M706.156,496.476c0,0.028,0.001,0.054,0.001,0.082
		C706.157,496.53,706.157,496.504,706.156,496.476 M706.153,496.308c0,0.028,0.001,0.053,0.001,0.081
		C706.154,496.361,706.154,496.336,706.153,496.308 M706.15,496.142c0,0.025,0.001,0.048,0.001,0.072
		C706.151,496.19,706.15,496.166,706.15,496.142 M706.146,495.974c0.001,0.021,0.001,0.05,0.002,0.071
		C706.147,496.02,706.147,495.998,706.146,495.974 M706.142,495.805c0.001,0.025,0.001,0.047,0.002,0.072
		C706.143,495.853,706.143,495.829,706.142,495.805 M706.138,495.638c0,0.025,0.001,0.046,0.002,0.071
		C706.14,495.685,706.139,495.662,706.138,495.638 M706.134,495.47c0.001,0.025,0.001,0.042,0.002,0.067
		C706.135,495.516,706.135,495.491,706.134,495.47 M706.129,495.302c0.001,0.025,0.001,0.046,0.002,0.071
		C706.131,495.352,706.13,495.323,706.129,495.302 M706.125,495.136c0.001,0.021,0.001,0.045,0.002,0.066
		C706.126,495.181,706.125,495.156,706.125,495.136 M706.119,494.968c0.001,0.021,0.002,0.044,0.002,0.066
		C706.121,495.013,706.12,494.989,706.119,494.968 M706.114,494.803c0.001,0.021,0.001,0.039,0.002,0.06
		C706.116,494.846,706.115,494.82,706.114,494.803 M706.109,494.637c0,0.018,0.001,0.04,0.002,0.058
		C706.11,494.677,706.109,494.654,706.109,494.637 M706.103,494.47c0.001,0.018,0.001,0.038,0.002,0.055
		C706.104,494.508,706.103,494.487,706.103,494.47 M706.097,494.304c0.001,0.018,0.001,0.037,0.002,0.055
		C706.098,494.341,706.097,494.321,706.097,494.304 M706.09,494.139c0,0.014,0.001,0.035,0.002,0.049
		C706.092,494.174,706.091,494.152,706.09,494.139 M706.084,493.973c0.001,0.018,0.001,0.03,0.002,0.048
		C706.085,494.007,706.084,493.987,706.084,493.973 M706.077,493.809c0,0.011,0.001,0.031,0.002,0.041
		C706.078,493.837,706.077,493.823,706.077,493.809 M706.07,493.645c0,0.014,0.001,0.024,0.002,0.038
		C706.071,493.669,706.07,493.658,706.07,493.645 M706.063,493.482c0,0.011,0.001,0.021,0.001,0.031
		C706.064,493.503,706.063,493.492,706.063,493.482 M706.055,493.32c0,0.007,0.001,0.017,0.001,0.024
		C706.056,493.337,706.056,493.327,706.055,493.32 M706.048,493.158c0,0.004,0.001,0.014,0.001,0.017
		C706.048,493.168,706.048,493.165,706.048,493.158 M706.04,492.994c0,0.007,0,0.008,0.001,0.015
		C706.04,493.002,706.04,493.001,706.04,492.994 M706.032,492.837C706.032,492.841,706.031,492.834,706.032,492.837L706.032,492.837
		"/>
	<path fill="#3F8691" d="M691.943,445.353c1.958,27.669,3.112,55.345,3.583,82.904c0.091,5.323,0.152,10.646,0.183,15.97
		c5.94-12.296,9.568-25.922,10.318-40.308l0-0.004c0.003-0.056,0.006-0.107,0.008-0.163c0-0.004,0.001-0.013,0.001-0.016
		c0.003-0.053,0.005-0.099,0.008-0.151c0-0.007,0.001-0.014,0.001-0.021c0.002-0.049,0.005-0.098,0.007-0.148
		c0-0.004,0.001-0.015,0.001-0.019c0.002-0.049,0.005-0.1,0.007-0.149c0-0.011,0-0.014,0.001-0.024
		c0.002-0.049,0.004-0.094,0.007-0.144c0-0.011,0.001-0.02,0.001-0.031c0.002-0.046,0.004-0.092,0.006-0.137
		c0-0.014,0.001-0.022,0.001-0.036c0.002-0.046,0.004-0.085,0.005-0.131c0.001-0.018,0.001-0.034,0.002-0.051
		c0.002-0.042,0.003-0.075,0.005-0.117c0.001-0.018,0.001-0.035,0.002-0.053c0.001-0.039,0.003-0.077,0.004-0.116
		c0.001-0.018,0.001-0.039,0.002-0.057c0.001-0.039,0.003-0.074,0.004-0.112c0.001-0.018,0.001-0.034,0.002-0.051
		c0.001-0.042,0.003-0.077,0.004-0.119c0-0.011,0.001-0.026,0.001-0.036c0.002-0.046,0.003-0.088,0.005-0.134
		c0-0.007,0-0.017,0.001-0.024c0.002-0.049,0.003-0.094,0.005-0.143c0-0.018,0.001-0.034,0.002-0.052
		c0.001-0.039,0.002-0.078,0.004-0.117c0-0.018,0.001-0.039,0.002-0.056c0.001-0.039,0.002-0.075,0.003-0.113
		c0-0.018,0.001-0.042,0.002-0.06c0.001-0.039,0.002-0.069,0.003-0.108c0-0.021,0.001-0.043,0.002-0.064
		c0.001-0.035,0.002-0.072,0.003-0.107c0-0.014,0.001-0.033,0.001-0.047c0.001-0.042,0.002-0.08,0.003-0.123
		c0-0.014,0.001-0.034,0.001-0.049c0.001-0.042,0.002-0.079,0.003-0.121c0-0.018,0.001-0.04,0.001-0.058
		c0.001-0.039,0.001-0.072,0.002-0.111c0-0.021,0.001-0.043,0.001-0.064c0.001-0.035,0.001-0.072,0.002-0.107
		c0-0.014,0.001-0.038,0.001-0.053c0.001-0.039,0.001-0.078,0.002-0.117c0-0.025,0.001-0.05,0.001-0.075
		c0-0.032,0.001-0.063,0.002-0.094c0-0.025,0.001-0.046,0.001-0.071c0-0.035,0.001-0.065,0.001-0.101c0-0.014,0-0.027,0.001-0.042
		c0-0.042,0.001-0.085,0.002-0.128c0-0.021,0-0.041,0.001-0.062c0-0.035,0.001-0.072,0.001-0.108c0-0.021,0-0.036,0-0.057
		c0-0.039,0.001-0.075,0.001-0.114c0-0.011,0-0.018,0-0.029c0-0.046,0.001-0.095,0.001-0.141c0-0.014,0-0.026,0-0.04
		c0-0.043,0.001-0.086,0.001-0.129c0-0.032,0-0.064,0-0.096c0-0.025,0-0.049,0-0.074c0-0.028,0-0.055,0-0.083
		c0-0.028,0-0.059,0-0.088c0-0.014,0-0.032,0-0.046c0-0.099,0-0.195,0-0.295c0-0.057,0-0.112,0-0.169c0-0.021,0-0.044,0-0.065
		c0-0.036,0-0.068,0-0.103c0-0.024,0-0.05,0-0.074c0-0.032,0-0.063,0-0.095c0-0.024,0-0.045,0-0.07c0-0.032,0-0.067,0-0.099
		c0-0.024,0-0.054,0-0.078c0-0.028,0-0.061-0.001-0.09c0-0.028,0-0.057-0.001-0.084c0-0.028,0-0.056-0.001-0.084
		c0-0.028-0.001-0.061-0.001-0.088c0-0.028,0-0.052-0.001-0.08c0-0.028-0.001-0.057-0.001-0.085c0-0.028-0.001-0.056-0.001-0.084
		c0-0.031-0.001-0.057-0.001-0.089c0-0.025-0.001-0.054-0.001-0.079c0-0.031-0.001-0.055-0.001-0.086
		c0-0.028-0.001-0.056-0.001-0.084c0-0.028-0.001-0.058-0.001-0.086c0-0.028-0.001-0.054-0.001-0.082
		c0-0.028-0.001-0.059-0.001-0.087c-0.001-0.028-0.001-0.053-0.001-0.081c-0.001-0.031-0.001-0.063-0.002-0.094
		c0-0.025-0.001-0.048-0.001-0.072c-0.001-0.031-0.001-0.066-0.002-0.097c0-0.021-0.001-0.05-0.002-0.071
		c-0.001-0.031-0.001-0.066-0.002-0.097c-0.001-0.025-0.001-0.047-0.002-0.072c-0.001-0.031-0.001-0.065-0.002-0.096
		c0-0.025-0.001-0.046-0.002-0.071c-0.001-0.035-0.002-0.066-0.003-0.101c-0.001-0.025-0.001-0.042-0.002-0.067
		c-0.001-0.035-0.002-0.063-0.003-0.098c-0.001-0.025-0.001-0.046-0.002-0.071c-0.001-0.035-0.002-0.065-0.003-0.1
		c-0.001-0.021-0.001-0.045-0.002-0.066c-0.001-0.035-0.002-0.067-0.003-0.102c-0.001-0.021-0.001-0.044-0.002-0.066
		c-0.001-0.038-0.002-0.067-0.003-0.105c-0.001-0.021-0.001-0.039-0.002-0.06c-0.001-0.038-0.002-0.071-0.004-0.109
		c-0.001-0.018-0.001-0.04-0.002-0.058c-0.001-0.038-0.003-0.073-0.004-0.111c-0.001-0.018-0.001-0.038-0.002-0.055
		c-0.001-0.038-0.003-0.074-0.004-0.112c-0.001-0.018-0.001-0.037-0.002-0.055c-0.001-0.042-0.003-0.074-0.004-0.115
		c0-0.014-0.001-0.035-0.002-0.049c-0.002-0.041-0.003-0.076-0.005-0.118c-0.001-0.018-0.001-0.03-0.002-0.048
		c-0.002-0.041-0.003-0.081-0.005-0.122c0-0.011-0.001-0.031-0.002-0.041c-0.002-0.041-0.004-0.085-0.005-0.127
		c-0.001-0.014-0.001-0.024-0.002-0.038c-0.002-0.045-0.004-0.086-0.006-0.131c0-0.011-0.001-0.021-0.001-0.031
		c-0.002-0.045-0.004-0.093-0.006-0.138c0-0.007-0.001-0.017-0.001-0.024c-0.002-0.048-0.005-0.097-0.007-0.145
		c0-0.004-0.001-0.014-0.001-0.017c-0.002-0.048-0.005-0.101-0.007-0.149c0-0.007,0-0.008-0.001-0.015
		c-0.003-0.052-0.005-0.104-0.008-0.156c0-0.004,0,0.003,0-0.001C705.148,475.589,700.128,459.439,691.943,445.353"/>
	<path fill="#FA3333" d="M522.609,235.499c-0.001,0.002-0.003,0.004-0.004,0.005c12.635,5.918,25.786,10.324,39.183,13.214
		c0.004-0.007,0.008-0.014,0.011-0.02C548.4,245.808,535.248,241.417,522.609,235.499"/>
	<path fill="#337A95" d="M507.136,260.455c-12.319,22.97-21.403,47.699-29.386,72.43c-4.893,15.161-9.327,30.464-13.638,45.8
		c-4.266,15.178-8.713,30.324-12.745,45.564c-9.082,34.326-15.408,69.538-17.31,105.027c-1.896,35.378,1.001,70.738,11.126,104.781
		c5.008,16.839,11.481,33.224,19.097,49.05c3.738,7.769,7.748,15.406,11.989,22.912c2.064,3.651,4.181,7.272,6.347,10.863
		c1.458,0.529,2.922,1.047,4.387,1.555c0.118-1.002,0.199-1.847,0.217-2.022c1.696-16.586-1.389-33.352-4.321-49.619
		c-1.421-7.885-2.907-15.764-3.999-23.705c-1.159-8.43-1.815-16.972-2.515-25.45c-1.58-19.122-1.755-38.346-0.927-57.51
		c0.226-5.217,0.543-10.427,0.921-15.633c-5.365-14.381-8.299-29.936-8.299-46.164c0-29.131,9.456-56.097,25.458-77.987
		c1.528-6.667,3.162-13.309,4.902-19.923c8.931-33.963,20.646-67.25,35.58-99.049c4.059-8.643,8.445-17.131,12.961-25.552
		C533.33,272.136,519.969,267.012,507.136,260.455"/>
	<path fill="#89B54D" d="M522.605,235.504c-2.901,4.043-5.699,8.156-8.293,12.405c-2.512,4.115-4.899,8.3-7.176,12.546
		c12.833,6.558,26.194,11.682,39.844,15.368c4.421-8.244,8.967-16.425,13.452-24.622c0.453-0.827,0.904-1.655,1.356-2.482
		C548.391,245.828,535.241,241.422,522.605,235.504"/>
	<path fill="#89B54D" d="M482.616,716.881c0.016,0.027,0.033,0.055,0.049,0.082c0.541,0.896,2.553,5.272,3.505,5.412
		c0.003,0,0.006,0.001,0.009,0.001c0.301,0,0.619-2.205,0.824-3.94C485.537,717.929,484.074,717.41,482.616,716.881"/>
	<path fill="#FA3333" d="M493.538,420.346c-16.002,21.89-25.458,48.856-25.458,77.987c0,16.228,2.934,31.783,8.299,46.164
		c0.988-13.59,2.394-27.15,3.685-40.714C482.735,475.723,487.238,447.824,493.538,420.346"/>
</g>
</svg>
