<?xml version="1.0" encoding="utf-8"?>
<!--Designed by Vexels.com - 2018 All Rights Reserved - https://vexels.com/terms-and-conditions/-->
<svg version="1.1" id="Layer_1" xmlns="http://www.w3.org/2000/svg" xmlns:xlink="http://www.w3.org/1999/xlink" x="0px" y="0px"
	 viewBox="0 0 1200 1200" enable-background="new 0 0 1200 1200" xml:space="preserve">
<g>
	<path fill="#FF3300" d="M600,877.801l-96.783-6.574c0.767,0.198,62.435,194.366,86.921,271.553c3.054,9.626,16.671,9.626,19.723,0
		c24.487-77.187,86.156-271.355,86.923-271.553L600,877.801"/>
	<path fill="#FB6808" d="M600,875.412l-61.597-4.184c0.488,0.126,39.737,123.705,55.321,172.83c1.943,6.126,10.61,6.126,12.553,0
		c15.586-49.125,54.835-172.704,55.323-172.83L600,875.412"/>
	<path fill="#FDDA20" d="M600,873.605l-35.006-2.377c0.278,0.072,22.583,70.303,31.439,98.223c1.105,3.481,6.03,3.481,7.135,0
		c8.857-27.919,31.163-98.151,31.441-98.223L600,873.605"/>
	<path fill="#CCCCCC" d="M696.387,872.218c-0.077,0.213-0.164,0.462-0.262,0.743c-1.609,4.622-6.027,18.194-12.138,37.176l0.001,0
		C690.468,890.002,695.046,875.952,696.387,872.218"/>
	<path fill="#CC2900" d="M696.124,872.961c-1.604,4.605-6.024,18.18-12.138,37.176l0.001,0
		C690.097,891.154,694.515,877.582,696.124,872.961"/>
	<path fill="#CCCCCC" d="M503.235,871.248c0.392,0.634,5.328,15.739,12.779,38.888l0,0
		C508.561,886.982,503.626,871.878,503.235,871.248 M503.231,871.242c0.001,0.002,0.002,0.004,0.004,0.006
		C503.233,871.246,503.232,871.244,503.231,871.242 M503.228,871.238c0.001,0.001,0.001,0.002,0.002,0.002
		C503.229,871.24,503.229,871.239,503.228,871.238 M503.225,871.234c0,0,0.001,0.001,0.001,0.001
		C503.225,871.235,503.225,871.234,503.225,871.234 M503.222,871.231C503.222,871.231,503.222,871.231,503.222,871.231
		C503.222,871.231,503.222,871.231,503.222,871.231L503.222,871.231"/>
	<path fill="#CC2900" d="M503.222,871.231C503.222,871.231,503.222,871.231,503.222,871.231c0.001,0.001,0.002,0.002,0.002,0.003
		c0,0,0.001,0.001,0.001,0.001c0.001,0.001,0.001,0.002,0.002,0.003c0.001,0.001,0.001,0.002,0.002,0.002
		c0,0.001,0.001,0.001,0.001,0.002c0.001,0.002,0.002,0.004,0.004,0.006c0,0,0,0,0,0c0.391,0.63,5.326,15.734,12.78,38.888
		l35.855,2.435c-4.364-13.624-8.037-25.035-10.441-32.397C528.255,877.469,515.135,874.317,503.222,871.231"/>
	<path fill="#C95306" d="M541.428,880.175c2.404,7.362,6.078,18.773,10.441,32.397l27.066,1.839
		c-3.523-11.051-6.847-21.448-9.364-29.267C560.452,883.846,550.926,882.126,541.428,880.175"/>
	<path fill="#CAAE1A" d="M569.572,885.143c2.517,7.819,5.841,18.216,9.364,29.267l17.165,1.166v-27.979
		C588.012,887.373,579.006,886.484,569.572,885.143"/>
	<path fill="#FF3300" d="M355.365,804.146l-51.606-3.506c0.409,0.106,33.291,103.636,46.347,144.793
		c1.628,5.131,8.888,5.131,10.516,0c13.056-41.157,45.938-144.687,46.347-144.793L355.365,804.146"/>
	<path fill="#FB6808" d="M355.365,802.871l-32.845-2.231c0.26,0.068,21.188,65.959,29.497,92.154c1.037,3.265,5.657,3.265,6.694,0
		c8.31-26.195,29.237-92.087,29.497-92.154L355.365,802.871"/>
	<path fill="#FDDA20" d="M355.365,801.908l-18.666-1.269c0.148,0.039,12.041,37.486,16.763,52.373c0.59,1.856,3.215,1.856,3.805,0
		c4.722-14.887,16.615-52.334,16.765-52.373L355.365,801.908"/>
	<path fill="#CCCCCC" d="M401.631,816.779c-0.001,0.001-0.001,0.001-0.001,0.001c-0.68,2.104-1.413,4.381-2.191,6.8
		c0.021-0.064,0.042-0.129,0.063-0.193C400.258,821.038,400.969,818.829,401.631,816.779"/>
	<path fill="#CC2900" d="M401.63,816.78c-5.182,5.128-12.287,8.249-19.953,8.249c-0.461,0-0.924-0.011-1.389-0.034
		c-1.239,3.873-2.57,8.037-3.944,12.346l5.836-0.396c7.935-0.539,14.751-5.832,17.26-13.365
		C400.217,821.162,400.95,818.885,401.63,816.78"/>
	<path fill="#C95306" d="M366.935,822.6c-1.643,5.153-3.384,10.625-5.004,15.72l14.412-0.979c1.375-4.31,2.705-8.473,3.944-12.346
		c-1.445-0.071-2.908-0.253-4.377-0.555L366.935,822.6"/>
	<path fill="#CCCCCC" d="M303.783,800.678c0,0,0,0.001,0.001,0.001C303.783,800.679,303.783,800.679,303.783,800.678
		 M303.78,800.672c0,0.001,0,0.001,0.001,0.002C303.78,800.673,303.78,800.672,303.78,800.672 M303.777,800.666
		C303.777,800.666,303.777,800.666,303.777,800.666C303.777,800.666,303.777,800.666,303.777,800.666 M303.774,800.661
		C303.774,800.661,303.774,800.661,303.774,800.661C303.774,800.661,303.774,800.661,303.774,800.661 M303.769,800.652
		c0.001,0.001,0.001,0.001,0.001,0.002C303.77,800.654,303.769,800.653,303.769,800.652 M303.767,800.648
		c0,0,0.001,0.001,0.001,0.002C303.768,800.65,303.767,800.649,303.767,800.648 M303.764,800.645c0,0.001,0.001,0.001,0.001,0.002
		C303.765,800.646,303.765,800.646,303.764,800.645 M303.763,800.643c0,0,0.001,0.001,0.001,0.001
		C303.763,800.643,303.763,800.643,303.763,800.643 M303.761,800.641c0,0,0,0.001,0.001,0.001
		C303.762,800.642,303.761,800.641,303.761,800.641 M303.759,800.64c0,0,0.001,0,0.001,0.001
		C303.759,800.64,303.759,800.64,303.759,800.64"/>
	<path fill="#CC2900" d="M303.759,800.64L303.759,800.64c0,0,0.001,0,0.001,0.001c0,0,0,0,0.001,0c0,0,0.001,0.001,0.001,0.001
		c0,0,0,0.001,0.001,0.001c0,0,0.001,0.001,0.001,0.001c0,0,0,0.001,0.001,0.001c0,0.001,0.001,0.001,0.001,0.002
		c0,0.001,0.001,0.001,0.001,0.002c0,0,0.001,0.001,0.001,0.002c0,0.001,0.001,0.001,0.001,0.002c0,0.001,0.001,0.001,0.001,0.002
		c0.001,0.002,0.003,0.004,0.004,0.007c0,0,0,0,0,0c0.001,0.002,0.002,0.003,0.002,0.005c0,0,0,0,0,0.001
		c0.001,0.002,0.001,0.003,0.002,0.005c0,0.001,0,0.001,0.001,0.002c0.001,0.002,0.002,0.003,0.002,0.005c0,0,0,0.001,0.001,0.001
		c0.314,0.661,3.193,9.49,7.443,22.707c2.455,7.635,9.321,13.014,17.322,13.558l5.836,0.396c-2.742-8.595-5.301-16.595-7.335-22.916
		l-3.644-0.747c-7.954-1.631-14.518-6.473-18.511-12.961L303.759,800.64"/>
	<path fill="#C95306" d="M327.05,814.425c2.034,6.321,4.593,14.321,7.335,22.916l14.412,0.979
		c-2.165-6.812-4.549-14.301-6.624-20.795L327.05,814.425"/>
	<path fill="#CAAE1A" d="M342.173,817.525c2.075,6.494,4.459,13.983,6.624,20.795l6.568,0.446l6.567-0.446
		c1.619-5.095,3.361-10.567,5.004-15.72L342.173,817.525"/>
	<path fill="#00597B" d="M728.558,808.67l17.22,48.524c0,0-89.524,30.459-145.771,30.459c-51.306,0-145.787-30.459-145.787-30.459
		l17.221-48.524c41.778,13.56,85.172,20.35,128.55,20.35C643.387,829.02,686.78,822.231,728.558,808.67"/>
	<path fill="#004762" d="M469.941,812.902l-10.729,30.234c44.837,12.116,90.851,18.37,136.889,18.704v-30.421
		C553.615,831.063,511.152,824.887,469.941,812.902 M730.06,812.902L730.06,812.902l10.563,29.768L730.06,812.902"/>
	<path fill="#FF3300" d="M456.187,265.898h0.001c93.229,31.854,194.396,31.854,287.625,0H456.187"/>
	<path fill="#FF3300" d="M743.817,265.899v73.704H623.308c-55.709,0-111.417,0.016-167.125,0v-73.704
		c46.736,15.171,95.28,22.765,143.808,22.765C648.536,288.664,697.08,281.07,743.817,265.899"/>
	<path fill="#FF3300" d="M743.817,339.603V808.67c-46.737,15.171-95.281,22.765-143.825,22.765
		c-48.528,0-97.072-7.594-143.808-22.765V339.603c55.707,0.016,111.416,0,167.125,0H743.817"/>
	<path fill="#00597B" d="M600,354.253c62.934,0,143.813-14.821,143.813-14.821v-73.534c-93.475,30.345-194.152,30.345-287.625,0
		h-0.001v73.534C456.187,339.432,542.615,354.253,600,354.253"/>
	<path fill="#FFFFFF" d="M654.021,163.823c-45.112,0.001-90.225,0.08-135.335,0.047l-62.499,102.027h0.001
		c93.229,31.854,194.396,31.854,287.625,0l-62.527-102.076C672.198,163.823,663.109,163.822,654.021,163.823"/>
	<path fill="#FFFFFF" d="M410.039,472.657v221.507c13.529-10.68,32.62-10.68,46.148,0V472.657
		C442.659,483.336,423.568,483.336,410.039,472.657"/>
	<path fill="#CCCCCC" d="M455.706,693.791c0.013,0.01,0.027,0.02,0.04,0.03C455.733,693.812,455.72,693.802,455.706,693.791
		 M455.54,693.665c0.028,0.021,0.056,0.042,0.083,0.063C455.596,693.707,455.568,693.686,455.54,693.665 M455.372,693.539
		c0.041,0.031,0.082,0.062,0.123,0.093C455.454,693.6,455.413,693.569,455.372,693.539 M444.915,688.07v0.01
		c3.681,1.23,7.213,3.042,10.448,5.453C452.129,691.121,448.596,689.299,444.915,688.07 M455.037,473.529
		c-3.146,2.291-6.564,4.024-10.122,5.211v0.01C448.473,477.563,451.892,475.822,455.037,473.529 M455.167,473.434
		c-0.042,0.031-0.084,0.062-0.126,0.092C455.082,473.496,455.125,473.465,455.167,473.434 M455.298,473.338
		c-0.028,0.021-0.056,0.041-0.084,0.062C455.242,473.379,455.27,473.358,455.298,473.338 M455.425,473.243
		c-0.014,0.011-0.028,0.021-0.042,0.032C455.397,473.264,455.41,473.253,455.425,473.243"/>
	<path fill="#CCCCCC" d="M456.187,472.657L456.187,472.657c-0.252,0.199-0.506,0.394-0.762,0.586
		c-0.014,0.011-0.028,0.021-0.042,0.032c-0.028,0.021-0.057,0.042-0.085,0.063c-0.028,0.021-0.056,0.041-0.084,0.062
		c-0.016,0.012-0.031,0.023-0.047,0.035c-0.041,0.03-0.085,0.062-0.126,0.092c-0.001,0.001-0.003,0.002-0.004,0.003
		c-3.145,2.293-6.564,4.034-10.122,5.221v209.32c3.681,1.229,7.213,3.051,10.448,5.463c0.003,0.002,0.005,0.004,0.008,0.006
		c0.041,0.031,0.082,0.062,0.123,0.093c0.015,0.011,0.03,0.023,0.045,0.034c0.028,0.021,0.056,0.042,0.083,0.063
		s0.055,0.042,0.083,0.063c0.013,0.01,0.027,0.02,0.04,0.03c0.148,0.113,0.295,0.227,0.441,0.343V472.657"/>
	<path fill="#CCCCCC" d="M410.214,694.027c-0.011,0.008-0.02,0.015-0.031,0.024C410.194,694.043,410.204,694.035,410.214,694.027
		 M410.359,693.914c-0.003,0.003-0.007,0.005-0.01,0.008C410.353,693.919,410.356,693.917,410.359,693.914 M410.551,693.767
		c-0.018,0.014-0.035,0.027-0.053,0.041C410.516,693.794,410.534,693.781,410.551,693.767 M425.637,686.91
		c-5.325,1.089-10.463,3.355-15.005,6.796c4.541-3.438,9.681-5.674,15.005-6.763V686.91 M410.601,473.092
		c4.55,3.455,9.698,5.727,15.036,6.818v-0.032C420.3,478.787,415.149,476.542,410.601,473.092 M410.486,473.005
		c0.031,0.024,0.062,0.048,0.093,0.071C410.548,473.052,410.517,473.028,410.486,473.005 M410.324,472.88
		c0.015,0.012,0.03,0.024,0.045,0.035C410.354,472.903,410.339,472.891,410.324,472.88 M410.178,472.766
		c0.015,0.012,0.029,0.023,0.044,0.034C410.207,472.789,410.193,472.778,410.178,472.766"/>
	<path fill="#CCCCCC" d="M410.039,472.657v221.507c0.048-0.038,0.097-0.076,0.145-0.114c0.011-0.008,0.02-0.016,0.031-0.024
		c0.045-0.035,0.09-0.07,0.135-0.105c0.003-0.003,0.007-0.005,0.01-0.008c0.046-0.036,0.092-0.071,0.139-0.106
		c0.018-0.014,0.035-0.027,0.053-0.041c0.027-0.02,0.053-0.041,0.08-0.061c4.543-3.441,9.68-5.707,15.005-6.796v-207
		c-5.338-1.091-10.485-3.364-15.036-6.818c-0.007-0.005-0.014-0.011-0.022-0.016c-0.031-0.023-0.062-0.047-0.093-0.071
		c-0.039-0.03-0.079-0.06-0.117-0.09c-0.015-0.012-0.03-0.024-0.045-0.035c-0.034-0.026-0.068-0.053-0.102-0.079
		c-0.015-0.012-0.029-0.023-0.044-0.034C410.132,472.73,410.085,472.694,410.039,472.657L410.039,472.657"/>
	<path fill="#FFFFFF" d="M743.813,472.657v221.507c13.529-10.68,32.62-10.68,46.149,0V472.657
		C776.433,483.336,757.342,483.336,743.813,472.657"/>
	<path fill="#CCCCCC" d="M789.462,473.045c-0.159,0.121-0.318,0.241-0.478,0.359c0.054-0.04,0.109-0.08,0.163-0.121
		c0.002-0.001,0.003-0.002,0.005-0.004c0.026-0.02,0.053-0.039,0.079-0.059C789.307,473.162,789.384,473.104,789.462,473.045
		 M789.59,472.947c-0.038,0.03-0.076,0.059-0.115,0.088C789.515,473.005,789.551,472.977,789.59,472.947 M789.733,472.836
		c-0.031,0.024-0.062,0.048-0.092,0.072C789.672,472.884,789.702,472.86,789.733,472.836 M789.962,472.657
		c-0.053,0.042-0.107,0.084-0.16,0.126C789.855,472.741,789.909,472.699,789.962,472.657L789.962,472.657"/>
	<path fill="#CCCCCC" d="M789.151,473.28c-0.002,0.001-0.003,0.002-0.005,0.004C789.148,473.282,789.149,473.281,789.151,473.28
		 M789.962,472.657c-0.053,0.042-0.107,0.084-0.16,0.126c-0.023,0.018-0.046,0.036-0.069,0.054
		c-0.031,0.024-0.062,0.048-0.092,0.072c-0.017,0.013-0.034,0.026-0.051,0.039c-0.039,0.03-0.076,0.058-0.115,0.088
		c-0.005,0.003-0.009,0.007-0.014,0.01c-0.077,0.059-0.154,0.117-0.232,0.175C789.476,473.036,789.72,472.849,789.962,472.657"/>
	<path fill="#CCCCCC" d="M789.8,694.037c0.054,0.042,0.108,0.085,0.162,0.127C789.908,694.122,789.854,694.079,789.8,694.037
		 M788.984,693.418c0.271,0.2,0.541,0.404,0.808,0.613c-0.143-0.111-0.285-0.221-0.429-0.33c-0.015-0.011-0.029-0.022-0.044-0.033
		c-0.011-0.008-0.023-0.017-0.033-0.025C789.185,693.567,789.085,693.492,788.984,693.418 M778.689,688.08L778.689,688.08
		c0.247,0.083,0.495,0.168,0.741,0.256C779.184,688.248,778.937,688.163,778.689,688.08L778.689,688.08 M779.249,478.548
		c-0.186,0.065-0.372,0.129-0.559,0.192C778.877,478.678,779.063,478.614,779.249,478.548 M779.427,478.485
		c-0.007,0.003-0.016,0.006-0.023,0.008C779.411,478.491,779.419,478.488,779.427,478.485"/>
	<path fill="#CCCCCC" d="M789.362,693.701c0.144,0.109,0.287,0.219,0.429,0.33c0.003,0.002,0.006,0.004,0.009,0.007
		c0.054,0.042,0.108,0.085,0.162,0.127l0,0C789.763,694.007,789.563,693.853,789.362,693.701 M789.285,693.643
		c0.011,0.008,0.022,0.017,0.033,0.025C789.307,693.659,789.296,693.651,789.285,693.643"/>
	<path fill="#CCCCCC" d="M749.795,690.317c-0.152,0.077-0.303,0.156-0.453,0.236c-0.024,0.013-0.048,0.026-0.071,0.039
		C749.445,690.499,749.62,690.407,749.795,690.317 M759.234,686.98c-0.004,0.001-0.008,0.002-0.012,0.003
		C759.226,686.981,759.23,686.98,759.234,686.98 M759.22,479.839c0.005,0.001,0.01,0.002,0.015,0.003
		C759.23,479.841,759.225,479.84,759.22,479.839 M749.251,476.218c0.03,0.017,0.06,0.033,0.091,0.05
		c0.199,0.106,0.399,0.21,0.6,0.311C749.711,476.461,749.48,476.341,749.251,476.218"/>
	<path fill="#00597B" d="M410.039,392.845v403.752c0,17.991-16.504,31.456-34.128,27.843l-52.504-10.762
		c-14.042-2.879-23.75-15.763-22.629-30.051c6.513-82.976,31.677-346.589,91.744-398.648
		C399.383,379.031,410.039,383.762,410.039,392.845"/>
	<path fill="#FF3300" d="M844.637,804.146l51.604-3.506c-0.408,0.106-33.289,103.636-46.346,144.793
		c-1.629,5.131-8.89,5.131-10.517,0c-13.056-41.157-45.938-144.687-46.346-144.793L844.637,804.146"/>
	<path fill="#FB6808" d="M844.637,802.871l32.845-2.231c-0.26,0.068-21.189,65.959-29.498,92.154c-1.036,3.265-5.657,3.265-6.693,0
		c-8.31-26.195-29.238-92.087-29.498-92.154L844.637,802.871"/>
	<path fill="#FDDA20" d="M844.637,801.908l18.666-1.269c-0.149,0.039-12.043,37.486-16.765,52.373c-0.588,1.856-3.215,1.856-3.803,0
		c-4.723-14.887-16.617-52.334-16.765-52.373L844.637,801.908"/>
	<path fill="#CCCCCC" d="M798.37,816.779c0.662,2.05,1.374,4.26,2.129,6.608c0.01,0.03,0.019,0.06,0.029,0.09
		C799.762,821.094,799.041,818.856,798.37,816.779C798.37,816.778,798.37,816.779,798.37,816.779 M896.241,800.64
		C896.241,800.64,896.241,800.64,896.241,800.64L896.241,800.64C896.241,800.64,896.241,800.64,896.241,800.64"/>
	<path fill="#CC2900" d="M798.37,816.779c0.67,2.077,1.391,4.315,2.158,6.698c0.009,0.028,0.018,0.056,0.027,0.083
		c-0.775-2.413-1.506-4.68-2.184-6.78L798.37,816.779 M896.241,800.64l-1.135,0.077l-0.001,0.001L896.241,800.64
		C896.241,800.64,896.241,800.64,896.241,800.64L896.241,800.64"/>
	<path fill="#00597B" d="M789.962,392.845v403.752c0,17.991,16.504,31.456,34.128,27.843l52.505-10.762
		c14.041-2.879,23.75-15.763,22.628-30.051c-6.511-82.976-31.675-346.589-91.743-398.648
		C800.617,379.031,789.962,383.762,789.962,392.845"/>
	<path fill="#CC2900" d="M596.101,397.504c-53.966,2.058-97.232,46.604-97.232,101.065c0,54.458,43.265,99.003,97.232,101.061
		v-12.063c-47.387-2.045-85.177-41.108-85.177-88.999c0-47.889,37.79-86.954,85.177-88.999V397.504"/>
	<path fill="#63D1E2" d="M689.09,498.568c0,49.2-39.885,89.083-89.083,89.083c-49.2,0-89.083-39.883-89.083-89.083
		c0-49.199,39.883-89.083,89.083-89.083C649.205,409.485,689.09,449.369,689.09,498.568"/>
	<path fill="#4FA7B5" d="M596.101,582.059c-4.381,1.633-8.926,2.931-13.601,3.863c4.425,0.882,8.967,1.442,13.601,1.644V582.059
		 M596.101,409.57c-4.635,0.203-9.176,0.763-13.601,1.645c4.676,0.932,9.22,2.23,13.601,3.863V409.57"/>
	<path fill="#003A47" d="M490.76,332.643c-11.118,0-20.164-9.046-20.164-20.164c0-11.118,9.046-20.164,20.164-20.164
		c11.118,0,20.164,9.046,20.164,20.164C510.924,323.597,501.878,332.643,490.76,332.643"/>
	<path fill="#63D1E2" d="M490.76,328.519c-8.844,0-16.038-7.196-16.038-16.039c0-8.845,7.194-16.038,16.038-16.038
		c8.842,0,16.038,7.193,16.038,16.038C506.798,321.323,499.602,328.519,490.76,328.519"/>
	<path fill="#003A47" d="M709.254,332.643c-11.118,0-20.164-9.046-20.164-20.164c0-11.118,9.046-20.164,20.164-20.164
		c11.118,0,20.164,9.046,20.164,20.164C729.418,323.597,720.372,332.643,709.254,332.643"/>
	<path fill="#63D1E2" d="M709.254,328.519c-8.844,0-16.038-7.196-16.038-16.039c0-8.845,7.194-16.038,16.038-16.038
		c8.844,0,16.04,7.193,16.04,16.038C725.293,321.323,718.098,328.519,709.254,328.519"/>
	<path fill="#003A47" d="M600.007,345.485c-11.118,0-20.164-9.046-20.164-20.164c0-11.118,9.046-20.164,20.164-20.164
		c11.118,0,20.164,9.046,20.164,20.164C620.17,336.439,611.125,345.485,600.007,345.485"/>
	<path fill="#63D1E2" d="M600.007,341.359c-8.844,0-16.038-7.194-16.038-16.038c0-8.844,7.194-16.038,16.038-16.038
		c8.844,0,16.038,7.194,16.038,16.038C616.045,334.165,608.85,341.359,600.007,341.359"/>
	<path fill="#E0F6F9" d="M546.2,485.383c-3.966,0-7.18,3.214-7.18,7.178c0,3.964,3.214,7.178,7.18,7.178
		c3.964,0,7.178-3.214,7.178-7.178C553.378,488.596,550.164,485.383,546.2,485.383"/>
	<path fill="#E0F6F9" d="M573.345,445.575c-9.731,0-17.62,7.888-17.62,17.62c0,9.73,7.888,17.62,17.62,17.62
		c9.732,0,17.62-7.89,17.62-17.62C590.965,453.464,583.077,445.575,573.345,445.575"/>
	<path fill="#E0F6F9" d="M480.887,312.036c-0.858,0-1.553,0.694-1.553,1.552c0,0.857,0.696,1.552,1.553,1.552
		c0.856,0,1.552-0.695,1.552-1.552C482.439,312.73,481.743,312.036,480.887,312.036"/>
	<path fill="#E0F6F9" d="M486.757,303.427c-2.105,0-3.81,1.706-3.81,3.81c0,2.105,1.705,3.811,3.81,3.811s3.81-1.706,3.81-3.811
		C490.567,305.133,488.862,303.427,486.757,303.427"/>
	<path fill="#E0F6F9" d="M593.233,323.749c-0.858,0-1.553,0.694-1.553,1.552c0,0.857,0.696,1.552,1.553,1.552
		c0.856,0,1.552-0.695,1.552-1.552C594.784,324.443,594.089,323.749,593.233,323.749"/>
	<path fill="#E0F6F9" d="M596.101,316.604c-0.506,0.647-0.808,1.461-0.808,2.346c0,0.885,0.302,1.7,0.808,2.347V316.604"/>
	<path fill="#FF3300" d="M600,179.548c34.508,0,81.188-15.885,81.188-15.885L617.602,59.859c-8.053-13.146-27.151-13.146-35.205,0
		l-63.574,103.784C518.824,163.643,559.301,179.548,600,179.548"/>
	<path fill="#CCCCCC" d="M647.659,1023.821c-14.38,45.173-28.67,90.189-37.798,118.96c-0.345,1.09-0.827,2.057-1.413,2.9
		c0.586-0.842,1.068-1.809,1.414-2.9C618.99,1114.009,633.28,1068.993,647.659,1023.821 M648.331,1021.713
		c-0.038,0.118-0.072,0.226-0.11,0.344C648.258,1021.942,648.294,1021.828,648.331,1021.713 M648.413,1021.454
		c-0.007,0.022-0.016,0.049-0.023,0.071C648.399,1021.497,648.404,1021.483,648.413,1021.454 M697.341,871.547
		c-0.261,0.069-0.523,0.138-0.785,0.206c-0.049,0.131-0.106,0.286-0.17,0.464c0.064-0.179,0.121-0.334,0.17-0.464
		C696.819,871.685,697.08,871.616,697.341,871.547 M745.601,857.254c-0.005,0.002-0.009,0.003-0.014,0.005
		C745.592,857.257,745.596,857.256,745.601,857.254 M745.649,857.238c-0.004,0.001-0.007,0.002-0.011,0.004
		C745.642,857.24,745.646,857.239,745.649,857.238 M745.69,857.224c-0.003,0.001-0.006,0.002-0.008,0.003
		C745.684,857.226,745.687,857.225,745.69,857.224 M745.736,857.208c-0.006,0.002-0.013,0.005-0.021,0.007
		C745.723,857.213,745.73,857.21,745.736,857.208 M745.759,857.2c-0.002,0.001-0.004,0.001-0.006,0.002
		C745.755,857.202,745.758,857.201,745.759,857.2 M745.766,857.198c-0.001,0-0.001,0.001-0.002,0.001
		C745.765,857.199,745.766,857.198,745.766,857.198 M745.778,857.194c0,0-0.001,0-0.004,0.001
		C745.777,857.194,745.778,857.194,745.778,857.194 M749.27,690.592c-1.694,0.905-3.334,1.952-4.902,3.142
		c-0.003,0.002-0.004,0.003-0.006,0.005c-0.035,0.027-0.071,0.054-0.106,0.081c-0.025,0.019-0.049,0.038-0.074,0.057
		c-0.029,0.022-0.058,0.045-0.087,0.068c-0.033,0.025-0.064,0.05-0.096,0.075c-0.016,0.012-0.031,0.024-0.047,0.036
		c-0.045,0.035-0.09,0.07-0.134,0.105V808.67l0,0V694.162c0.74-0.586,1.505-1.124,2.277-1.644l0.744-0.485
		c0.557-0.358,1.124-0.694,1.695-1.018C748.78,690.876,749.023,690.727,749.27,690.592 M743.817,265.899L743.817,265.899
		L743.817,265.899v73.704V472.66c0.043,0.034,0.086,0.068,0.129,0.101c0.02,0.016,0.04,0.031,0.06,0.047
		c0.023,0.017,0.045,0.035,0.068,0.052c1.651,1.279,3.384,2.397,5.177,3.357c-0.241-0.133-0.477-0.277-0.717-0.413
		c-0.572-0.324-1.138-0.66-1.695-1.017l-0.744-0.485c-0.773-0.52-1.537-1.06-2.277-1.644V265.899 M681.287,163.822h-0.572v0
		c0.19,0,0.38,0,0.571,0l62.527,102.076l0,0l0,0v0.003c0.004-0.001,0.004-0.001,0.004-0.001l-0.004-0.001L681.287,163.822
		 M617.118,59.105c0.165,0.247,0.327,0.498,0.484,0.754l63.586,103.804c0,0-0.053,0.018-0.156,0.053
		c0.102-0.034,0.158-0.053,0.158-0.053L617.602,59.859C617.445,59.603,617.284,59.351,617.118,59.105"/>
	<path fill="#CC2900" d="M683.987,910.136l-35.855,2.435c-12.991,40.56-32.079,100.672-41.855,131.486
		c-0.972,3.063-3.624,4.595-6.277,4.595c-1.378,0-2.757-0.414-3.899-1.241v101.823c1.252,0.494,2.59,0.741,3.928,0.741
		c3.215,0,6.424-1.428,8.421-4.296c0.586-0.843,1.067-1.81,1.413-2.9c9.128-28.771,23.418-73.786,37.798-118.96
		c0.187-0.589,0.374-1.176,0.562-1.764c0.038-0.118,0.072-0.226,0.11-0.344c0.018-0.057,0.041-0.13,0.06-0.187
		c0.007-0.022,0.016-0.049,0.023-0.071c13.155-41.324,26.311-82.544,35.573-111.318"/>
	<path fill="#C95306" d="M648.131,912.572l-27.066,1.838c-6.364,19.961-13.382,42.067-17.498,55.04
		c-0.552,1.74-2.06,2.61-3.568,2.61c-1.507,0-3.015-0.87-3.567-2.61c-0.109-0.343-0.22-0.692-0.332-1.047v79.008
		c1.142,0.827,2.521,1.241,3.899,1.241c2.653,0,5.305-1.532,6.277-4.595C616.053,1013.244,635.141,953.131,648.131,912.572"/>
	<path fill="#CAAE1A" d="M621.065,914.41L600,915.841l-3.899-0.265v52.827c0.112,0.355,0.223,0.704,0.332,1.047
		c0.552,1.74,2.06,2.61,3.567,2.61c1.508,0,3.015-0.87,3.568-2.61C607.683,956.477,614.701,934.371,621.065,914.41"/>
	<path fill="#A3A3A3" d="M696.556,871.754L696.556,871.754c-0.108,0.288-0.253,0.692-0.432,1.207
		c0.098-0.281,0.186-0.53,0.262-0.743C696.451,872.039,696.507,871.884,696.556,871.754"/>
	<path fill="#A32100" d="M696.556,871.754c-11.815,3.101-24.879,6.241-38.14,8.9c-2.406,7.373-6.015,18.586-10.285,31.918
		l35.855-2.435c6.114-18.996,10.533-32.571,12.137-37.176C696.304,872.445,696.448,872.041,696.556,871.754"/>
	<path fill="#A14205" d="M658.417,880.654c-9.377,1.881-18.856,3.522-28.068,4.742c-2.507,7.79-5.797,18.081-9.283,29.015
		l27.066-1.838C652.401,899.24,656.011,888.027,658.417,880.654"/>
	<path fill="#A28B15" d="M630.348,885.395c-10.66,1.411-20.961,2.258-30.34,2.258c-1.278,0-2.578-0.019-3.907-0.056v27.979
		l3.899,0.265l21.065-1.431C624.551,903.477,627.841,893.185,630.348,885.395"/>
	<path fill="#004762" d="M740.624,842.67l0.166,0.466c-46.102,12.457-93.447,18.718-140.799,18.718c-1.297,0-2.593-0.005-3.89-0.014
		v25.758c1.329,0.037,2.63,0.056,3.907,0.056c9.379,0,19.68-0.846,30.34-2.258c9.213-1.22,18.692-2.861,28.068-4.742
		c13.261-2.66,26.325-5.799,38.14-8.9l0,0c0.262-0.069,0.524-0.138,0.785-0.206c26.19-6.903,46.102-13.565,48.246-14.288
		c0.005-0.002,0.01-0.003,0.014-0.005c0.013-0.004,0.025-0.009,0.037-0.013c0.004-0.001,0.007-0.002,0.011-0.004
		c0.011-0.004,0.022-0.008,0.032-0.011c0.003-0.001,0.006-0.002,0.008-0.003c0.009-0.003,0.018-0.006,0.025-0.009
		c0.008-0.003,0.015-0.005,0.021-0.007s0.012-0.004,0.017-0.006c0.002-0.001,0.004-0.001,0.006-0.002
		c0.002-0.001,0.003-0.001,0.005-0.002c0.001,0,0.002-0.001,0.002-0.001c0.004-0.001,0.007-0.002,0.008-0.003
		c0.002-0.001,0.004-0.001,0.004-0.001l0,0L740.624,842.67"/>
	<path fill="#00394E" d="M730.06,812.902c-42.471,12.35-86.27,18.533-130.068,18.533c-1.297,0-2.594-0.005-3.891-0.016v30.421
		c1.297,0.009,2.593,0.014,3.89,0.014c47.351,0,94.697-6.26,140.799-18.718l-0.166-0.466L730.06,812.902"/>
	<path fill="#CC2900" d="M743.817,265.899L743.817,265.899l-0.004,0.001v0C743.817,265.899,743.817,265.899,743.817,265.899
		l-0.004,73.533c0,0-0.324,0.059-0.948,0.171h0.952V265.899"/>
	<path fill="#CC2900" d="M743.817,339.603L743.817,339.603h-0.952c-9.227,1.648-83.919,14.65-142.865,14.65
		c-1.285,0-2.586-0.007-3.899-0.022v43.273c1.295-0.049,2.599-0.074,3.906-0.074c55.767,0,101.138,45.371,101.138,101.139
		c0,55.765-45.371,101.135-101.138,101.135c-1.307,0-2.611-0.025-3.906-0.074v231.789c1.297,0.011,2.594,0.016,3.891,0.016
		c43.798,0,87.597-6.182,130.068-18.533l-0.007-0.021c4.603-1.339,9.195-2.728,13.765-4.211V694.161
		c-0.001,0.001-0.002,0.002-0.004,0.003V472.657l0,0l0,0c0.001,0.001,0.002,0.002,0.004,0.003V339.603"/>
	<path fill="#004762" d="M709.254,332.643c-11.118,0-20.164-9.046-20.164-20.164c0-11.118,9.046-20.164,20.164-20.164
		c11.118,0,20.164,9.046,20.164,20.164C729.418,323.597,720.372,332.643,709.254,332.643 M743.813,265.898L743.813,265.898
		L743.813,265.898c-46.615,15.927-95.214,23.89-143.813,23.89c-1.299,0-2.601-0.006-3.9-0.017v15.766
		c1.264-0.249,2.57-0.38,3.906-0.38c11.118,0,20.164,9.046,20.164,20.164c0,11.118-9.046,20.164-20.164,20.164
		c-1.336,0-2.642-0.131-3.906-0.38v9.126c1.313,0.015,2.614,0.022,3.899,0.022c58.947,0,133.638-13.003,142.865-14.65
		c0.624-0.111,0.948-0.171,0.948-0.171V265.9V265.898"/>
	<path fill="#CCCCCC" d="M681.286,163.822c-0.19,0-0.38,0-0.571,0c-4.978,1.656-48.238,15.726-80.715,15.726
		c-1.302,0-2.599-0.016-3.899-0.048v110.27c1.299,0.011,2.601,0.017,3.9,0.017c48.599,0,97.198-7.964,143.813-23.89l0,0l0,0
		L681.286,163.822"/>
	<path fill="#CCCCCC" d="M744.094,693.945c-0.032,0.025-0.064,0.05-0.096,0.075C744.03,693.994,744.062,693.97,744.094,693.945
		 M744.256,693.82c-0.025,0.019-0.049,0.038-0.074,0.057C744.207,693.858,744.231,693.839,744.256,693.82 M744.368,693.735
		c-0.002,0.002-0.004,0.003-0.006,0.005C744.364,693.737,744.365,693.737,744.368,693.735 M744.006,472.809
		c0.023,0.017,0.045,0.035,0.068,0.052C744.051,472.843,744.029,472.826,744.006,472.809 M743.813,472.657
		c0.044,0.035,0.088,0.07,0.133,0.104c-0.043-0.034-0.086-0.067-0.129-0.101C743.816,472.659,743.815,472.658,743.813,472.657
		 M743.813,472.657v221.507c0.001-0.001,0.002-0.002,0.004-0.003c0.045-0.035,0.089-0.07,0.134-0.105
		c-0.046,0.036-0.092,0.072-0.138,0.109V472.657L743.813,472.657"/>
	<path fill="#CCCCCC" d="M766.888,686.154c-2.506,0-5.012,0.252-7.477,0.756v0.032l0,0c2.487-0.509,5.013-0.765,7.539-0.765
		c3.967,0,7.933,0.631,11.739,1.902v-0.01C774.864,686.793,770.876,686.154,766.888,686.154 M778.689,478.74L778.689,478.74
		c-3.808,1.272-7.775,1.903-11.743,1.903c-2.525,0-5.05-0.255-7.536-0.764c-0.059-0.012-0.117-0.024-0.176-0.036
		c0.059,0.012,0.117,0.024,0.176,0.036v0.032c2.465,0.504,4.971,0.756,7.477,0.756c3.988,0,7.977-0.639,11.802-1.916V478.74
		L778.689,478.74 M779.403,478.494c-0.051,0.018-0.103,0.037-0.155,0.055C779.3,478.53,779.352,478.512,779.403,478.494
		 M749.942,476.579c2.965,1.507,6.088,2.59,9.278,3.26c-1.888-0.397-3.75-0.946-5.571-1.634l-0.734-0.286
		c-0.499-0.201-0.996-0.408-1.49-0.632C750.928,477.06,750.433,476.826,749.942,476.579 M788.983,473.404
		c-0.547,0.403-1.103,0.789-1.665,1.157l-0.319,0.191c-0.809,0.519-1.628,1.015-2.466,1.465l-0.085,0.042
		c-1.629,0.87-3.308,1.613-5.022,2.226C782.783,477.287,786.007,475.597,788.983,473.404 M800.522,382.337
		c-5.432,0-10.56,4.207-10.56,10.507l0,0C789.962,386.544,795.089,382.337,800.522,382.337c2.398,0,4.856,0.82,6.958,2.642
		c60.067,52.059,85.231,315.672,91.743,398.648c0.004,0.052,0.008,0.104,0.012,0.157c-0.004-0.052-0.008-0.105-0.012-0.157
		c-6.511-82.976-31.675-346.589-91.743-398.648C805.378,383.157,802.92,382.337,800.522,382.337"/>
	<path fill="#CCCCCC" d="M778.689,478.751c-3.825,1.277-7.814,1.916-11.802,1.916c-2.506,0-5.012-0.252-7.477-0.756v207
		c2.465-0.504,4.971-0.756,7.477-0.756c3.988,0,7.977,0.639,11.802,1.916V478.751"/>
	<path fill="#CCCCCC" d="M896.242,800.64l-0.002,0c0,0-0.001,0-0.001,0.001c0,0,0,0,0,0c0,0-0.001,0.001-0.001,0.001c0,0,0,0,0,0
		c0,0.001-0.001,0.001-0.002,0.002c0,0,0,0,0,0c-0.184,0.243-3.101,9.184-7.461,22.742c-0.01,0.031-0.02,0.061-0.03,0.092
		c-4.452,13.846-10.402,32.482-16.488,51.591C884.397,836.949,896,800.702,896.242,800.64 M789.968,797.149c0,0.002,0,0.005,0,0.007
		C789.968,797.154,789.968,797.151,789.968,797.149 M789.962,796.597c0,0.125,0.001,0.25,0.003,0.374
		C789.963,796.846,789.962,796.722,789.962,796.597 M899.277,784.487c0.001,0.016,0.002,0.035,0.003,0.051
		C899.279,784.522,899.278,784.504,899.277,784.487 M899.269,784.329c0.001,0.023,0.003,0.047,0.004,0.069
		C899.272,784.375,899.271,784.353,899.269,784.329 M899.26,784.167c0.002,0.027,0.003,0.056,0.005,0.083
		C899.263,784.222,899.262,784.195,899.26,784.167 M899.25,784.006c0.002,0.03,0.004,0.059,0.006,0.09
		C899.254,784.067,899.252,784.036,899.25,784.006 M899.238,783.838c0.003,0.034,0.005,0.069,0.007,0.103
		C899.243,783.906,899.241,783.872,899.238,783.838 M779.43,688.336c1.708,0.611,3.379,1.352,5.003,2.217l0.102,0.05
		c0.836,0.449,1.654,0.946,2.461,1.464l0.321,0.192c0.563,0.369,1.118,0.755,1.666,1.158
		C786.008,691.225,782.786,689.536,779.43,688.336 M759.222,686.982c-3.244,0.681-6.417,1.788-9.427,3.335
		c0.539-0.275,1.083-0.533,1.63-0.784c0.494-0.222,0.991-0.431,1.491-0.632l0.732-0.285
		C755.47,687.928,757.333,687.379,759.222,686.982 M759.411,686.943c-0.059,0.012-0.118,0.024-0.177,0.037
		C759.293,686.967,759.352,686.955,759.411,686.943"/>
	<path fill="#A3A3A3" d="M789.319,693.668c0.015,0.011,0.029,0.022,0.044,0.033C789.348,693.69,789.333,693.678,789.319,693.668
		 M778.689,688.07v0.01l0,0c0.247,0.083,0.495,0.168,0.741,0.256c3.356,1.199,6.578,2.889,9.554,5.082
		c0.101,0.074,0.201,0.149,0.302,0.225C786.009,691.175,782.428,689.318,778.689,688.07 M789.146,473.283
		c-0.054,0.04-0.108,0.081-0.163,0.121c-2.976,2.193-6.2,3.883-9.556,5.081c-0.008,0.003-0.016,0.005-0.023,0.008
		c-0.052,0.018-0.103,0.037-0.155,0.055c-0.186,0.065-0.372,0.129-0.559,0.192l0,0v0.011
		C782.374,477.521,785.908,475.698,789.146,473.283 M789.23,473.221c-0.026,0.02-0.053,0.04-0.079,0.059
		C789.177,473.261,789.203,473.24,789.23,473.221"/>
	<path fill="#A3A3A3" d="M789.962,472.657L789.962,472.657c-0.242,0.191-0.487,0.379-0.733,0.564
		c-0.026,0.019-0.053,0.04-0.079,0.059c-0.002,0.001-0.003,0.002-0.005,0.004c-3.238,2.415-6.771,4.237-10.456,5.467V688.07
		c3.739,1.248,7.32,3.105,10.596,5.573c0.011,0.008,0.022,0.017,0.033,0.025c0.014,0.011,0.029,0.022,0.044,0.033
		c0.201,0.152,0.401,0.307,0.6,0.464V472.657"/>
	<path fill="#A3A3A3" d="M743.998,694.019c-0.015,0.012-0.032,0.025-0.047,0.036C743.967,694.044,743.983,694.032,743.998,694.019
		 M744.182,693.877c-0.029,0.022-0.058,0.045-0.087,0.068C744.123,693.922,744.153,693.9,744.182,693.877 M744.362,693.739
		c-0.035,0.027-0.071,0.054-0.106,0.081C744.291,693.793,744.327,693.766,744.362,693.739 M759.411,686.91
		c-5.34,1.092-10.491,3.367-15.043,6.824c1.568-1.19,3.208-2.237,4.902-3.142c0.024-0.013,0.047-0.026,0.071-0.039
		c0.151-0.08,0.302-0.159,0.453-0.236c3.009-1.547,6.182-2.654,9.427-3.335c0.004-0.001,0.008-0.002,0.012-0.003
		c0.059-0.012,0.118-0.025,0.177-0.037l0,0V686.91 M744.074,472.861c4.624,3.584,9.881,5.934,15.337,7.049v-0.032
		c-0.059-0.012-0.117-0.024-0.176-0.036c-0.005-0.001-0.01-0.002-0.015-0.003c-3.191-0.67-6.313-1.753-9.278-3.26
		c-0.201-0.101-0.401-0.205-0.6-0.311c-0.03-0.016-0.061-0.033-0.091-0.05C747.457,475.258,745.725,474.14,744.074,472.861
		 M743.946,472.762c0.02,0.016,0.04,0.032,0.06,0.047C743.986,472.793,743.966,472.777,743.946,472.762"/>
	<path fill="#A3A3A3" d="M743.813,472.657v221.507c0.046-0.036,0.092-0.072,0.138-0.109c0.015-0.012,0.031-0.025,0.047-0.036
		c0.032-0.025,0.064-0.05,0.096-0.075c0.029-0.022,0.058-0.045,0.087-0.068c0.025-0.019,0.05-0.038,0.074-0.057
		c0.035-0.027,0.071-0.054,0.106-0.081c0.002-0.002,0.004-0.003,0.006-0.005c4.552-3.457,9.702-5.732,15.043-6.824v-207
		c-5.456-1.115-10.713-3.465-15.337-7.049c-0.023-0.017-0.045-0.035-0.068-0.052c-0.02-0.015-0.04-0.031-0.06-0.047
		C743.902,472.727,743.857,472.692,743.813,472.657L743.813,472.657"/>
	<path fill="#CC2900" d="M888.744,823.479c-2.481,7.586-9.323,12.924-17.293,13.466l-5.835,0.396
		c-6.273,19.661-13.508,42.448-17.633,55.453c-0.518,1.633-1.932,2.449-3.346,2.449c-1.414,0-2.829-0.816-3.346-2.449
		c-4.125-13.005-11.36-35.792-17.633-55.453l-5.837-0.396c-7.94-0.539-14.762-5.841-17.265-13.384
		c10.59,32.936,29.625,92.879,38.823,121.871c0.814,2.566,3.037,3.85,5.259,3.85c2.222,0,4.444-1.283,5.258-3.85
		c5.334-16.813,13.976-44.034,22.361-70.361C878.342,855.96,884.292,837.325,888.744,823.479 M896.236,800.644
		C896.236,800.644,896.236,800.645,896.236,800.644C896.236,800.645,896.236,800.644,896.236,800.644 M896.238,800.642
		C896.238,800.642,896.237,800.642,896.238,800.642C896.237,800.642,896.238,800.642,896.238,800.642 M896.24,800.64
		C896.24,800.641,896.239,800.641,896.24,800.64C896.239,800.641,896.24,800.641,896.24,800.64"/>
	<path fill="#C95306" d="M865.616,837.341l-14.413,0.979c-1.81,5.696-3.468,10.919-4.665,14.692
		c-0.294,0.928-1.098,1.392-1.902,1.392s-1.607-0.464-1.902-1.392c-1.197-3.774-2.855-8.997-4.666-14.692l-14.412-0.979
		c6.272,19.661,13.508,42.448,17.633,55.453c0.518,1.633,1.932,2.449,3.346,2.449c1.414,0,2.829-0.816,3.346-2.449
		C852.109,879.789,859.344,857.002,865.616,837.341"/>
	<path fill="#CAAE1A" d="M838.069,838.32c1.81,5.696,3.469,10.919,4.666,14.692c0.294,0.928,1.098,1.392,1.902,1.392
		s1.607-0.464,1.902-1.392c1.197-3.774,2.855-8.997,4.665-14.692l-6.567,0.446L838.069,838.32"/>
	<path fill="#A3A3A3" d="M896.235,800.645c-0.186,0.244-3.115,9.225-7.491,22.834c0.01-0.031,0.02-0.061,0.03-0.092
		C893.134,809.829,896.051,800.888,896.235,800.645 M896.237,800.642c0,0.001-0.001,0.001-0.002,0.002
		C896.236,800.644,896.237,800.643,896.237,800.642 M896.239,800.641c0,0-0.001,0.001-0.001,0.001
		C896.238,800.642,896.239,800.641,896.239,800.641 M896.241,800.64L896.241,800.64c0,0-0.001,0-0.001,0.001
		C896.24,800.64,896.24,800.64,896.241,800.64"/>
	<path fill="#A32100" d="M798.372,816.78c0.678,2.1,1.408,4.368,2.184,6.78c2.503,7.543,9.325,12.845,17.265,13.384l5.837,0.396
		c-1.375-4.31-2.705-8.473-3.945-12.347c-0.464,0.023-0.928,0.034-1.388,0.034C810.658,825.029,803.553,821.909,798.372,816.78
		 M896.241,800.64l-1.136,0.078c-3.992,6.488-10.556,11.33-18.51,12.961l-3.644,0.747c-2.034,6.321-4.593,14.32-7.335,22.916
		l5.835-0.396c7.97-0.541,14.812-5.88,17.293-13.466c4.376-13.609,7.305-22.591,7.491-22.834c0,0,0,0,0,0
		c0.001-0.001,0.001-0.001,0.002-0.002c0,0,0,0,0,0c0,0,0.001-0.001,0.001-0.001c0,0,0,0,0,0
		C896.24,800.64,896.24,800.64,896.241,800.64"/>
	<path fill="#A14205" d="M833.065,822.601l-8.975,1.839c-1.47,0.301-2.932,0.484-4.378,0.555c1.24,3.873,2.57,8.037,3.945,12.347
		l14.412,0.979C836.45,833.225,834.708,827.753,833.065,822.601 M872.951,814.425l-15.124,3.1
		c-2.075,6.494-4.459,13.983-6.624,20.795l14.413-0.979C868.358,828.746,870.917,820.746,872.951,814.425"/>
	<path fill="#A28B15" d="M857.827,817.525l-24.762,5.076c1.643,5.153,3.385,10.624,5.004,15.72l6.567,0.446l6.567-0.446
		C853.368,831.508,855.752,824.019,857.827,817.525"/>
	<path fill="#004762" d="M789.962,435.985v-29.883c0-18.785,5.183-23.75,10.647-23.75c0.353,0,0.708,0.021,1.062,0.06
		c0.375,3.622,0.774,7.24,1.197,10.857c3.498,29.855,8.589,59.502,14.524,88.963c5.965,29.607,12.787,59.031,19.762,88.412
		c6.965,29.344,14.089,58.651,20.677,88.082c3.27,14.616,6.409,29.263,9.325,43.955c1.452,7.311,2.846,14.634,4.175,21.968
		c0.662,3.658,1.308,7.319,1.936,10.983c0.132,0.775,0.26,1.551,0.392,2.324c-5.575-27.953-12.696-55.577-20.435-83.003
		c-8.06-28.556-16.79-56.918-25.333-85.332c-8.604-28.616-17.03-57.297-24.416-86.256c-3.679-14.423-7.097-28.913-10.139-43.483
		c-0.783-3.745-1.482-7.511-2.205-7.511C790.752,432.368,790.368,433.394,789.962,435.985 M800.522,382.337
		c-5.432,0-10.56,4.207-10.56,10.507v79.813l0,0v221.507l0,0v102.432l0,0c0,0.125,0.001,0.25,0.003,0.374
		c0.001,0.059,0.001,0.119,0.003,0.178c0,0.002,0,0.005,0,0.007c0.148,7.752,3.367,14.626,8.399,19.61
		c0.002,0.006,0.003,0.009,0.005,0.014c5.182,5.128,12.287,8.249,19.953,8.249c0.46,0,0.924-0.011,1.388-0.034
		c1.446-0.071,2.908-0.253,4.378-0.555l8.975-1.839l24.762-5.076l15.124-3.1l3.644-0.747c7.954-1.631,14.518-6.472,18.51-12.961
		l-0.008,0c2.906-4.723,4.456-10.315,4.183-16.18c-0.001-0.016-0.002-0.035-0.003-0.051c-0.001-0.029-0.003-0.059-0.005-0.089
		c-0.001-0.023-0.002-0.047-0.004-0.069c-0.001-0.026-0.003-0.053-0.004-0.08c-0.002-0.027-0.003-0.056-0.005-0.083
		c-0.001-0.024-0.003-0.047-0.004-0.071c-0.002-0.03-0.004-0.059-0.006-0.09c-0.001-0.022-0.003-0.044-0.005-0.066
		c-0.002-0.034-0.005-0.069-0.007-0.103c-0.001-0.018-0.003-0.036-0.004-0.054c-0.004-0.052-0.008-0.104-0.012-0.157
		c-6.511-82.976-31.675-346.589-91.743-398.648C805.378,383.157,802.92,382.337,800.522,382.337"/>
	<path fill="#A32100" d="M600.007,397.43c-1.307,0-2.611,0.025-3.906,0.074v12.064c1.203-0.052,2.408-0.08,3.624-0.084
		c0.094,0,0.188,0,0.283,0c49.199,0,89.083,39.885,89.083,89.083l0,0l0,0c0,49.2-39.885,89.083-89.083,89.083l0,0
		c-0.094,0-0.188,0-0.282,0c-1.215-0.004-2.421-0.032-3.624-0.084v12.063c1.295,0.049,2.599,0.074,3.906,0.074
		c55.767,0,101.138-45.37,101.138-101.135C701.145,442.801,655.773,397.43,600.007,397.43"/>
	<path fill="#4FA7B5" d="M596.101,587.566L596.101,587.566c1.203,0.053,2.409,0.081,3.624,0.085
		C598.51,587.647,597.302,587.618,596.101,587.566 M596.101,415.078v166.981c33.859-12.618,57.976-45.234,57.976-83.491
		C654.076,460.312,629.959,427.696,596.101,415.078 M599.724,409.485c-1.215,0.004-2.42,0.032-3.624,0.084v0.001
		C597.302,409.517,598.51,409.489,599.724,409.485"/>
	<path fill="#821A00" d="M599.725,587.651c0.094,0,0.188,0,0.282,0C599.913,587.651,599.818,587.651,599.725,587.651
		 M600.007,409.485c-0.094,0-0.188,0-0.283,0C599.818,409.485,599.913,409.485,600.007,409.485
		c49.199,0,89.083,39.885,89.083,89.083l0,0C689.09,449.369,649.205,409.485,600.007,409.485"/>
	<path fill="#3F8691" d="M600.007,409.485c-0.093,0-0.189,0-0.283,0c-1.214,0.004-2.422,0.032-3.624,0.085v5.508
		c33.859,12.618,57.976,45.234,57.976,83.49c0,38.257-24.117,70.873-57.976,83.491v5.507c1.202,0.052,2.41,0.081,3.624,0.085
		c0.093,0,0.189,0,0.282,0l0,0c49.199,0,89.083-39.883,89.083-89.083C689.09,449.369,649.205,409.485,600.007,409.485"/>
	<path fill="#002E39" d="M709.254,328.519c-8.844,0-16.038-7.196-16.038-16.039c0-8.845,7.194-16.038,16.038-16.038
		c8.844,0,16.04,7.193,16.04,16.038C725.293,321.323,718.098,328.519,709.254,328.519 M709.254,292.315
		c-11.118,0-20.164,9.046-20.164,20.164c0,11.118,9.046,20.164,20.164,20.164c11.118,0,20.164-9.046,20.164-20.164
		C729.418,301.361,720.372,292.315,709.254,292.315"/>
	<path fill="#4FA7B5" d="M702.697,315.14c-0.857,0-1.552-0.695-1.552-1.552c0-0.858,0.695-1.552,1.552-1.552
		c0.858,0,1.553,0.694,1.553,1.552C704.25,314.444,703.554,315.14,702.697,315.14 M708.567,311.048c-2.104,0-3.81-1.706-3.81-3.811
		c0-2.104,1.706-3.81,3.81-3.81c2.105,0,3.811,1.706,3.811,3.81C712.378,309.341,710.672,311.048,708.567,311.048 M709.254,296.441
		c-8.844,0-16.038,7.193-16.038,16.038c0,8.844,7.194,16.039,16.038,16.039c8.844,0,16.04-7.196,16.04-16.039
		C725.293,303.634,718.098,296.441,709.254,296.441"/>
	<path fill="#002E39" d="M600.007,305.157c-1.336,0-2.642,0.131-3.906,0.38v4.227c1.251-0.314,2.559-0.481,3.906-0.481
		c8.844,0,16.038,7.194,16.038,16.038c0,8.844-7.194,16.038-16.038,16.038c-1.347,0-2.656-0.167-3.906-0.481v4.227
		c1.264,0.249,2.57,0.38,3.906,0.38c11.118,0,20.164-9.046,20.164-20.164C620.17,314.203,611.125,305.157,600.007,305.157"/>
	<path fill="#4FA7B5" d="M600.007,309.283c-1.347,0-2.656,0.167-3.906,0.481v6.839c0.697-0.891,1.782-1.464,3.002-1.464
		c2.105,0,3.81,1.706,3.81,3.81c0,2.105-1.705,3.811-3.81,3.811c-1.22,0-2.305-0.573-3.002-1.464v19.582
		c1.251,0.314,2.559,0.481,3.906,0.481c8.844,0,16.038-7.194,16.038-16.038C616.045,316.478,608.85,309.283,600.007,309.283"/>
	<path fill="#B3C5C7" d="M702.697,312.036c-0.857,0-1.552,0.694-1.552,1.552c0,0.857,0.695,1.552,1.552,1.552
		c0.858,0,1.553-0.695,1.553-1.552C704.25,312.73,703.554,312.036,702.697,312.036"/>
	<path fill="#B3C5C7" d="M708.567,303.427c-2.104,0-3.81,1.706-3.81,3.81c0,2.105,1.706,3.811,3.81,3.811
		c2.105,0,3.811-1.706,3.811-3.811C712.378,305.133,710.672,303.427,708.567,303.427"/>
	<path fill="#B3C5C7" d="M599.103,315.14c-1.22,0-2.305,0.573-3.002,1.464v4.693c0.697,0.891,1.782,1.464,3.002,1.464
		c2.105,0,3.81-1.706,3.81-3.811C602.913,316.846,601.208,315.14,599.103,315.14"/>
	<path fill="#CC2900" d="M600.033,50.035c-1.318,0-2.635,0.123-3.932,0.369v129.096c1.3,0.031,2.598,0.048,3.899,0.048
		c32.477,0,75.737-14.071,80.715-15.726v0h-0.001c0.132-0.044,0.239-0.079,0.318-0.106c0.103-0.035,0.156-0.053,0.156-0.053
		L617.602,59.859c-0.157-0.257-0.319-0.508-0.484-0.754C613.052,53.045,606.545,50.035,600.033,50.035"/>
	<path fill="#337A95" d="M399.392,382.351c-0.353,0-0.708,0.021-1.062,0.06c-0.376,3.622-0.774,7.24-1.198,10.857
		c-3.497,29.855-8.589,59.502-14.524,88.963c-5.965,29.607-12.785,59.031-19.76,88.412c-6.965,29.344-14.089,58.651-20.677,88.082
		c-3.272,14.616-6.411,29.263-9.325,43.955c-1.452,7.311-2.846,14.634-4.174,21.968c-0.663,3.658-1.308,7.319-1.936,10.983
		c-0.133,0.775-0.26,1.551-0.392,2.324c5.575-27.953,12.696-55.577,20.435-83.003c8.059-28.556,16.79-56.918,25.332-85.332
		c8.604-28.616,17.03-57.297,24.416-86.256c3.679-14.423,7.098-28.913,10.141-43.483c0.782-3.745,1.482-7.511,2.205-7.511
		c0.378,0,0.762,1.026,1.168,3.616v-29.883C410.039,387.316,404.856,382.351,399.392,382.351"/>
	<path fill="#336C81" d="M800.609,382.351c-5.465,0-10.647,4.965-10.647,23.75v29.883c0.406-2.591,0.79-3.616,1.167-3.616
		c0.723,0,1.423,3.767,2.205,7.511c3.043,14.57,6.461,29.061,10.139,43.483c7.385,28.959,15.812,57.64,24.416,86.256
		c8.543,28.414,17.273,56.775,25.333,85.332c7.739,27.426,14.86,55.05,20.435,83.003c-0.132-0.774-0.26-1.549-0.392-2.324
		c-0.628-3.664-1.274-7.324-1.936-10.983c-1.328-7.334-2.723-14.657-4.175-21.968c-2.915-14.692-6.054-29.338-9.325-43.955
		c-6.589-29.431-13.712-58.738-20.677-88.082c-6.975-29.382-13.796-58.806-19.762-88.412c-5.935-29.46-11.026-59.108-14.524-88.963
		c-0.423-3.616-0.821-7.235-1.197-10.857C801.317,382.372,800.963,382.351,800.609,382.351"/>
	<path fill="#00597B" d="M407.906,434.667c-7.098,35.092-16.437,69.688-26.452,104.047c-10.037,34.433-20.783,68.656-30.752,103.109
		c-9.712,33.566-18.697,67.383-25.291,101.714l-0.164-0.029c0.087-0.527,0.187-1.052,0.274-1.579
		c0.033-0.319,0.091-0.645,0.169-0.973c4.396-26.4,9.729-52.632,15.535-78.755c10.737-48.307,22.987-96.264,33.698-144.577
		c9.901-44.657,18.472-89.685,23.221-135.201c-1.961,0.252-3.91,1.071-5.624,2.556c-60.067,52.059-85.231,315.672-91.743,398.648
		c-1.121,14.289,8.587,27.173,22.629,30.051l52.504,10.762c17.625,3.612,34.129-9.852,34.129-27.843V424.42
		C409.319,427.833,408.598,431.247,407.906,434.667z"/>
</g>
</svg>
